<svg width="28" height="28" viewBox="0 0 28 28" fill="none" xmlns="http://www.w3.org/2000/svg">
<g clip-path="url(#clip0_820_625)">
<path d="M1.75 4.94861C3.29875 4.30111 5.5195 3.60286 7.679 3.38586C10.0065 3.15136 11.9805 3.49611 13.125 4.70186V21.7574C11.4888 20.8299 9.415 20.7021 7.50225 20.8946C5.43725 21.1046 3.35475 21.7014 1.75 22.3139V4.94861ZM14.875 4.70186C16.0195 3.49611 17.9935 3.15136 20.321 3.38586C22.4805 3.60286 24.7013 4.30111 26.25 4.94861V22.3139C24.6435 21.7014 22.5627 21.1029 20.4978 20.8964C18.5833 20.7021 16.5112 20.8281 14.875 21.7574V4.70186ZM14 3.11986C12.2762 1.63761 9.77725 1.41711 7.50225 1.64461C4.85275 1.91236 2.17875 2.82061 0.51275 3.57836C0.359886 3.64788 0.230257 3.75993 0.139337 3.90112C0.0484167 4.04231 4.65e-05 4.20668 0 4.37461L0 23.6246C4.05335e-05 23.771 0.036815 23.9151 0.106955 24.0436C0.177095 24.1721 0.278358 24.2809 0.401469 24.3602C0.52458 24.4394 0.665603 24.4865 0.811621 24.4971C0.957639 24.5077 1.10398 24.4815 1.23725 24.4209C2.78075 23.7209 5.2675 22.8791 7.67725 22.6359C10.143 22.3874 12.2098 22.7881 13.3175 24.1706C13.3995 24.2728 13.5034 24.3553 13.6215 24.412C13.7396 24.4686 13.869 24.4981 14 24.4981C14.131 24.4981 14.2604 24.4686 14.3785 24.412C14.4966 24.3553 14.6005 24.2728 14.6825 24.1706C15.7903 22.7881 17.857 22.3874 20.321 22.6359C22.7325 22.8791 25.221 23.7209 26.7628 24.4209C26.896 24.4815 27.0424 24.5077 27.1884 24.4971C27.3344 24.4865 27.4754 24.4394 27.5985 24.3602C27.7216 24.2809 27.8229 24.1721 27.893 24.0436C27.9632 23.9151 28 23.771 28 23.6246V4.37461C28 4.20668 27.9516 4.04231 27.8607 3.90112C27.7697 3.75993 27.6401 3.64788 27.4872 3.57836C25.8212 2.82061 23.1473 1.91236 20.4978 1.64461C18.2227 1.41536 15.7238 1.63761 14 3.11986Z" fill="#2B2A26"/>
</g>
<defs>
<clipPath id="clip0_820_625">
<rect width="28" height="28" fill="white"/>
</clipPath>
</defs>
</svg>
