<svg width="25" height="24" viewBox="0 0 25 24" fill="none" xmlns="http://www.w3.org/2000/svg">
<path fill-rule="evenodd" clip-rule="evenodd" d="M0.30107 4.04583C2.28362 5.31071 4.2504 6.58282 5.91056 8.22076C4.95892 12.1246 8.75705 15.2436 12.221 17.0812C13.577 17.8005 14.1764 18.3048 15.686 18.0624L21.6309 23.472C10.4431 26.9615 -2.11261 12.3215 0.30107 4.04583ZM17.2185 16.6716L18.5226 15.4415C18.8986 15.0862 19.5194 15.0817 19.902 15.4311L24.71 19.8275C25.0923 20.177 25.0972 20.7535 24.7212 21.1086L23.4166 22.3389C23.0404 22.694 22.4196 22.6985 22.037 22.3491L17.229 17.9527C16.8465 17.6034 16.8418 17.0269 17.2185 16.6716ZM1.47289 1.45846L2.41927 0.391239C2.82495 -0.0661955 3.56018 -0.132213 4.05272 0.244555L8.97492 4.01048C9.46746 4.38764 9.53791 5.07008 9.13265 5.5281L8.18586 6.59473C7.77997 7.05275 7.04495 7.11819 6.5522 6.74142L1.63083 2.97549C1.1383 2.59872 1.06679 1.91589 1.47289 1.45846Z" fill="black" fill-opacity="0.83"/>
</svg>
