<svg width="28" height="28" viewBox="0 0 28 28" fill="none" xmlns="http://www.w3.org/2000/svg">
<path d="M25.5621 20.6379H9.27891L10.0965 18.9727L23.6809 18.948C24.1402 18.948 24.534 18.6199 24.616 18.166L26.4973 7.63594C26.5465 7.35977 26.4727 7.07539 26.2922 6.85938C26.203 6.75306 26.0917 6.66743 25.9661 6.60841C25.8405 6.54939 25.7036 6.51839 25.5648 6.51758L8.28359 6.46016L8.13594 5.76563C8.04297 5.32266 7.64375 5 7.18984 5H2.96523C2.70924 5 2.46373 5.10169 2.28271 5.28271C2.10169 5.46373 2 5.70924 2 5.96523C2 6.22123 2.10169 6.46674 2.28271 6.64776C2.46373 6.82877 2.70924 6.93047 2.96523 6.93047H6.40781L7.05312 9.99844L8.6418 17.6902L6.59648 21.0289C6.49027 21.1723 6.42629 21.3425 6.4118 21.5203C6.3973 21.6981 6.43286 21.8765 6.51445 22.0352C6.67852 22.3605 7.00937 22.5656 7.37578 22.5656H9.09297C8.72689 23.0519 8.52915 23.6441 8.52969 24.2527C8.52969 25.8004 9.7875 27.0582 11.3352 27.0582C12.8828 27.0582 14.1406 25.8004 14.1406 24.2527C14.1406 23.643 13.9383 23.0496 13.5773 22.5656H17.9824C17.6163 23.0519 17.4186 23.6441 17.4191 24.2527C17.4191 25.8004 18.677 27.0582 20.2246 27.0582C21.7723 27.0582 23.0301 25.8004 23.0301 24.2527C23.0301 23.643 22.8277 23.0496 22.4668 22.5656H25.5648C26.0953 22.5656 26.5301 22.1336 26.5301 21.6004C26.5285 21.3447 26.4258 21.0999 26.2445 20.9196C26.0631 20.7393 25.8178 20.638 25.5621 20.6379ZM8.68555 8.36328L24.4301 8.41523L22.8879 17.0504L10.5203 17.0723L8.68555 8.36328ZM11.3352 25.1168C10.8594 25.1168 10.4711 24.7285 10.4711 24.2527C10.4711 23.777 10.8594 23.3887 11.3352 23.3887C11.8109 23.3887 12.1992 23.777 12.1992 24.2527C12.1992 24.4819 12.1082 24.7017 11.9461 24.8637C11.7841 25.0258 11.5643 25.1168 11.3352 25.1168ZM20.2246 25.1168C19.7488 25.1168 19.3605 24.7285 19.3605 24.2527C19.3605 23.777 19.7488 23.3887 20.2246 23.3887C20.7004 23.3887 21.0887 23.777 21.0887 24.2527C21.0887 24.4819 20.9976 24.7017 20.8356 24.8637C20.6735 25.0258 20.4538 25.1168 20.2246 25.1168Z" fill="black"/>
</svg>
