<svg width="21" height="21" viewBox="0 0 21 21" fill="none" xmlns="http://www.w3.org/2000/svg">
<g clip-path="url(#clip0_378_15237)">
<path d="M0.625683 10.4317C0.625219 12.1498 1.06396 13.8274 1.89822 15.3061L0.545898 20.3582L5.59885 19.0025C6.99643 19.781 8.56232 20.1889 10.1536 20.189H10.1578C15.4108 20.189 19.6869 15.8153 19.6891 10.4394C19.6901 7.83444 18.6996 5.38487 16.8998 3.54195C15.1004 1.69919 12.7072 0.683806 10.1574 0.682617C4.90371 0.682617 0.62793 5.05611 0.625761 10.4317" fill="url(#paint0_linear_378_15237)"/>
<path d="M0.285032 10.4287C0.28449 12.2086 0.738955 13.9462 1.60296 15.4777L0.202148 20.711L5.43628 19.3067C6.87846 20.1113 8.5022 20.5355 10.1544 20.5361H10.1587C15.6002 20.5361 20.0299 16.0051 20.0322 10.4367C20.0332 7.73814 19.0069 5.20052 17.1429 3.29157C15.2787 1.38286 12.7999 0.330944 10.1587 0.329834C4.71628 0.329834 0.287201 4.86026 0.285032 10.4287ZM3.40207 15.214L3.20664 14.8965C2.38508 13.5599 1.95146 12.0153 1.95208 10.4293C1.95386 5.80098 5.63513 2.03548 10.1618 2.03548C12.354 2.03643 14.4141 2.91081 15.9637 4.49725C17.5131 6.08385 18.3657 8.19293 18.3652 10.4361C18.3632 15.0644 14.6818 18.8304 10.1587 18.8304H10.1555C8.68268 18.8296 7.23826 18.4249 5.97859 17.6601L5.67881 17.4782L2.57277 18.3115L3.40207 15.2139V15.214Z" fill="url(#paint1_linear_378_15237)"/>
<path d="M7.69085 6.20671C7.50603 5.7864 7.31152 5.77792 7.13576 5.77055C6.99184 5.76421 6.82731 5.76469 6.66294 5.76469C6.49841 5.76469 6.23109 5.82801 6.00514 6.08045C5.77895 6.33313 5.1416 6.94374 5.1416 8.18564C5.1416 9.42763 6.02567 10.6278 6.14891 10.7964C6.2723 10.9647 7.85561 13.5948 10.3632 14.6066C12.4472 15.4475 12.8713 15.2802 13.3236 15.2381C13.776 15.1961 14.7833 14.6276 14.9888 14.0382C15.1944 13.4488 15.1944 12.9436 15.1328 12.838C15.0711 12.7329 14.9066 12.6697 14.6599 12.5435C14.4131 12.4173 13.2002 11.8066 12.9741 11.7223C12.7479 11.6381 12.5835 11.5961 12.4189 11.8489C12.2544 12.1013 11.782 12.6697 11.638 12.838C11.4941 13.0068 11.3501 13.0278 11.1035 12.9015C10.8566 12.7749 10.0621 12.5086 9.11947 11.6488C8.38607 10.9797 7.89093 10.1534 7.74701 9.90064C7.60309 9.64828 7.7316 9.51148 7.8553 9.3857C7.96615 9.2726 8.10209 9.09093 8.22557 8.94359C8.34857 8.79617 8.38963 8.691 8.47189 8.52265C8.55423 8.35415 8.51302 8.20673 8.45144 8.08047C8.38963 7.95421 7.91022 6.7058 7.69085 6.20671Z" fill="white"/>
</g>
<defs>
<linearGradient id="paint0_linear_378_15237" x1="957.707" y1="1968.24" x2="957.707" y2="0.682617" gradientUnits="userSpaceOnUse">
<stop stop-color="#1FAF38"/>
<stop offset="1" stop-color="#60D669"/>
</linearGradient>
<linearGradient id="paint1_linear_378_15237" x1="991.706" y1="2038.44" x2="991.706" y2="0.329834" gradientUnits="userSpaceOnUse">
<stop stop-color="#F9F9F9"/>
<stop offset="1" stop-color="white"/>
</linearGradient>
<clipPath id="clip0_378_15237">
<rect width="19.8301" height="20.4487" fill="white" transform="translate(0.202148 0.329834)"/>
</clipPath>
</defs>
</svg>
