<svg width="467" height="311" viewBox="0 0 467 311" fill="none" xmlns="http://www.w3.org/2000/svg">
<g filter="url(#filter0_d_711_7786)">
<rect x="17.8535" y="13.8418" width="431.7" height="276.288" rx="6.9072" fill="white" shape-rendering="crispEdges"/>
<path d="M54.2116 51.9754V57.3779H53.0939V51.9754H54.2116ZM56.5534 54.2709V55.1613H53.9101V54.2709H56.5534ZM56.8549 51.9754V52.8657H53.9101V51.9754H56.8549ZM58.4417 51.9754H60.5703C60.9011 51.9754 61.1979 52.0109 61.4607 52.082C61.7234 52.1531 61.946 52.2582 62.1284 52.3974C62.3139 52.5334 62.4546 52.7034 62.5504 52.9075C62.6494 53.1084 62.6988 53.3418 62.6988 53.6077C62.6988 53.9014 62.6463 54.1534 62.5412 54.3636C62.4361 54.5708 62.2877 54.7423 62.096 54.8784C61.9043 55.0144 61.6786 55.1242 61.4189 55.2076L61.0618 55.4024H59.1837L59.1744 54.512H60.5842C60.8068 54.512 60.9907 54.478 61.136 54.41C61.2813 54.342 61.3911 54.2477 61.4653 54.1271C61.5395 54.0034 61.5766 53.8612 61.5766 53.7005C61.5766 53.5304 61.5395 53.3836 61.4653 53.2599C61.3942 53.1332 61.2829 53.0358 61.1314 52.9678C60.983 52.8997 60.796 52.8657 60.5703 52.8657H59.564V57.3779H58.4417V51.9754ZM61.7157 57.3779L60.3801 54.985L61.5627 54.9758L62.9214 57.3269V57.3779H61.7157ZM68.3805 56.4922V57.3779H65.2874V56.4922H68.3805ZM65.6398 51.9754V57.3779H64.5222V51.9754H65.6398ZM67.9817 54.141V55.0268H65.2874V54.141H67.9817ZM68.3712 51.9754V52.8657H65.2874V51.9754H68.3712ZM73.1069 56.5664L74.6604 57.735L73.9416 58.3471L72.4205 57.1832L73.1069 56.5664ZM74.6882 54.5491V54.8088C74.6882 55.22 74.6295 55.5879 74.512 55.9125C74.3976 56.2371 74.2322 56.5154 74.0158 56.7472C73.7994 56.976 73.5412 57.1507 73.2413 57.2713C72.9445 57.3918 72.6122 57.4521 72.2443 57.4521C71.8857 57.4521 71.5564 57.3918 71.2565 57.2713C70.9566 57.1507 70.697 56.976 70.4774 56.7472C70.2579 56.5154 70.0895 56.2371 69.972 55.9125C69.8545 55.5879 69.7958 55.22 69.7958 54.8088V54.5491C69.7958 54.1379 69.8545 53.77 69.972 53.4454C70.0895 53.1208 70.2564 52.8426 70.4728 52.6107C70.6892 52.3788 70.9474 52.2026 71.2473 52.082C71.5471 51.9614 71.8779 51.9012 72.2397 51.9012C72.6045 51.9012 72.9353 51.9614 73.2321 52.082C73.5319 52.2026 73.7901 52.3788 74.0065 52.6107C74.226 52.8426 74.3945 53.1208 74.512 53.4454C74.6295 53.77 74.6882 54.1379 74.6882 54.5491ZM73.5752 54.8088V54.5398C73.5752 54.2585 73.5443 54.0096 73.4825 53.7932C73.4237 53.5768 73.3372 53.3944 73.2228 53.246C73.1084 53.0976 72.9677 52.9848 72.8008 52.9075C72.6369 52.8302 72.4499 52.7915 72.2397 52.7915C72.0294 52.7915 71.8424 52.8302 71.6785 52.9075C71.5147 52.9848 71.3756 53.0976 71.2612 53.246C71.1468 53.3944 71.0587 53.5768 70.9968 53.7932C70.9381 54.0096 70.9087 54.2585 70.9087 54.5398V54.8088C70.9087 55.0871 70.9381 55.3359 70.9968 55.5554C71.0587 55.7718 71.1468 55.9558 71.2612 56.1073C71.3786 56.2557 71.5193 56.3701 71.6832 56.4504C71.8501 56.5277 72.0372 56.5664 72.2443 56.5664C72.4545 56.5664 72.6416 56.5277 72.8054 56.4504C72.9724 56.3701 73.113 56.2557 73.2274 56.1073C73.3418 55.9558 73.4284 55.7718 73.4871 55.5554C73.5459 55.3359 73.5752 55.0871 73.5752 54.8088ZM79.7067 51.9754H80.829V55.5369C80.829 55.9512 80.7331 56.3021 80.5414 56.5896C80.3498 56.874 80.0885 57.0889 79.7577 57.2342C79.4269 57.3795 79.0498 57.4521 78.6262 57.4521C78.1965 57.4521 77.8147 57.3795 77.4808 57.2342C77.15 57.0889 76.8903 56.874 76.7017 56.5896C76.5131 56.3021 76.4188 55.9512 76.4188 55.5369V51.9754H77.5318V55.5369C77.5318 55.7749 77.5751 55.9713 77.6616 56.1258C77.7513 56.2773 77.878 56.3886 78.0419 56.4597C78.2057 56.5308 78.4005 56.5664 78.6262 56.5664C78.8519 56.5664 79.0451 56.5308 79.2059 56.4597C79.3666 56.3886 79.4903 56.2773 79.5769 56.1258C79.6634 55.9713 79.7067 55.7749 79.7067 55.5369V51.9754ZM86.5802 56.4922V57.3779H83.487V56.4922H86.5802ZM83.8395 51.9754V57.3779H82.7219V51.9754H83.8395ZM86.1814 54.141V55.0268H83.487V54.141H86.1814ZM86.5709 51.9754V52.8657H83.487V51.9754H86.5709ZM92.8647 51.9754V57.3779H91.7425L89.3032 53.6541V57.3779H88.1856V51.9754H89.3032L91.7425 55.6992V51.9754H92.8647ZM98.2032 55.5786H99.3254C99.2976 55.9465 99.1894 56.2711 99.0008 56.5525C98.8153 56.8338 98.5556 57.0549 98.2217 57.2156C97.8879 57.3733 97.4844 57.4521 97.0114 57.4521C96.6435 57.4521 96.3127 57.3918 96.019 57.2713C95.7284 57.1507 95.4795 56.9791 95.2724 56.7565C95.0683 56.5308 94.9106 56.2588 94.7993 55.9403C94.6911 55.6188 94.637 55.2586 94.637 54.8598V54.4981C94.637 54.0993 94.6927 53.7407 94.804 53.4222C94.9153 53.1007 95.076 52.8271 95.2863 52.6014C95.4965 52.3726 95.7469 52.1995 96.0375 52.082C96.3312 51.9614 96.6605 51.9012 97.0253 51.9012C97.5045 51.9012 97.9079 51.9831 98.2357 52.1469C98.5634 52.3077 98.8184 52.5318 99.0008 52.8194C99.1832 53.1069 99.293 53.4361 99.3301 53.8071H98.2125C98.1939 53.6062 98.1429 53.43 98.0594 53.2785C97.976 53.1239 97.8508 53.0033 97.6838 52.9168C97.5169 52.8302 97.2974 52.7869 97.0253 52.7869C96.8151 52.7869 96.6311 52.824 96.4734 52.8982C96.3158 52.9693 96.1828 53.0775 96.0746 53.2228C95.9695 53.3681 95.8891 53.5474 95.8335 53.7608C95.7809 53.971 95.7546 54.2152 95.7546 54.4935V54.8598C95.7546 55.1319 95.7778 55.3746 95.8242 55.5879C95.8737 55.7981 95.9494 55.9759 96.0514 56.1212C96.1535 56.2665 96.2833 56.3778 96.441 56.4551C96.6017 56.5293 96.7919 56.5664 97.0114 56.5664C97.2742 56.5664 97.489 56.5308 97.656 56.4597C97.8229 56.3855 97.9512 56.2742 98.0409 56.1258C98.1305 55.9774 98.1846 55.795 98.2032 55.5786ZM102.721 54.9989L104.26 51.9754H105.485L103.486 55.5786H102.855L102.721 54.9989ZM101.728 51.9754L103.277 55.0268L103.124 55.5786H102.503L100.504 51.9754H101.728ZM103.537 54.8459V57.3779H102.419V54.8459H103.537ZM114.863 54.5491V54.8088C114.863 55.22 114.805 55.5879 114.687 55.9125C114.57 56.2371 114.403 56.5154 114.186 56.7472C113.973 56.976 113.716 57.1507 113.416 57.2713C113.117 57.3918 112.786 57.4521 112.424 57.4521C112.062 57.4521 111.731 57.3918 111.432 57.2713C111.132 57.1507 110.872 56.976 110.653 56.7472C110.433 56.5154 110.263 56.2371 110.142 55.9125C110.025 55.5879 109.966 55.22 109.966 54.8088V54.5491C109.966 54.1379 110.025 53.77 110.142 53.4454C110.263 53.1208 110.431 52.8426 110.648 52.6107C110.864 52.3788 111.122 52.2026 111.422 52.082C111.722 51.9614 112.053 51.9012 112.415 51.9012C112.78 51.9012 113.11 51.9614 113.407 52.082C113.707 52.2026 113.965 52.3788 114.182 52.6107C114.401 52.8426 114.57 53.1208 114.687 53.4454C114.805 53.77 114.863 54.1379 114.863 54.5491ZM113.746 54.8088V54.5398C113.746 54.2585 113.716 54.0096 113.658 53.7932C113.599 53.5768 113.511 53.3944 113.393 53.246C113.279 53.0976 113.14 52.9848 112.976 52.9075C112.812 52.8302 112.625 52.7915 112.415 52.7915C112.208 52.7915 112.021 52.8302 111.854 52.9075C111.69 52.9848 111.551 53.0976 111.436 53.246C111.325 53.3944 111.238 53.5768 111.177 53.7932C111.118 54.0096 111.088 54.2585 111.088 54.5398V54.8088C111.088 55.0871 111.118 55.3359 111.177 55.5554C111.238 55.7718 111.326 55.9558 111.441 56.1073C111.558 56.2557 111.699 56.3701 111.863 56.4504C112.03 56.5277 112.217 56.5664 112.424 56.5664C112.634 56.5664 112.82 56.5277 112.98 56.4504C113.144 56.3701 113.283 56.2557 113.398 56.1073C113.512 55.9558 113.599 55.7718 113.658 55.5554C113.716 55.3359 113.746 55.0871 113.746 54.8088ZM117.762 51.9754V57.3779H116.645V51.9754H117.762ZM120.104 54.2709V55.1613H117.461V54.2709H120.104ZM120.406 51.9754V52.8657H117.461V51.9754H120.406ZM127.41 55.9774L128.769 51.9754H129.951L127.911 57.3779H127.081L127.41 55.9774ZM125.903 51.9754L127.248 55.9682L127.586 57.3779H126.751L124.716 51.9754H125.903ZM132.6 51.9754V57.3779H131.478V51.9754H132.6ZM137.674 55.9635C137.674 55.8615 137.656 55.7703 137.619 55.6899C137.585 55.6095 137.524 55.5369 137.438 55.472C137.354 55.4039 137.238 55.3406 137.09 55.2818C136.945 55.2231 136.761 55.1674 136.538 55.1149C136.217 55.0376 135.932 54.951 135.685 54.8552C135.441 54.7563 135.235 54.6419 135.068 54.512C134.901 54.3822 134.774 54.2291 134.688 54.0529C134.604 53.8767 134.563 53.6711 134.563 53.4361C134.563 53.2105 134.612 53.0049 134.711 52.8194C134.81 52.6308 134.951 52.4685 135.133 52.3324C135.315 52.1933 135.532 52.0867 135.782 52.0125C136.033 51.9383 136.308 51.9012 136.608 51.9012C137.044 51.9012 137.422 51.9723 137.744 52.1145C138.065 52.2567 138.314 52.453 138.49 52.7034C138.67 52.9508 138.759 53.2383 138.759 53.566H137.642C137.642 53.4114 137.602 53.2723 137.521 53.1486C137.444 53.025 137.329 52.926 137.178 52.8518C137.027 52.7776 136.836 52.7405 136.608 52.7405C136.388 52.7405 136.207 52.773 136.065 52.8379C135.923 52.8997 135.816 52.9817 135.745 53.0837C135.677 53.1826 135.643 53.2908 135.643 53.4083C135.643 53.5011 135.663 53.5845 135.703 53.6587C135.747 53.7329 135.815 53.8009 135.907 53.8628C136 53.9246 136.121 53.9834 136.269 54.039C136.417 54.0947 136.598 54.1488 136.812 54.2013C137.13 54.2755 137.411 54.3636 137.656 54.4656C137.9 54.5677 138.104 54.6882 138.268 54.8274C138.432 54.9634 138.554 55.1242 138.634 55.3096C138.718 55.4921 138.759 55.7007 138.759 55.9357C138.759 56.1738 138.71 56.3871 138.611 56.5757C138.512 56.7612 138.37 56.9188 138.184 57.0487C138.002 57.1785 137.782 57.279 137.526 57.3501C137.269 57.4181 136.983 57.4521 136.668 57.4521C136.39 57.4521 136.113 57.4181 135.838 57.3501C135.566 57.2821 135.32 57.177 135.1 57.0348C134.881 56.8925 134.705 56.7117 134.572 56.4922C134.442 56.2696 134.377 56.0084 134.377 55.7085H135.499C135.499 55.8692 135.527 56.0084 135.583 56.1258C135.641 56.2402 135.723 56.3345 135.829 56.4087C135.937 56.4798 136.065 56.5324 136.213 56.5664C136.362 56.6004 136.526 56.6174 136.705 56.6174C136.931 56.6174 137.115 56.588 137.257 56.5293C137.402 56.4675 137.507 56.3871 137.572 56.2881C137.64 56.1892 137.674 56.081 137.674 55.9635ZM141.7 51.9754V57.3779H140.578V51.9754H141.7ZM146.25 51.9754V57.3779H145.133V51.9754H146.25ZM148.05 51.9754V52.8657H143.357V51.9754H148.05Z" fill="black"/>
<path d="M361.568 53.8779H366.749" stroke="#7B61FF" stroke-width="5.1804"/>
<path d="M388.567 56.4922V57.3779H385.641V56.4922H388.567ZM385.993 51.9754V57.3779H384.876V51.9754H385.993ZM394.782 54.5491V54.8088C394.782 55.22 394.723 55.5879 394.606 55.9125C394.488 56.2371 394.321 56.5154 394.105 56.7472C393.892 56.976 393.635 57.1507 393.335 57.2713C393.035 57.3918 392.704 57.4521 392.343 57.4521C391.981 57.4521 391.65 57.3918 391.35 57.2713C391.05 57.1507 390.791 56.976 390.571 56.7472C390.352 56.5154 390.182 56.2371 390.061 55.9125C389.944 55.5879 389.885 55.22 389.885 54.8088V54.5491C389.885 54.1379 389.944 53.77 390.061 53.4454C390.182 53.1208 390.35 52.8426 390.567 52.6107C390.783 52.3788 391.041 52.2026 391.341 52.082C391.641 51.9614 391.972 51.9012 392.333 51.9012C392.698 51.9012 393.029 51.9614 393.326 52.082C393.626 52.2026 393.884 52.3788 394.1 52.6107C394.32 52.8426 394.488 53.1208 394.606 53.4454C394.723 53.77 394.782 54.1379 394.782 54.5491ZM393.664 54.8088V54.5398C393.664 54.2585 393.635 54.0096 393.576 53.7932C393.517 53.5768 393.429 53.3944 393.312 53.246C393.198 53.0976 393.058 52.9848 392.895 52.9075C392.731 52.8302 392.544 52.7915 392.333 52.7915C392.126 52.7915 391.939 52.8302 391.772 52.9075C391.608 52.9848 391.469 53.0976 391.355 53.246C391.244 53.3944 391.157 53.5768 391.095 53.7932C391.036 54.0096 391.007 54.2585 391.007 54.5398V54.8088C391.007 55.0871 391.036 55.3359 391.095 55.5554C391.157 55.7718 391.245 55.9558 391.36 56.1073C391.477 56.2557 391.618 56.3701 391.782 56.4504C391.948 56.5277 392.136 56.5664 392.343 56.5664C392.553 56.5664 392.738 56.5277 392.899 56.4504C393.063 56.3701 393.202 56.2557 393.317 56.1073C393.431 55.9558 393.517 55.7718 393.576 55.5554C393.635 55.3359 393.664 55.0871 393.664 54.8088ZM396.559 51.9754H398.687C399.018 51.9754 399.315 52.0109 399.578 52.082C399.841 52.1531 400.063 52.2582 400.246 52.3974C400.431 52.5334 400.572 52.7034 400.668 52.9075C400.767 53.1084 400.816 53.3418 400.816 53.6077C400.816 53.9014 400.763 54.1534 400.658 54.3636C400.553 54.5708 400.405 54.7423 400.213 54.8784C400.022 55.0144 399.796 55.1242 399.536 55.2076L399.179 55.4024H397.301L397.292 54.512H398.701C398.924 54.512 399.108 54.478 399.253 54.41C399.399 54.342 399.508 54.2477 399.583 54.1271C399.657 54.0034 399.694 53.8612 399.694 53.7005C399.694 53.5304 399.657 53.3836 399.583 53.2599C399.511 53.1332 399.4 53.0358 399.249 52.9678C399.1 52.8997 398.913 52.8657 398.687 52.8657H397.681V57.3779H396.559V51.9754ZM399.833 57.3779L398.497 54.985L399.68 54.9758L401.039 57.3269V57.3779H399.833ZM406.498 56.4922V57.3779H403.405V56.4922H406.498ZM403.757 51.9754V57.3779H402.639V51.9754H403.757ZM406.099 54.141V55.0268H403.405V54.141H406.099ZM406.488 51.9754V52.8657H403.405V51.9754H406.488ZM408.599 51.9754H409.564L411.127 55.9125L412.685 51.9754H413.649L411.507 57.3779H410.742L408.599 51.9754ZM408.103 51.9754H409.049L409.221 55.894V57.3779H408.103V51.9754ZM413.204 51.9754H414.155V57.3779H413.037V55.894L413.204 51.9754Z" fill="#949494"/>
<path d="M56.1059 97.5115V102.914H54.9882V98.81L53.5228 99.1949V98.3138L55.9806 97.5115H56.1059ZM63.0396 99.7374V100.688C63.0396 101.081 62.9901 101.422 62.8912 101.713C62.7954 102 62.6578 102.239 62.4785 102.427C62.3023 102.616 62.0889 102.756 61.8385 102.849C61.5912 102.942 61.316 102.988 61.0131 102.988C60.7101 102.988 60.4334 102.942 60.183 102.849C59.9356 102.756 59.7223 102.616 59.543 102.427C59.3637 102.239 59.2246 102 59.1256 101.713C59.0267 101.422 58.9772 101.081 58.9772 100.688V99.7374C58.9772 99.3448 59.0252 99.0047 59.121 98.7172C59.2199 98.4297 59.3591 98.1916 59.5384 98.0031C59.7177 97.8114 59.931 97.6692 60.1783 97.5764C60.4257 97.4837 60.7008 97.4373 61.0038 97.4373C61.3068 97.4373 61.5835 97.4837 61.8339 97.5764C62.0843 97.6692 62.2992 97.8114 62.4785 98.0031C62.6578 98.1916 62.7954 98.4297 62.8912 98.7172C62.9901 99.0047 63.0396 99.3448 63.0396 99.7374ZM61.9174 100.776V99.6401C61.9174 99.4144 61.8973 99.2196 61.8571 99.0557C61.8169 98.8888 61.7581 98.7512 61.6808 98.643C61.6036 98.5348 61.5077 98.456 61.3933 98.4065C61.282 98.354 61.1522 98.3277 61.0038 98.3277C60.8616 98.3277 60.7333 98.354 60.6189 98.4065C60.5076 98.456 60.4133 98.5348 60.336 98.643C60.2587 98.7512 60.2 98.8888 60.1598 99.0557C60.1196 99.2196 60.0995 99.4144 60.0995 99.6401V100.776C60.0995 101.005 60.1196 101.203 60.1598 101.37C60.2 101.537 60.2587 101.674 60.336 101.783C60.4164 101.891 60.5138 101.971 60.6282 102.024C60.7425 102.076 60.8708 102.103 61.0131 102.103C61.1584 102.103 61.2867 102.076 61.398 102.024C61.5124 101.971 61.6082 101.891 61.6855 101.783C61.7628 101.674 61.82 101.537 61.8571 101.37C61.8973 101.203 61.9174 101.005 61.9174 100.776ZM68.7908 99.7374V100.688C68.7908 101.081 68.7414 101.422 68.6424 101.713C68.5466 102 68.409 102.239 68.2297 102.427C68.0535 102.616 67.8402 102.756 67.5897 102.849C67.3424 102.942 67.0673 102.988 66.7643 102.988C66.4613 102.988 66.1846 102.942 65.9342 102.849C65.6869 102.756 65.4735 102.616 65.2942 102.427C65.1149 102.239 64.9758 102 64.8769 101.713C64.7779 101.422 64.7285 101.081 64.7285 100.688V99.7374C64.7285 99.3448 64.7764 99.0047 64.8722 98.7172C64.9712 98.4297 65.1103 98.1916 65.2896 98.0031C65.4689 97.8114 65.6822 97.6692 65.9295 97.5764C66.1769 97.4837 66.452 97.4373 66.755 97.4373C67.058 97.4373 67.3347 97.4837 67.5851 97.5764C67.8355 97.6692 68.0504 97.8114 68.2297 98.0031C68.409 98.1916 68.5466 98.4297 68.6424 98.7172C68.7414 99.0047 68.7908 99.3448 68.7908 99.7374ZM67.6686 100.776V99.6401C67.6686 99.4144 67.6485 99.2196 67.6083 99.0557C67.5681 98.8888 67.5094 98.7512 67.4321 98.643C67.3548 98.5348 67.2589 98.456 67.1445 98.4065C67.0333 98.354 66.9034 98.3277 66.755 98.3277C66.6128 98.3277 66.4845 98.354 66.3701 98.4065C66.2588 98.456 66.1645 98.5348 66.0872 98.643C66.0099 98.7512 65.9512 98.8888 65.911 99.0557C65.8708 99.2196 65.8507 99.4144 65.8507 99.6401V100.776C65.8507 101.005 65.8708 101.203 65.911 101.37C65.9512 101.537 66.0099 101.674 66.0872 101.783C66.1676 101.891 66.265 101.971 66.3794 102.024C66.4938 102.076 66.6221 102.103 66.7643 102.103C66.9096 102.103 67.0379 102.076 67.1492 102.024C67.2636 101.971 67.3594 101.891 67.4367 101.783C67.514 101.674 67.5712 101.537 67.6083 101.37C67.6485 101.203 67.6686 101.005 67.6686 100.776ZM74.542 99.7374V100.688C74.542 101.081 74.4926 101.422 74.3936 101.713C74.2978 102 74.1602 102.239 73.9809 102.427C73.8047 102.616 73.5914 102.756 73.341 102.849C73.0936 102.942 72.8185 102.988 72.5155 102.988C72.2125 102.988 71.9358 102.942 71.6854 102.849C71.4381 102.756 71.2248 102.616 71.0454 102.427C70.8661 102.239 70.727 102 70.6281 101.713C70.5291 101.422 70.4797 101.081 70.4797 100.688V99.7374C70.4797 99.3448 70.5276 99.0047 70.6234 98.7172C70.7224 98.4297 70.8615 98.1916 71.0408 98.0031C71.2201 97.8114 71.4334 97.6692 71.6808 97.5764C71.9281 97.4837 72.2032 97.4373 72.5062 97.4373C72.8092 97.4373 73.0859 97.4837 73.3363 97.5764C73.5867 97.6692 73.8016 97.8114 73.9809 98.0031C74.1602 98.1916 74.2978 98.4297 74.3936 98.7172C74.4926 99.0047 74.542 99.3448 74.542 99.7374ZM73.4198 100.776V99.6401C73.4198 99.4144 73.3997 99.2196 73.3595 99.0557C73.3193 98.8888 73.2606 98.7512 73.1833 98.643C73.106 98.5348 73.0102 98.456 72.8958 98.4065C72.7845 98.354 72.6546 98.3277 72.5062 98.3277C72.364 98.3277 72.2357 98.354 72.1213 98.4065C72.01 98.456 71.9157 98.5348 71.8384 98.643C71.7611 98.7512 71.7024 98.8888 71.6622 99.0557C71.622 99.2196 71.6019 99.4144 71.6019 99.6401V100.776C71.6019 101.005 71.622 101.203 71.6622 101.37C71.7024 101.537 71.7611 101.674 71.8384 101.783C71.9188 101.891 72.0162 101.971 72.1306 102.024C72.245 102.076 72.3733 102.103 72.5155 102.103C72.6608 102.103 72.7891 102.076 72.9004 102.024C73.0148 101.971 73.1106 101.891 73.1879 101.783C73.2652 101.674 73.3224 101.537 73.3595 101.37C73.3997 101.203 73.4198 101.005 73.4198 100.776Z" fill="#949494"/>
<path d="M90.0664 99.4141H79.7056" stroke="#655B96" stroke-width="0.863399"/>
<path d="M63.1733 130.847C63.1733 131.103 63.1207 131.329 63.0156 131.524C62.9136 131.716 62.7714 131.876 62.589 132.006C62.4066 132.136 62.1917 132.235 61.9444 132.303C61.697 132.368 61.4281 132.4 61.1375 132.4C60.751 132.4 60.4032 132.343 60.094 132.229C59.788 132.111 59.5453 131.937 59.366 131.705C59.1867 131.473 59.097 131.187 59.097 130.847C59.097 130.612 59.1465 130.403 59.2454 130.221C59.3474 130.035 59.4896 129.878 59.672 129.748C59.8575 129.615 60.0724 129.514 60.3166 129.446C60.564 129.375 60.8345 129.34 61.1282 129.34C61.4219 129.34 61.6924 129.375 61.9397 129.446C62.1901 129.514 62.4066 129.615 62.589 129.748C62.7745 129.878 62.9182 130.035 63.0202 130.221C63.1223 130.403 63.1733 130.612 63.1733 130.847ZM62.051 130.759C62.051 130.601 62.0124 130.467 61.9351 130.355C61.8578 130.244 61.7496 130.159 61.6105 130.1C61.4713 130.038 61.3106 130.007 61.1282 130.007C60.9458 130.007 60.785 130.038 60.6459 130.1C60.5099 130.159 60.4032 130.244 60.3259 130.355C60.2517 130.467 60.2146 130.601 60.2146 130.759C60.2146 130.916 60.2517 131.052 60.3259 131.167C60.4032 131.278 60.5114 131.365 60.6505 131.427C60.7896 131.485 60.952 131.515 61.1375 131.515C61.3199 131.515 61.4791 131.485 61.6151 131.427C61.7542 131.365 61.8609 131.278 61.9351 131.167C62.0124 131.052 62.051 130.916 62.051 130.759ZM63.0388 128.361C63.0388 128.571 62.9909 128.763 62.895 128.936C62.8023 129.106 62.6709 129.255 62.5008 129.381C62.3308 129.505 62.1299 129.601 61.898 129.669C61.6692 129.734 61.4157 129.766 61.1375 129.766C60.8592 129.766 60.6042 129.734 60.3723 129.669C60.1404 129.601 59.9395 129.505 59.7694 129.381C59.5994 129.255 59.4664 129.106 59.3706 128.936C59.2779 128.763 59.2315 128.571 59.2315 128.361C59.2315 128.033 59.3119 127.758 59.4726 127.536C59.6365 127.31 59.8622 127.14 60.1497 127.026C60.4372 126.908 60.7634 126.849 61.1282 126.849C61.4992 126.849 61.8269 126.908 62.1113 127.026C62.3988 127.14 62.6245 127.31 62.7884 127.536C62.9553 127.758 63.0388 128.033 63.0388 128.361ZM61.9212 128.417C61.9212 128.281 61.8887 128.162 61.8238 128.06C61.7589 127.955 61.6677 127.874 61.5502 127.819C61.4327 127.763 61.292 127.735 61.1282 127.735C60.9674 127.735 60.8283 127.763 60.7108 127.819C60.5964 127.874 60.5068 127.953 60.4418 128.055C60.38 128.154 60.3491 128.275 60.3491 128.417C60.3491 128.556 60.38 128.678 60.4418 128.783C60.5068 128.888 60.598 128.97 60.7155 129.029C60.836 129.088 60.9767 129.117 61.1375 129.117C61.3013 129.117 61.4404 129.088 61.5548 129.029C61.6723 128.97 61.762 128.888 61.8238 128.783C61.8887 128.678 61.9212 128.556 61.9212 128.417ZM68.9152 129.15V130.1C68.9152 130.493 68.8657 130.834 68.7668 131.125C68.671 131.413 68.5334 131.651 68.3541 131.839C68.1779 132.028 67.9645 132.169 67.7141 132.261C67.4668 132.354 67.1916 132.4 66.8887 132.4C66.5857 132.4 66.309 132.354 66.0586 132.261C65.8112 132.169 65.5979 132.028 65.4186 131.839C65.2393 131.651 65.1002 131.413 65.0013 131.125C64.9023 130.834 64.8529 130.493 64.8529 130.1V129.15C64.8529 128.757 64.9008 128.417 64.9966 128.129C65.0955 127.842 65.2347 127.604 65.414 127.415C65.5933 127.223 65.8066 127.081 66.0539 126.989C66.3013 126.896 66.5764 126.849 66.8794 126.849C67.1824 126.849 67.4591 126.896 67.7095 126.989C67.9599 127.081 68.1748 127.223 68.3541 127.415C68.5334 127.604 68.671 127.842 68.7668 128.129C68.8657 128.417 68.9152 128.757 68.9152 129.15ZM67.793 130.188V129.052C67.793 128.826 67.7729 128.632 67.7327 128.468C67.6925 128.301 67.6337 128.163 67.5565 128.055C67.4792 127.947 67.3833 127.868 67.2689 127.819C67.1576 127.766 67.0278 127.74 66.8794 127.74C66.7372 127.74 66.6089 127.766 66.4945 127.819C66.3832 127.868 66.2889 127.947 66.2116 128.055C66.1343 128.163 66.0756 128.301 66.0354 128.468C65.9952 128.632 65.9751 128.826 65.9751 129.052V130.188C65.9751 130.417 65.9952 130.615 66.0354 130.782C66.0756 130.949 66.1343 131.086 66.2116 131.195C66.292 131.303 66.3894 131.383 66.5038 131.436C66.6182 131.488 66.7465 131.515 66.8887 131.515C67.034 131.515 67.1623 131.488 67.2736 131.436C67.388 131.383 67.4838 131.303 67.5611 131.195C67.6384 131.086 67.6956 130.949 67.7327 130.782C67.7729 130.615 67.793 130.417 67.793 130.188ZM74.6664 129.15V130.1C74.6664 130.493 74.617 130.834 74.518 131.125C74.4222 131.413 74.2846 131.651 74.1053 131.839C73.9291 132.028 73.7158 132.169 73.4653 132.261C73.218 132.354 72.9429 132.4 72.6399 132.4C72.3369 132.4 72.0602 132.354 71.8098 132.261C71.5625 132.169 71.3491 132.028 71.1698 131.839C70.9905 131.651 70.8514 131.413 70.7525 131.125C70.6535 130.834 70.6041 130.493 70.6041 130.1V129.15C70.6041 128.757 70.652 128.417 70.7478 128.129C70.8468 127.842 70.9859 127.604 71.1652 127.415C71.3445 127.223 71.5578 127.081 71.8052 126.989C72.0525 126.896 72.3276 126.849 72.6306 126.849C72.9336 126.849 73.2103 126.896 73.4607 126.989C73.7111 127.081 73.926 127.223 74.1053 127.415C74.2846 127.604 74.4222 127.842 74.518 128.129C74.617 128.417 74.6664 128.757 74.6664 129.15ZM73.5442 130.188V129.052C73.5442 128.826 73.5241 128.632 73.4839 128.468C73.4437 128.301 73.385 128.163 73.3077 128.055C73.2304 127.947 73.1345 127.868 73.0202 127.819C72.9089 127.766 72.779 127.74 72.6306 127.74C72.4884 127.74 72.3601 127.766 72.2457 127.819C72.1344 127.868 72.0401 127.947 71.9628 128.055C71.8855 128.163 71.8268 128.301 71.7866 128.468C71.7464 128.632 71.7263 128.826 71.7263 129.052V130.188C71.7263 130.417 71.7464 130.615 71.7866 130.782C71.8268 130.949 71.8855 131.086 71.9628 131.195C72.0432 131.303 72.1406 131.383 72.255 131.436C72.3694 131.488 72.4977 131.515 72.6399 131.515C72.7852 131.515 72.9135 131.488 73.0248 131.436C73.1392 131.383 73.235 131.303 73.3123 131.195C73.3896 131.086 73.4468 130.949 73.4839 130.782C73.5241 130.615 73.5442 130.417 73.5442 130.188Z" fill="#949494"/>
<path d="M90.0664 128.826H79.7056" stroke="#655B96" stroke-width="0.863399"/>
<path d="M62.1994 156.27H62.3571V157.179H62.2829C61.9521 157.179 61.6599 157.216 61.4064 157.29C61.156 157.361 60.9442 157.471 60.7711 157.619C60.6011 157.768 60.4712 157.955 60.3816 158.18C60.295 158.406 60.2517 158.67 60.2517 158.973V159.766C60.2517 159.958 60.2749 160.127 60.3213 160.272C60.3707 160.417 60.4388 160.539 60.5253 160.638C60.6119 160.734 60.7139 160.807 60.8314 160.856C60.952 160.903 61.0818 160.926 61.2209 160.926C61.4095 160.926 61.5734 160.884 61.7125 160.801C61.8516 160.714 61.9583 160.598 62.0325 160.453C62.1098 160.304 62.1484 160.14 62.1484 159.961C62.1484 159.776 62.1113 159.613 62.0371 159.474C61.966 159.335 61.8609 159.227 61.7218 159.15C61.5857 159.069 61.4188 159.029 61.2209 159.029C61.0231 159.029 60.8453 159.068 60.6876 159.145C60.533 159.219 60.4094 159.315 60.3166 159.433C60.227 159.55 60.1791 159.674 60.1729 159.804L59.8714 159.474C59.8807 159.276 59.9534 159.077 60.0894 158.876C60.2254 158.672 60.4156 158.5 60.6598 158.361C60.904 158.219 61.1931 158.148 61.527 158.148C61.9134 158.148 62.2334 158.228 62.4869 158.389C62.7435 158.55 62.9352 158.768 63.062 159.043C63.1918 159.315 63.2567 159.618 63.2567 159.952C63.2567 160.304 63.1748 160.621 63.011 160.903C62.8471 161.181 62.6152 161.402 62.3154 161.566C62.0155 161.73 61.6584 161.812 61.2441 161.812C60.9226 161.812 60.632 161.762 60.3723 161.663C60.1126 161.561 59.89 161.417 59.7045 161.232C59.5221 161.043 59.3814 160.818 59.2825 160.555C59.1836 160.289 59.1341 159.991 59.1341 159.66V159.289C59.1341 158.816 59.2006 158.394 59.3335 158.023C59.4695 157.649 59.6674 157.332 59.9271 157.072C60.1899 156.809 60.5114 156.61 60.8917 156.474C61.2719 156.338 61.7079 156.27 62.1994 156.27ZM68.9152 158.561V159.511C68.9152 159.904 68.8657 160.246 68.7668 160.536C68.671 160.824 68.5334 161.062 68.3541 161.25C68.1779 161.439 67.9645 161.58 67.7141 161.672C67.4668 161.765 67.1916 161.812 66.8887 161.812C66.5857 161.812 66.309 161.765 66.0586 161.672C65.8112 161.58 65.5979 161.439 65.4186 161.25C65.2393 161.062 65.1002 160.824 65.0013 160.536C64.9023 160.246 64.8529 159.904 64.8529 159.511V158.561C64.8529 158.168 64.9008 157.828 64.9966 157.54C65.0955 157.253 65.2347 157.015 65.414 156.826C65.5933 156.635 65.8066 156.492 66.0539 156.4C66.3013 156.307 66.5764 156.261 66.8794 156.261C67.1824 156.261 67.4591 156.307 67.7095 156.4C67.9599 156.492 68.1748 156.635 68.3541 156.826C68.5334 157.015 68.671 157.253 68.7668 157.54C68.8657 157.828 68.9152 158.168 68.9152 158.561ZM67.793 159.599V158.463C67.793 158.238 67.7729 158.043 67.7327 157.879C67.6925 157.712 67.6337 157.574 67.5565 157.466C67.4792 157.358 67.3833 157.279 67.2689 157.23C67.1576 157.177 67.0278 157.151 66.8794 157.151C66.7372 157.151 66.6089 157.177 66.4945 157.23C66.3832 157.279 66.2889 157.358 66.2116 157.466C66.1343 157.574 66.0756 157.712 66.0354 157.879C65.9952 158.043 65.9751 158.238 65.9751 158.463V159.599C65.9751 159.828 65.9952 160.026 66.0354 160.193C66.0756 160.36 66.1343 160.498 66.2116 160.606C66.292 160.714 66.3894 160.794 66.5038 160.847C66.6182 160.899 66.7465 160.926 66.8887 160.926C67.034 160.926 67.1623 160.899 67.2736 160.847C67.388 160.794 67.4838 160.714 67.5611 160.606C67.6384 160.498 67.6956 160.36 67.7327 160.193C67.7729 160.026 67.793 159.828 67.793 159.599ZM74.6664 158.561V159.511C74.6664 159.904 74.617 160.246 74.518 160.536C74.4222 160.824 74.2846 161.062 74.1053 161.25C73.9291 161.439 73.7158 161.58 73.4653 161.672C73.218 161.765 72.9429 161.812 72.6399 161.812C72.3369 161.812 72.0602 161.765 71.8098 161.672C71.5625 161.58 71.3491 161.439 71.1698 161.25C70.9905 161.062 70.8514 160.824 70.7525 160.536C70.6535 160.246 70.6041 159.904 70.6041 159.511V158.561C70.6041 158.168 70.652 157.828 70.7478 157.54C70.8468 157.253 70.9859 157.015 71.1652 156.826C71.3445 156.635 71.5578 156.492 71.8052 156.4C72.0525 156.307 72.3276 156.261 72.6306 156.261C72.9336 156.261 73.2103 156.307 73.4607 156.4C73.7111 156.492 73.926 156.635 74.1053 156.826C74.2846 157.015 74.4222 157.253 74.518 157.54C74.617 157.828 74.6664 158.168 74.6664 158.561ZM73.5442 159.599V158.463C73.5442 158.238 73.5241 158.043 73.4839 157.879C73.4437 157.712 73.385 157.574 73.3077 157.466C73.2304 157.358 73.1345 157.279 73.0202 157.23C72.9089 157.177 72.779 157.151 72.6306 157.151C72.4884 157.151 72.3601 157.177 72.2457 157.23C72.1344 157.279 72.0401 157.358 71.9628 157.466C71.8855 157.574 71.8268 157.712 71.7866 157.879C71.7464 158.043 71.7263 158.238 71.7263 158.463V159.599C71.7263 159.828 71.7464 160.026 71.7866 160.193C71.8268 160.36 71.8855 160.498 71.9628 160.606C72.0432 160.714 72.1406 160.794 72.255 160.847C72.3694 160.899 72.4977 160.926 72.6399 160.926C72.7852 160.926 72.9135 160.899 73.0248 160.847C73.1392 160.794 73.235 160.714 73.3123 160.606C73.3896 160.498 73.4468 160.36 73.4839 160.193C73.5241 160.026 73.5442 159.828 73.5442 159.599Z" fill="#949494"/>
<path d="M90.0664 158.237H79.7056" stroke="#655B96" stroke-width="0.863399"/>
<path d="M63.3541 189.095V189.985H58.9764L58.9301 189.285L61.4992 185.747H62.3756L61.4111 187.319L60.0523 189.095H63.3541ZM62.6353 185.747V191.149H61.5177V185.747H62.6353ZM68.9152 187.973V188.923C68.9152 189.316 68.8657 189.658 68.7668 189.948C68.671 190.236 68.5334 190.474 68.3541 190.662C68.1779 190.851 67.9645 190.992 67.7141 191.084C67.4668 191.177 67.1916 191.224 66.8887 191.224C66.5857 191.224 66.309 191.177 66.0586 191.084C65.8112 190.992 65.5979 190.851 65.4186 190.662C65.2393 190.474 65.1002 190.236 65.0013 189.948C64.9023 189.658 64.8529 189.316 64.8529 188.923V187.973C64.8529 187.58 64.9008 187.24 64.9966 186.953C65.0955 186.665 65.2347 186.427 65.414 186.238C65.5933 186.047 65.8066 185.905 66.0539 185.812C66.3013 185.719 66.5764 185.673 66.8794 185.673C67.1824 185.673 67.4591 185.719 67.7095 185.812C67.9599 185.905 68.1748 186.047 68.3541 186.238C68.5334 186.427 68.671 186.665 68.7668 186.953C68.8657 187.24 68.9152 187.58 68.9152 187.973ZM67.793 189.012V187.875C67.793 187.65 67.7729 187.455 67.7327 187.291C67.6925 187.124 67.6337 186.987 67.5565 186.878C67.4792 186.77 67.3833 186.691 67.2689 186.642C67.1576 186.589 67.0278 186.563 66.8794 186.563C66.7372 186.563 66.6089 186.589 66.4945 186.642C66.3832 186.691 66.2889 186.77 66.2116 186.878C66.1343 186.987 66.0756 187.124 66.0354 187.291C65.9952 187.455 65.9751 187.65 65.9751 187.875V189.012C65.9751 189.24 65.9952 189.438 66.0354 189.605C66.0756 189.772 66.1343 189.91 66.2116 190.018C66.292 190.126 66.3894 190.206 66.5038 190.259C66.6182 190.312 66.7465 190.338 66.8887 190.338C67.034 190.338 67.1623 190.312 67.2736 190.259C67.388 190.206 67.4838 190.126 67.5611 190.018C67.6384 189.91 67.6956 189.772 67.7327 189.605C67.7729 189.438 67.793 189.24 67.793 189.012ZM74.6664 187.973V188.923C74.6664 189.316 74.617 189.658 74.518 189.948C74.4222 190.236 74.2846 190.474 74.1053 190.662C73.9291 190.851 73.7158 190.992 73.4653 191.084C73.218 191.177 72.9429 191.224 72.6399 191.224C72.3369 191.224 72.0602 191.177 71.8098 191.084C71.5625 190.992 71.3491 190.851 71.1698 190.662C70.9905 190.474 70.8514 190.236 70.7525 189.948C70.6535 189.658 70.6041 189.316 70.6041 188.923V187.973C70.6041 187.58 70.652 187.24 70.7478 186.953C70.8468 186.665 70.9859 186.427 71.1652 186.238C71.3445 186.047 71.5578 185.905 71.8052 185.812C72.0525 185.719 72.3276 185.673 72.6306 185.673C72.9336 185.673 73.2103 185.719 73.4607 185.812C73.7111 185.905 73.926 186.047 74.1053 186.238C74.2846 186.427 74.4222 186.665 74.518 186.953C74.617 187.24 74.6664 187.58 74.6664 187.973ZM73.5442 189.012V187.875C73.5442 187.65 73.5241 187.455 73.4839 187.291C73.4437 187.124 73.385 186.987 73.3077 186.878C73.2304 186.77 73.1345 186.691 73.0202 186.642C72.9089 186.589 72.779 186.563 72.6306 186.563C72.4884 186.563 72.3601 186.589 72.2457 186.642C72.1344 186.691 72.0401 186.77 71.9628 186.878C71.8855 186.987 71.8268 187.124 71.7866 187.291C71.7464 187.455 71.7263 187.65 71.7263 187.875V189.012C71.7263 189.24 71.7464 189.438 71.7866 189.605C71.8268 189.772 71.8855 189.91 71.9628 190.018C72.0432 190.126 72.1406 190.206 72.255 190.259C72.3694 190.312 72.4977 190.338 72.6399 190.338C72.7852 190.338 72.9135 190.312 73.0248 190.259C73.1392 190.206 73.235 190.126 73.3123 190.018C73.3896 189.91 73.4468 189.772 73.4839 189.605C73.5241 189.438 73.5442 189.24 73.5442 189.012Z" fill="#949494"/>
<path d="M90.0664 187.649H79.7056" stroke="#655B96" stroke-width="0.863399"/>
<path d="M63.2475 219.675V220.561H59.1248V219.805L61.0957 217.959C61.2998 217.77 61.4605 217.602 61.578 217.453C61.6986 217.302 61.7851 217.166 61.8377 217.045C61.8903 216.922 61.9165 216.81 61.9165 216.712C61.9165 216.495 61.8454 216.317 61.7032 216.178C61.561 216.039 61.357 215.97 61.0911 215.97C60.8716 215.97 60.6892 216.01 60.5439 216.09C60.4017 216.167 60.2965 216.274 60.2285 216.41C60.1605 216.546 60.1265 216.701 60.1265 216.874H59.0043C59.0043 216.546 59.0862 216.246 59.25 215.974C59.4139 215.702 59.6488 215.486 59.9549 215.325C60.2641 215.164 60.6335 215.084 61.0633 215.084C61.4775 215.084 61.8315 215.149 62.1252 215.279C62.422 215.408 62.6477 215.595 62.8023 215.84C62.9569 216.081 63.0342 216.367 63.0342 216.698C63.0342 216.88 63.0032 217.053 62.9414 217.217C62.8827 217.381 62.7961 217.54 62.6817 217.695C62.5673 217.849 62.4282 218.007 62.2643 218.168C62.1005 218.328 61.915 218.5 61.7079 218.682L60.5578 219.675H63.2475ZM68.9152 217.384V218.335C68.9152 218.727 68.8657 219.069 68.7668 219.359C68.671 219.647 68.5334 219.885 68.3541 220.074C68.1779 220.262 67.9645 220.403 67.7141 220.496C67.4668 220.588 67.1916 220.635 66.8887 220.635C66.5857 220.635 66.309 220.588 66.0586 220.496C65.8112 220.403 65.5979 220.262 65.4186 220.074C65.2393 219.885 65.1002 219.647 65.0013 219.359C64.9023 219.069 64.8529 218.727 64.8529 218.335V217.384C64.8529 216.991 64.9008 216.651 64.9966 216.364C65.0955 216.076 65.2347 215.838 65.414 215.65C65.5933 215.458 65.8066 215.316 66.0539 215.223C66.3013 215.13 66.5764 215.084 66.8794 215.084C67.1824 215.084 67.4591 215.13 67.7095 215.223C67.9599 215.316 68.1748 215.458 68.3541 215.65C68.5334 215.838 68.671 216.076 68.7668 216.364C68.8657 216.651 68.9152 216.991 68.9152 217.384ZM67.793 218.423V217.287C67.793 217.061 67.7729 216.866 67.7327 216.702C67.6925 216.535 67.6337 216.398 67.5565 216.29C67.4792 216.181 67.3833 216.102 67.2689 216.053C67.1576 216 67.0278 215.974 66.8794 215.974C66.7372 215.974 66.6089 216 66.4945 216.053C66.3832 216.102 66.2889 216.181 66.2116 216.29C66.1343 216.398 66.0756 216.535 66.0354 216.702C65.9952 216.866 65.9751 217.061 65.9751 217.287V218.423C65.9751 218.651 65.9952 218.849 66.0354 219.016C66.0756 219.183 66.1343 219.321 66.2116 219.429C66.292 219.537 66.3894 219.618 66.5038 219.67C66.6182 219.723 66.7465 219.749 66.8887 219.749C67.034 219.749 67.1623 219.723 67.2736 219.67C67.388 219.618 67.4838 219.537 67.5611 219.429C67.6384 219.321 67.6956 219.183 67.7327 219.016C67.7729 218.849 67.793 218.651 67.793 218.423ZM74.6664 217.384V218.335C74.6664 218.727 74.617 219.069 74.518 219.359C74.4222 219.647 74.2846 219.885 74.1053 220.074C73.9291 220.262 73.7158 220.403 73.4653 220.496C73.218 220.588 72.9429 220.635 72.6399 220.635C72.3369 220.635 72.0602 220.588 71.8098 220.496C71.5625 220.403 71.3491 220.262 71.1698 220.074C70.9905 219.885 70.8514 219.647 70.7525 219.359C70.6535 219.069 70.6041 218.727 70.6041 218.335V217.384C70.6041 216.991 70.652 216.651 70.7478 216.364C70.8468 216.076 70.9859 215.838 71.1652 215.65C71.3445 215.458 71.5578 215.316 71.8052 215.223C72.0525 215.13 72.3276 215.084 72.6306 215.084C72.9336 215.084 73.2103 215.13 73.4607 215.223C73.7111 215.316 73.926 215.458 74.1053 215.65C74.2846 215.838 74.4222 216.076 74.518 216.364C74.617 216.651 74.6664 216.991 74.6664 217.384ZM73.5442 218.423V217.287C73.5442 217.061 73.5241 216.866 73.4839 216.702C73.4437 216.535 73.385 216.398 73.3077 216.29C73.2304 216.181 73.1345 216.102 73.0202 216.053C72.9089 216 72.779 215.974 72.6306 215.974C72.4884 215.974 72.3601 216 72.2457 216.053C72.1344 216.102 72.0401 216.181 71.9628 216.29C71.8855 216.398 71.8268 216.535 71.7866 216.702C71.7464 216.866 71.7263 217.061 71.7263 217.287V218.423C71.7263 218.651 71.7464 218.849 71.7866 219.016C71.8268 219.183 71.8855 219.321 71.9628 219.429C72.0432 219.537 72.1406 219.618 72.255 219.67C72.3694 219.723 72.4977 219.749 72.6399 219.749C72.7852 219.749 72.9135 219.723 73.0248 219.67C73.1392 219.618 73.235 219.537 73.3123 219.429C73.3896 219.321 73.4468 219.183 73.4839 219.016C73.5241 218.849 73.5442 218.651 73.5442 218.423Z" fill="#949494"/>
<path d="M90.0664 217.061H79.7056" stroke="#655B96" stroke-width="0.863399"/>
<path d="M90.0664 93.9141V231.195" stroke="#655B96" stroke-width="0.863399"/>
<rect x="96.9727" y="179.262" width="4.27843" height="52.1569" fill="#7B61FF"/>
<rect x="124.869" y="139.975" width="4.27843" height="91.4438" fill="#7B61FF"/>
<rect x="152.766" y="155.554" width="4.27843" height="75.8645" fill="#7B61FF"/>
<rect x="180.664" y="155.554" width="4.27843" height="75.8645" fill="#7B61FF"/>
<rect x="208.561" y="173.843" width="4.27843" height="57.5757" fill="#7B61FF"/>
<rect x="236.457" y="123.718" width="4.27843" height="107.701" fill="#7B61FF"/>
<rect x="264.354" y="114.912" width="4.27843" height="116.506" fill="#7B61FF"/>
<rect x="292.25" y="184.681" width="4.27843" height="46.738" fill="#7B61FF"/>
<rect x="320.146" y="120.331" width="4.27843" height="111.087" fill="#7B61FF"/>
<rect x="348.043" y="133.879" width="4.27843" height="97.5401" fill="#7B61FF"/>
<rect x="375.939" y="103.397" width="4.27843" height="128.021" fill="#7B61FF"/>
<rect x="403.838" y="93.9141" width="4.27109" height="137.504" fill="#7B61FF"/>
<path d="M90.0664 231.419H415.016" stroke="#655B96" stroke-width="0.863399"/>
<path d="M99.0664 231.419V240.053" stroke="#655B96" stroke-width="0.863399"/>
<path d="M93.2178 251.668V247.968H94.3401V251.668C94.3401 252.042 94.2566 252.362 94.0896 252.628C93.9227 252.891 93.697 253.093 93.4126 253.236C93.1312 253.375 92.8143 253.444 92.4619 253.444C92.0755 253.444 91.7338 253.384 91.437 253.263C91.1402 253.14 90.9068 252.953 90.7368 252.702C90.5698 252.449 90.4864 252.127 90.4864 251.738H91.6086C91.6086 251.929 91.6426 252.087 91.7106 252.211C91.7787 252.331 91.876 252.419 92.0028 252.475C92.1327 252.531 92.2857 252.559 92.4619 252.559C92.6196 252.559 92.7541 252.525 92.8654 252.457C92.9797 252.389 93.0663 252.29 93.1251 252.16C93.1869 252.027 93.2178 251.863 93.2178 251.668ZM98.5192 249.076L96.8961 253.37H95.7646L97.9395 247.968H98.6908L98.5192 249.076ZM100.017 253.37L98.3847 249.067L98.2131 247.968H98.9783L101.149 253.37H100.017ZM99.9475 251.367V252.206H96.859V251.367H99.9475ZM107.28 247.968V253.37H106.158L103.719 249.646V253.37H102.601V247.968H103.719L106.158 251.691V247.968H107.28Z" fill="#949494"/>
<path d="M126.289 231.419V240.053" stroke="#655B96" stroke-width="0.863399"/>
<path d="M119.949 247.968V253.37H118.831V247.968H119.949ZM122.291 250.263V251.153H119.647V250.263H122.291ZM122.592 247.968V248.858H119.647V247.968H122.592ZM128.042 252.484V253.37H124.949V252.484H128.042ZM125.301 247.968V253.37H124.184V247.968H125.301ZM127.643 250.133V251.019H124.949V250.133H127.643ZM128.033 247.968V248.858H124.949V247.968H128.033ZM131.883 251.01H130.389L130.38 250.24H131.711C131.912 250.24 132.082 250.214 132.221 250.161C132.36 250.108 132.465 250.033 132.536 249.934C132.611 249.832 132.648 249.708 132.648 249.563C132.648 249.399 132.612 249.264 132.541 249.159C132.47 249.054 132.363 248.979 132.221 248.932C132.079 248.883 131.903 248.858 131.692 248.858H130.765V253.37H129.647V247.968H131.632C131.966 247.968 132.263 247.998 132.523 248.06C132.785 248.119 133.009 248.209 133.195 248.329C133.38 248.45 133.521 248.604 133.617 248.793C133.716 248.979 133.765 249.198 133.765 249.452C133.765 249.671 133.71 249.875 133.598 250.064C133.49 250.252 133.323 250.405 133.098 250.523C132.872 250.64 132.58 250.705 132.221 250.718L131.883 251.01ZM131.832 253.37H130.074L130.528 252.484H131.832C132.048 252.484 132.226 252.453 132.365 252.392C132.507 252.33 132.612 252.246 132.68 252.141C132.748 252.033 132.782 251.909 132.782 251.77C132.782 251.616 132.751 251.483 132.69 251.371C132.631 251.257 132.535 251.169 132.402 251.107C132.269 251.042 132.096 251.01 131.883 251.01H130.742L130.746 250.24H132.193L132.448 250.541C132.792 250.535 133.07 250.595 133.283 250.722C133.496 250.846 133.653 251.007 133.751 251.204C133.854 251.402 133.905 251.608 133.905 251.821C133.905 252.084 133.858 252.313 133.765 252.508C133.673 252.699 133.538 252.86 133.362 252.99C133.186 253.117 132.969 253.212 132.713 253.277C132.456 253.339 132.162 253.37 131.832 253.37Z" fill="#949494"/>
<path d="M154.512 231.419V240.053" stroke="#655B96" stroke-width="0.863399"/>
<path d="M145.779 247.968H146.743L148.306 251.905L149.864 247.968H150.829L148.686 253.37H147.921L145.779 247.968ZM145.282 247.968H146.228L146.4 251.886V253.37H145.282V247.968ZM150.384 247.968H151.334V253.37H150.217V251.886L150.384 247.968ZM155.541 249.076L153.918 253.37H152.787L154.962 247.968H155.713L155.541 249.076ZM157.039 253.37L155.407 249.067L155.235 247.968H156L158.171 253.37H157.039ZM156.97 251.367V252.206H153.881V251.367H156.97ZM159.618 247.968H161.747C162.078 247.968 162.374 248.003 162.637 248.074C162.9 248.145 163.123 248.25 163.305 248.39C163.491 248.526 163.631 248.696 163.727 248.9C163.826 249.101 163.875 249.334 163.875 249.6C163.875 249.894 163.823 250.146 163.718 250.356C163.613 250.563 163.464 250.735 163.273 250.871C163.081 251.007 162.855 251.116 162.596 251.2L162.238 251.395H160.36L160.351 250.504H161.761C161.983 250.504 162.167 250.47 162.313 250.402C162.458 250.334 162.568 250.24 162.642 250.119C162.716 249.996 162.753 249.853 162.753 249.693C162.753 249.523 162.716 249.376 162.642 249.252C162.571 249.125 162.46 249.028 162.308 248.96C162.16 248.892 161.973 248.858 161.747 248.858H160.741V253.37H159.618V247.968ZM162.892 253.37L161.557 250.977L162.739 250.968L164.098 253.319V253.37H162.892Z" fill="#949494"/>
<path d="M183.234 231.419V240.053" stroke="#655B96" stroke-width="0.863399"/>
<path d="M177.2 249.076L175.577 253.37H174.446L176.621 247.968H177.372L177.2 249.076ZM178.698 253.37L177.066 249.067L176.894 247.968H177.659L179.83 253.37H178.698ZM178.629 251.367V252.206H175.54V251.367H178.629ZM183.517 251.464H182.024V250.574H183.517C183.758 250.574 183.955 250.538 184.106 250.467C184.261 250.396 184.374 250.3 184.445 250.18C184.519 250.056 184.556 249.917 184.556 249.762C184.556 249.601 184.519 249.453 184.445 249.317C184.374 249.181 184.261 249.071 184.106 248.988C183.955 248.901 183.758 248.858 183.517 248.858H182.4V253.37H181.282V247.968H183.517C183.972 247.968 184.36 248.045 184.681 248.199C185.003 248.354 185.247 248.566 185.414 248.835C185.584 249.101 185.669 249.407 185.669 249.753C185.669 250.013 185.621 250.248 185.525 250.458C185.429 250.668 185.289 250.849 185.103 251C184.918 251.149 184.692 251.263 184.426 251.344C184.16 251.424 183.857 251.464 183.517 251.464ZM187.39 247.968H189.519C189.85 247.968 190.146 248.003 190.409 248.074C190.672 248.145 190.895 248.25 191.077 248.39C191.263 248.526 191.403 248.696 191.499 248.9C191.598 249.101 191.647 249.334 191.647 249.6C191.647 249.894 191.595 250.146 191.49 250.356C191.385 250.563 191.236 250.735 191.045 250.871C190.853 251.007 190.627 251.116 190.368 251.2L190.01 251.395H188.132L188.123 250.504H189.533C189.755 250.504 189.939 250.47 190.085 250.402C190.23 250.334 190.34 250.24 190.414 250.119C190.488 249.996 190.525 249.853 190.525 249.693C190.525 249.523 190.488 249.376 190.414 249.252C190.343 249.125 190.232 249.028 190.08 248.96C189.932 248.892 189.745 248.858 189.519 248.858H188.513V253.37H187.39V247.968ZM190.664 253.37L189.329 250.977L190.511 250.968L191.87 253.319V253.37H190.664Z" fill="#949494"/>
<path d="M211.957 231.419V240.053" stroke="#655B96" stroke-width="0.863399"/>
<path d="M203.465 247.968H204.43L205.992 251.905L207.551 247.968H208.515L206.373 253.37H205.608L203.465 247.968ZM202.969 247.968H203.915L204.087 251.886V253.37H202.969V247.968ZM208.07 247.968H209.021V253.37H207.903V251.886L208.07 247.968ZM213.228 249.076L211.605 253.37H210.473L212.648 247.968H213.399L213.228 249.076ZM214.726 253.37L213.093 249.067L212.922 247.968H213.687L215.857 253.37H214.726ZM214.656 251.367V252.206H211.567V251.367H214.656ZM218.701 250.991L220.24 247.968H221.465L219.466 251.571H218.835L218.701 250.991ZM217.708 247.968L219.257 251.019L219.104 251.571H218.483L216.484 247.968H217.708ZM219.517 250.838V253.37H218.399V250.838H219.517Z" fill="#949494"/>
<path d="M240.68 231.419V240.053" stroke="#655B96" stroke-width="0.863399"/>
<path d="M234.873 251.668V247.968H235.995V251.668C235.995 252.042 235.912 252.362 235.745 252.628C235.578 252.891 235.352 253.093 235.068 253.236C234.786 253.375 234.469 253.444 234.117 253.444C233.73 253.444 233.389 253.384 233.092 253.263C232.795 253.14 232.562 252.953 232.392 252.702C232.225 252.449 232.141 252.127 232.141 251.738H233.264C233.264 251.929 233.298 252.087 233.366 252.211C233.434 252.331 233.531 252.419 233.658 252.475C233.788 252.531 233.941 252.559 234.117 252.559C234.275 252.559 234.409 252.525 234.52 252.457C234.635 252.389 234.721 252.29 234.78 252.16C234.842 252.027 234.873 251.863 234.873 251.668ZM241.157 247.968H242.28V251.529C242.28 251.943 242.184 252.294 241.992 252.582C241.8 252.866 241.539 253.081 241.208 253.226C240.878 253.372 240.5 253.444 240.077 253.444C239.647 253.444 239.265 253.372 238.931 253.226C238.601 253.081 238.341 252.866 238.152 252.582C237.964 252.294 237.869 251.943 237.869 251.529V247.968H238.982V251.529C238.982 251.767 239.026 251.963 239.112 252.118C239.202 252.27 239.329 252.381 239.493 252.452C239.656 252.523 239.851 252.559 240.077 252.559C240.303 252.559 240.496 252.523 240.657 252.452C240.817 252.381 240.941 252.27 241.027 252.118C241.114 251.963 241.157 251.767 241.157 251.529V247.968ZM248.852 247.968V253.37H247.729L245.29 249.646V253.37H244.172V247.968H245.29L247.729 251.691V247.968H248.852Z" fill="#949494"/>
<path d="M267.902 231.419V240.053" stroke="#655B96" stroke-width="0.863399"/>
<path d="M262.773 251.668V247.968H263.895V251.668C263.895 252.042 263.811 252.362 263.644 252.628C263.477 252.891 263.252 253.093 262.967 253.236C262.686 253.375 262.369 253.444 262.017 253.444C261.63 253.444 261.289 253.384 260.992 253.263C260.695 253.14 260.462 252.953 260.292 252.702C260.125 252.449 260.041 252.127 260.041 251.738H261.163C261.163 251.929 261.197 252.087 261.265 252.211C261.333 252.331 261.431 252.419 261.558 252.475C261.687 252.531 261.84 252.559 262.017 252.559C262.174 252.559 262.309 252.525 262.42 252.457C262.534 252.389 262.621 252.29 262.68 252.16C262.742 252.027 262.773 251.863 262.773 251.668ZM269.057 247.968H270.179V251.529C270.179 251.943 270.083 252.294 269.892 252.582C269.7 252.866 269.439 253.081 269.108 253.226C268.777 253.372 268.4 253.444 267.977 253.444C267.547 253.444 267.165 253.372 266.831 253.226C266.5 253.081 266.241 252.866 266.052 252.582C265.863 252.294 265.769 251.943 265.769 251.529V247.968H266.882V251.529C266.882 251.767 266.925 251.963 267.012 252.118C267.102 252.27 267.228 252.381 267.392 252.452C267.556 252.523 267.751 252.559 267.977 252.559C268.202 252.559 268.395 252.523 268.556 252.452C268.717 252.381 268.841 252.27 268.927 252.118C269.014 251.963 269.057 251.767 269.057 251.529V247.968ZM275.764 252.484V253.37H272.837V252.484H275.764ZM273.19 247.968V253.37H272.072V247.968H273.19Z" fill="#949494"/>
<path d="M295.625 231.419V240.053" stroke="#655B96" stroke-width="0.863399"/>
<path d="M289.415 249.076L287.792 253.37H286.66L288.835 247.968H289.586L289.415 249.076ZM290.913 253.37L289.28 249.067L289.109 247.968H289.874L292.044 253.37H290.913ZM290.843 251.367V252.206H287.754V251.367H290.843ZM296.631 247.968H297.754V251.529C297.754 251.943 297.658 252.294 297.466 252.582C297.274 252.866 297.013 253.081 296.682 253.226C296.352 253.372 295.974 253.444 295.551 253.444C295.121 253.444 294.739 253.372 294.405 253.226C294.075 253.081 293.815 252.866 293.626 252.582C293.438 252.294 293.343 251.943 293.343 251.529V247.968H294.456V251.529C294.456 251.767 294.5 251.963 294.586 252.118C294.676 252.27 294.803 252.381 294.966 252.452C295.13 252.523 295.325 252.559 295.551 252.559C295.776 252.559 295.97 252.523 296.13 252.452C296.291 252.381 296.415 252.27 296.501 252.118C296.588 251.963 296.631 251.767 296.631 251.529V247.968ZM304.196 250.541V252.693C304.106 252.795 303.97 252.905 303.788 253.022C303.605 253.14 303.367 253.24 303.074 253.324C302.78 253.404 302.42 253.444 301.993 253.444C301.622 253.444 301.283 253.387 300.977 253.273C300.674 253.155 300.412 252.985 300.189 252.763C299.966 252.54 299.795 252.268 299.674 251.946C299.557 251.622 299.498 251.252 299.498 250.838V250.5C299.498 250.085 299.555 249.717 299.67 249.396C299.784 249.071 299.946 248.798 300.157 248.575C300.37 248.352 300.625 248.184 300.922 248.07C301.219 247.952 301.549 247.893 301.914 247.893C302.409 247.893 302.815 247.971 303.134 248.125C303.455 248.277 303.701 248.487 303.871 248.756C304.041 249.025 304.148 249.334 304.191 249.683H303.101C303.07 249.498 303.012 249.339 302.925 249.206C302.839 249.07 302.715 248.965 302.554 248.89C302.396 248.816 302.192 248.779 301.942 248.779C301.732 248.779 301.543 248.816 301.376 248.89C301.212 248.961 301.073 249.07 300.959 249.215C300.848 249.36 300.763 249.54 300.704 249.753C300.648 249.963 300.62 250.209 300.62 250.49V250.838C300.62 251.119 300.651 251.368 300.713 251.585C300.778 251.798 300.871 251.977 300.991 252.123C301.115 252.268 301.265 252.378 301.441 252.452C301.62 252.523 301.824 252.559 302.053 252.559C302.359 252.559 302.59 252.528 302.744 252.466C302.899 252.401 303.009 252.341 303.074 252.285V251.344H301.905V250.541H304.196Z" fill="#949494"/>
<path d="M323.348 231.419V240.053" stroke="#655B96" stroke-width="0.863399"/>
<path d="M318.644 251.956C318.644 251.854 318.626 251.762 318.589 251.682C318.555 251.602 318.495 251.529 318.408 251.464C318.325 251.396 318.209 251.333 318.06 251.274C317.915 251.215 317.731 251.16 317.508 251.107C317.187 251.03 316.902 250.943 316.655 250.847C316.411 250.748 316.205 250.634 316.038 250.504C315.871 250.374 315.745 250.221 315.658 250.045C315.575 249.869 315.533 249.663 315.533 249.428C315.533 249.203 315.582 248.997 315.681 248.812C315.78 248.623 315.921 248.461 316.103 248.325C316.286 248.186 316.502 248.079 316.752 248.005C317.003 247.93 317.278 247.893 317.578 247.893C318.014 247.893 318.393 247.964 318.714 248.107C319.036 248.249 319.284 248.445 319.461 248.696C319.64 248.943 319.73 249.23 319.73 249.558H318.612C318.612 249.404 318.572 249.264 318.491 249.141C318.414 249.017 318.3 248.918 318.148 248.844C317.997 248.77 317.807 248.733 317.578 248.733C317.358 248.733 317.178 248.765 317.035 248.83C316.893 248.892 316.786 248.974 316.715 249.076C316.647 249.175 316.613 249.283 316.613 249.401C316.613 249.493 316.633 249.577 316.674 249.651C316.717 249.725 316.785 249.793 316.878 249.855C316.97 249.917 317.091 249.976 317.239 250.031C317.388 250.087 317.569 250.141 317.782 250.193C318.1 250.268 318.382 250.356 318.626 250.458C318.87 250.56 319.074 250.68 319.238 250.82C319.402 250.956 319.524 251.116 319.604 251.302C319.688 251.484 319.73 251.693 319.73 251.928C319.73 252.166 319.68 252.379 319.581 252.568C319.482 252.753 319.34 252.911 319.155 253.041C318.972 253.171 318.753 253.271 318.496 253.342C318.239 253.41 317.954 253.444 317.638 253.444C317.36 253.444 317.083 253.41 316.808 253.342C316.536 253.274 316.29 253.169 316.071 253.027C315.851 252.885 315.675 252.704 315.542 252.484C315.412 252.262 315.347 252.001 315.347 251.701H316.47C316.47 251.861 316.497 252.001 316.553 252.118C316.612 252.232 316.694 252.327 316.799 252.401C316.907 252.472 317.035 252.525 317.184 252.559C317.332 252.593 317.496 252.61 317.675 252.61C317.901 252.61 318.085 252.58 318.227 252.521C318.372 252.46 318.478 252.379 318.542 252.28C318.61 252.181 318.644 252.073 318.644 251.956ZM325.332 252.484V253.37H322.239V252.484H325.332ZM322.592 247.968V253.37H321.474V247.968H322.592ZM324.934 250.133V251.019H322.239V250.133H324.934ZM325.323 247.968V248.858H322.239V247.968H325.323ZM329.173 251.464H327.68V250.574H329.173C329.414 250.574 329.611 250.538 329.762 250.467C329.917 250.396 330.029 250.3 330.101 250.18C330.175 250.056 330.212 249.917 330.212 249.762C330.212 249.601 330.175 249.453 330.101 249.317C330.029 249.181 329.917 249.071 329.762 248.988C329.611 248.901 329.414 248.858 329.173 248.858H328.055V253.37H326.938V247.968H329.173C329.628 247.968 330.016 248.045 330.337 248.199C330.659 248.354 330.903 248.566 331.07 248.835C331.24 249.101 331.325 249.407 331.325 249.753C331.325 250.013 331.277 250.248 331.181 250.458C331.085 250.668 330.945 250.849 330.759 251C330.574 251.149 330.348 251.263 330.082 251.344C329.816 251.424 329.513 251.464 329.173 251.464Z" fill="#949494"/>
<path d="M350.57 231.419V240.053" stroke="#655B96" stroke-width="0.863399"/>
<path d="M346.957 250.541V250.801C346.957 251.212 346.898 251.58 346.781 251.905C346.663 252.229 346.496 252.508 346.28 252.739C346.067 252.968 345.81 253.143 345.51 253.263C345.21 253.384 344.879 253.444 344.518 253.444C344.156 253.444 343.825 253.384 343.525 253.263C343.225 253.143 342.966 252.968 342.746 252.739C342.527 252.508 342.357 252.229 342.236 251.905C342.119 251.58 342.06 251.212 342.06 250.801V250.541C342.06 250.13 342.119 249.762 342.236 249.438C342.357 249.113 342.525 248.835 342.742 248.603C342.958 248.371 343.216 248.195 343.516 248.074C343.816 247.954 344.147 247.893 344.508 247.893C344.873 247.893 345.204 247.954 345.501 248.074C345.801 248.195 346.059 248.371 346.275 248.603C346.495 248.835 346.663 249.113 346.781 249.438C346.898 249.762 346.957 250.13 346.957 250.541ZM345.839 250.801V250.532C345.839 250.251 345.81 250.002 345.751 249.785C345.692 249.569 345.604 249.387 345.487 249.238C345.372 249.09 345.233 248.977 345.07 248.9C344.906 248.822 344.719 248.784 344.508 248.784C344.301 248.784 344.114 248.822 343.947 248.9C343.783 248.977 343.644 249.09 343.53 249.238C343.419 249.387 343.332 249.569 343.27 249.785C343.211 250.002 343.182 250.251 343.182 250.532V250.801C343.182 251.079 343.211 251.328 343.27 251.548C343.332 251.764 343.42 251.948 343.535 252.099C343.652 252.248 343.793 252.362 343.957 252.443C344.123 252.52 344.311 252.559 344.518 252.559C344.728 252.559 344.913 252.52 345.074 252.443C345.238 252.362 345.377 252.248 345.492 252.099C345.606 251.948 345.692 251.764 345.751 251.548C345.81 251.328 345.839 251.079 345.839 250.801ZM352.124 251.571H353.246C353.218 251.939 353.11 252.263 352.921 252.545C352.736 252.826 352.476 253.047 352.142 253.208C351.808 253.365 351.405 253.444 350.932 253.444C350.564 253.444 350.233 253.384 349.94 253.263C349.649 253.143 349.4 252.971 349.193 252.749C348.989 252.523 348.831 252.251 348.72 251.933C348.612 251.611 348.558 251.251 348.558 250.852V250.49C348.558 250.091 348.613 249.733 348.725 249.414C348.836 249.093 348.997 248.819 349.207 248.594C349.417 248.365 349.668 248.192 349.958 248.074C350.252 247.954 350.581 247.893 350.946 247.893C351.425 247.893 351.829 247.975 352.156 248.139C352.484 248.3 352.739 248.524 352.921 248.812C353.104 249.099 353.214 249.428 353.251 249.799H352.133C352.115 249.598 352.064 249.422 351.98 249.271C351.897 249.116 351.771 248.996 351.604 248.909C351.438 248.822 351.218 248.779 350.946 248.779C350.736 248.779 350.552 248.816 350.394 248.89C350.236 248.961 350.103 249.07 349.995 249.215C349.89 249.36 349.81 249.54 349.754 249.753C349.702 249.963 349.675 250.207 349.675 250.486V250.852C349.675 251.124 349.698 251.367 349.745 251.58C349.794 251.79 349.87 251.968 349.972 252.113C350.074 252.259 350.204 252.37 350.362 252.447C350.522 252.521 350.713 252.559 350.932 252.559C351.195 252.559 351.41 252.523 351.577 252.452C351.744 252.378 351.872 252.266 351.962 252.118C352.051 251.97 352.105 251.787 352.124 251.571ZM357.462 247.968V253.37H356.345V247.968H357.462ZM359.262 247.968V248.858H354.569V247.968H359.262Z" fill="#949494"/>
<path d="M378.793 231.419V240.053" stroke="#655B96" stroke-width="0.863399"/>
<path d="M374.836 247.968V253.37H373.714L371.275 249.646V253.37H370.157V247.968H371.275L373.714 251.691V247.968H374.836ZM381.501 250.541V250.801C381.501 251.212 381.442 251.58 381.325 251.905C381.208 252.229 381.041 252.508 380.824 252.739C380.611 252.968 380.354 253.143 380.054 253.263C379.754 253.384 379.424 253.444 379.062 253.444C378.7 253.444 378.369 253.384 378.07 253.263C377.77 253.143 377.51 252.968 377.29 252.739C377.071 252.508 376.901 252.229 376.78 251.905C376.663 251.58 376.604 251.212 376.604 250.801V250.541C376.604 250.13 376.663 249.762 376.78 249.438C376.901 249.113 377.069 248.835 377.286 248.603C377.502 248.371 377.76 248.195 378.06 248.074C378.36 247.954 378.691 247.893 379.053 247.893C379.417 247.893 379.748 247.954 380.045 248.074C380.345 248.195 380.603 248.371 380.82 248.603C381.039 248.835 381.208 249.113 381.325 249.438C381.442 249.762 381.501 250.13 381.501 250.541ZM380.384 250.801V250.532C380.384 250.251 380.354 250.002 380.295 249.785C380.237 249.569 380.149 249.387 380.031 249.238C379.917 249.09 379.778 248.977 379.614 248.9C379.45 248.822 379.263 248.784 379.053 248.784C378.846 248.784 378.658 248.822 378.492 248.9C378.328 248.977 378.189 249.09 378.074 249.238C377.963 249.387 377.876 249.569 377.814 249.785C377.756 250.002 377.726 250.251 377.726 250.532V250.801C377.726 251.079 377.756 251.328 377.814 251.548C377.876 251.764 377.964 251.948 378.079 252.099C378.196 252.248 378.337 252.362 378.501 252.443C378.668 252.52 378.855 252.559 379.062 252.559C379.272 252.559 379.458 252.52 379.618 252.443C379.782 252.362 379.921 252.248 380.036 252.099C380.15 251.948 380.237 251.764 380.295 251.548C380.354 251.328 380.384 251.079 380.384 250.801ZM385.393 251.97L386.752 247.968H387.934L385.894 253.37H385.064L385.393 251.97ZM383.886 247.968L385.231 251.96L385.569 253.37H384.734L382.699 247.968H383.886Z" fill="#949494"/>
<path d="M406.516 231.419V240.053" stroke="#655B96" stroke-width="0.863399"/>
<path d="M400.319 253.37H399.058L399.067 252.484H400.319C400.675 252.484 400.965 252.419 401.191 252.29C401.417 252.157 401.582 251.965 401.687 251.715C401.795 251.464 401.85 251.16 401.85 250.801V250.532C401.85 250.263 401.819 250.025 401.757 249.818C401.698 249.608 401.607 249.431 401.483 249.289C401.36 249.147 401.202 249.04 401.01 248.969C400.822 248.895 400.597 248.858 400.338 248.858H399.035V247.968H400.338C400.724 247.968 401.078 248.029 401.4 248.153C401.724 248.277 402.003 248.453 402.234 248.682C402.469 248.907 402.65 249.178 402.777 249.493C402.907 249.809 402.972 250.158 402.972 250.541V250.801C402.972 251.311 402.859 251.759 402.633 252.146C402.411 252.532 402.1 252.834 401.701 253.05C401.305 253.263 400.845 253.37 400.319 253.37ZM399.689 247.968V253.37H398.571V247.968H399.689ZM408.607 252.484V253.37H405.514V252.484H408.607ZM405.866 247.968V253.37H404.749V247.968H405.866ZM408.208 250.133V251.019H405.514V250.133H408.208ZM408.598 247.968V248.858H405.514V247.968H408.598ZM413.598 251.571H414.72C414.692 251.939 414.584 252.263 414.395 252.545C414.21 252.826 413.95 253.047 413.616 253.208C413.282 253.365 412.879 253.444 412.406 253.444C412.038 253.444 411.707 253.384 411.414 253.263C411.123 253.143 410.874 252.971 410.667 252.749C410.463 252.523 410.305 252.251 410.194 251.933C410.086 251.611 410.032 251.251 410.032 250.852V250.49C410.032 250.091 410.087 249.733 410.199 249.414C410.31 249.093 410.471 248.819 410.681 248.594C410.891 248.365 411.142 248.192 411.432 248.074C411.726 247.954 412.055 247.893 412.42 247.893C412.899 247.893 413.303 247.975 413.63 248.139C413.958 248.3 414.213 248.524 414.395 248.812C414.578 249.099 414.688 249.428 414.725 249.799H413.607C413.589 249.598 413.537 249.422 413.454 249.271C413.371 249.116 413.245 248.996 413.078 248.909C412.911 248.822 412.692 248.779 412.42 248.779C412.21 248.779 412.026 248.816 411.868 248.89C411.71 248.961 411.577 249.07 411.469 249.215C411.364 249.36 411.284 249.54 411.228 249.753C411.176 249.963 411.149 250.207 411.149 250.486V250.852C411.149 251.124 411.172 251.367 411.219 251.58C411.268 251.79 411.344 251.968 411.446 252.113C411.548 252.259 411.678 252.37 411.836 252.447C411.996 252.521 412.186 252.559 412.406 252.559C412.669 252.559 412.884 252.523 413.051 252.452C413.218 252.378 413.346 252.266 413.435 252.118C413.525 251.97 413.579 251.787 413.598 251.571Z" fill="#949494"/>
</g>
<defs>
<filter id="filter0_d_711_7786" x="0.585527" y="0.0274062" width="466.235" height="310.824" filterUnits="userSpaceOnUse" color-interpolation-filters="sRGB">
<feFlood flood-opacity="0" result="BackgroundImageFix"/>
<feColorMatrix in="SourceAlpha" type="matrix" values="0 0 0 0 0 0 0 0 0 0 0 0 0 0 0 0 0 0 127 0" result="hardAlpha"/>
<feOffset dy="3.4536"/>
<feGaussianBlur stdDeviation="8.63399"/>
<feComposite in2="hardAlpha" operator="out"/>
<feColorMatrix type="matrix" values="0 0 0 0 0.35498 0 0 0 0 0.279635 0 0 0 0 0.7375 0 0 0 0.3 0"/>
<feBlend mode="normal" in2="BackgroundImageFix" result="effect1_dropShadow_711_7786"/>
<feBlend mode="normal" in="SourceGraphic" in2="effect1_dropShadow_711_7786" result="shape"/>
</filter>
</defs>
</svg>
