<svg width="172" height="170" viewBox="0 0 172 170" fill="none" xmlns="http://www.w3.org/2000/svg">
<ellipse cx="85.958" cy="85.0968" rx="85.958" ry="84.3134" fill="#CC9B2B"/>
<path d="M91.7077 99.7771C89.485 103.254 84.4059 103.254 82.1831 99.7771L65.849 74.2247C63.444 70.4624 66.146 65.5282 70.6113 65.5282L103.28 65.5282C107.745 65.5282 110.447 70.4624 108.042 74.2247L91.7077 99.7771Z" fill="white"/>
<path d="M42.1716 130.557L42.9941 129.712L45.9665 132.588L45.1439 133.434L42.1716 130.557Z" fill="white"/>
<path d="M30.5634 123.3L38.1112 117.816L38.8741 118.861L36.1349 126.713L36.186 126.783L41.7215 122.761L42.5515 123.898L35.0038 129.382L34.2355 128.329L36.9794 120.469L36.9283 120.399L31.3854 124.426L30.5634 123.3Z" fill="white"/>
<path d="M27.8519 109.709C28.7482 109.275 29.5986 109.065 30.4031 109.079C31.205 109.096 31.9184 109.305 32.5435 109.707C33.1646 110.108 33.6514 110.67 34.004 111.394C34.3579 112.12 34.5017 112.852 34.4355 113.589C34.3652 114.325 34.0874 115.014 33.6022 115.654C33.117 116.294 32.4276 116.831 31.5341 117.264C30.6378 117.699 29.7887 117.908 28.9869 117.892C28.1824 117.877 27.4696 117.669 26.8485 117.269C26.2234 116.866 25.7339 116.302 25.38 115.576C25.0274 114.853 24.8863 114.123 24.9566 113.387C25.0228 112.649 25.2985 111.96 25.7837 111.32C26.2662 110.681 26.9556 110.144 27.8519 109.709ZM28.4626 110.962C27.7795 111.294 27.2581 111.683 26.8986 112.131C26.5351 112.577 26.3262 113.05 26.272 113.549C26.2138 114.046 26.3017 114.535 26.5359 115.015C26.7714 115.499 27.1032 115.871 27.5313 116.133C27.9567 116.395 28.4583 116.523 29.0361 116.517C29.6098 116.508 30.2382 116.339 30.9214 116.007C31.6045 115.676 32.1279 115.287 32.4914 114.841C32.8509 114.393 33.0598 113.921 33.1181 113.423C33.1736 112.927 33.0836 112.437 32.8481 111.954C32.6139 111.474 32.2841 111.102 31.8587 110.839C31.4293 110.575 30.9277 110.447 30.354 110.455C29.7762 110.462 29.1457 110.631 28.4626 110.962Z" fill="white"/>
<path d="M19.9832 99.3857L19.6547 98.0122L25.624 96.5912C26.2592 96.44 26.8577 96.4552 27.4195 96.6368C27.9783 96.819 28.4627 97.147 28.8727 97.6207C29.2797 98.0951 29.5702 98.6956 29.744 99.4222C29.9171 100.146 29.9295 100.811 29.781 101.418C29.6297 102.025 29.346 102.536 28.9298 102.95C28.5108 103.365 27.9837 103.648 27.3485 103.799L21.3791 105.221L21.0516 103.852L26.9102 102.457C27.3208 102.359 27.6641 102.182 27.9401 101.926C28.2154 101.667 28.4047 101.349 28.508 100.971C28.6084 100.595 28.6038 100.177 28.4943 99.7197C28.384 99.2589 28.1989 98.8831 27.9388 98.5923C27.6751 98.2991 27.3625 98.102 27.0011 98.0007C26.6389 97.8965 26.2525 97.8933 25.8418 97.991L19.9832 99.3857Z" fill="white"/>
<path d="M28.1481 91.0021L18.8222 91.2609L18.7295 87.9367C18.7094 87.2142 18.8171 86.6112 19.0528 86.1276C19.2883 85.6411 19.6229 85.2733 20.0565 85.0243C20.4871 84.7754 20.9892 84.643 21.563 84.627C22.1337 84.6112 22.6395 84.7172 23.0803 84.945C23.518 85.1698 23.8634 85.5187 24.1166 85.9917C24.3697 86.4617 24.5063 87.0579 24.5265 87.7804L24.5967 90.2986L23.3854 90.3322L23.3187 87.9415C23.306 87.4862 23.2305 87.1176 23.092 86.8359C22.9534 86.5511 22.7578 86.3454 22.5051 86.2187C22.2525 86.092 21.9516 86.0335 21.6025 86.0432C21.2503 86.053 20.9471 86.1298 20.6929 86.2735C20.4386 86.4143 20.2471 86.6307 20.1185 86.9229C19.9869 87.2122 19.9275 87.589 19.9404 88.0535L19.9897 89.8203L28.1089 89.5951L28.1481 91.0021ZM23.8122 86.5151L27.9555 84.0942L28.0002 85.6971L23.8556 88.0725L23.8122 86.5151Z" fill="white"/>
<path d="M28.6229 78.5784C28.5887 78.8251 28.472 79.0251 28.273 79.1786C28.0709 79.3316 27.845 79.3909 27.5953 79.3564C27.3486 79.3224 27.1503 79.2046 27.0004 79.0031C26.8475 78.8011 26.7881 78.5768 26.8223 78.3301C26.8565 78.0834 26.9746 77.8836 27.1767 77.7306C27.3758 77.5772 27.5987 77.5175 27.8454 77.5515C28.0108 77.5743 28.1569 77.6374 28.2836 77.7407C28.4078 77.8406 28.5011 77.9638 28.5635 78.1104C28.626 78.257 28.6458 78.413 28.6229 78.5784Z" fill="white"/>
<path d="M21.7839 69.9951L20.6313 69.6212L22.8685 62.7562L24.0211 63.1301L23.1192 65.8978L30.8409 68.4023L30.4062 69.7363L22.6844 67.2318L21.7839 69.9951Z" fill="white"/>
<path d="M35.9508 57.3292C35.582 57.9473 35.1055 58.3806 34.5214 58.6289C33.9372 58.8773 33.2661 58.9355 32.5082 58.8034C31.7502 58.6713 30.9341 58.3482 30.0597 57.8341C29.1879 57.3215 28.5118 56.7672 28.0315 56.1713C27.5527 55.5727 27.2807 54.9583 27.2156 54.3282C27.1521 53.6955 27.3018 53.0719 27.6649 52.4574C28.0279 51.843 28.5029 51.4123 29.0896 51.1655C29.6738 50.9171 30.3436 50.8582 31.0989 50.9887C31.8532 51.1151 32.6662 51.4346 33.538 51.9472C34.415 52.4629 35.095 53.0194 35.578 53.6169C36.0583 54.2129 36.3323 54.8267 36.4 55.4584C36.4651 56.0885 36.3154 56.7121 35.9508 57.3292ZM34.9023 56.7127C35.2236 56.1688 35.2089 55.5877 34.8582 54.9693C34.5091 54.3484 33.8319 53.7423 32.8266 53.1512C32.159 52.7587 31.5531 52.4976 31.0089 52.3679C30.4636 52.234 29.9946 52.2278 29.6019 52.3492C29.2081 52.4664 28.9054 52.7042 28.6938 53.0624C28.374 53.6036 28.3899 54.1855 28.7417 54.808C29.0935 55.4305 29.7699 56.0379 30.7711 56.63C31.4413 57.0241 32.049 57.288 32.5943 57.4219C33.1385 57.5516 33.6061 57.5571 33.9973 57.4383C34.3859 57.318 34.6875 57.0761 34.9023 56.7127Z" fill="white"/>
<path d="M42.9853 47.4441L40.935 49.6619L34.069 43.3455L36.1842 41.0575C36.8047 40.3863 37.4751 39.9363 38.1953 39.7075C38.9133 39.4767 39.6467 39.4684 40.3957 39.6829C41.1444 39.893 41.8753 40.326 42.5882 40.9819C43.3034 41.6398 43.7975 42.3357 44.0703 43.0695C44.3453 43.8011 44.3945 44.5397 44.2181 45.2853C44.0395 46.0288 43.6285 46.7484 42.9853 47.4441ZM40.9854 47.7955L42.0275 46.6683C42.51 46.1465 42.8126 45.6223 42.9355 45.0957C43.0561 44.567 43.008 44.0441 42.7913 43.527C42.5723 43.0078 42.1913 42.4984 41.6481 41.9988C41.1095 41.5032 40.5731 41.1686 40.0388 40.9949C39.5067 40.8189 38.9877 40.8099 38.4819 40.9677C37.9762 41.1256 37.4924 41.4543 37.0306 41.9538L35.9297 43.1446L40.9854 47.7955Z" fill="white"/>
<path d="M50.427 40.5643L49.2408 41.4728L46.2159 32.0382L47.507 31.0493L55.8628 36.4012L54.6765 37.3097L47.9258 32.8631L47.8679 32.9074L50.427 40.5643ZM48.3976 37.5168L52.2457 34.5696L52.9681 35.5082L49.12 38.4553L48.3976 37.5168Z" fill="white"/>
<path d="M50.8813 28.7229L52.3062 27.9975L56.4098 30.6674L56.4992 30.6219L56.7393 25.7405L58.1642 25.0151L57.7291 31.5957L59.3973 34.8563L58.147 35.4929L56.4788 32.2323L50.8813 28.7229Z" fill="white"/>
<path d="M71.0285 25.7065L71.3118 26.8519L67.2953 27.8403L67.012 26.6949L71.0285 25.7065Z" fill="white"/>
<path d="M88.4469 28.334L89.5477 19.0696L95.2931 19.749L95.1501 20.9522L90.8026 20.4382L90.4672 23.2609L94.403 23.7263L94.2606 24.925L90.3248 24.4597L89.8448 28.4993L88.4469 28.334Z" fill="white"/>
<path d="M101.935 30.5488L105.123 21.7812L106.447 22.2602L103.672 29.8891L107.647 31.3277L107.233 32.4664L101.935 30.5488Z" fill="white"/>
<path d="M122.543 35.1315C121.935 35.9209 121.268 36.4888 120.542 36.8351C119.817 37.1791 119.085 37.311 118.346 37.2307C117.611 37.1498 116.924 36.8647 116.285 36.3754C115.644 35.8842 115.188 35.294 114.917 34.6048C114.651 33.9151 114.592 33.1755 114.74 32.3859C114.888 31.5963 115.264 30.8081 115.87 30.0211C116.478 29.2317 117.144 28.665 117.868 28.3211C118.595 27.9747 119.325 27.8419 120.06 27.9228C120.8 28.003 121.49 28.2888 122.131 28.78C122.77 29.2693 123.223 29.8588 123.489 30.5486C123.759 31.2378 123.821 31.9771 123.673 32.7667C123.527 33.5538 123.15 34.3421 122.543 35.1315ZM121.436 34.2839C121.899 33.6822 122.191 33.1009 122.313 32.5397C122.439 31.9781 122.414 31.4621 122.24 30.9918C122.069 30.5209 121.772 30.123 121.348 29.798C120.921 29.4711 120.457 29.2865 119.957 29.244C119.459 29.1991 118.953 29.3088 118.439 29.5732C117.93 29.837 117.443 30.2698 116.98 30.8714C116.517 31.4731 116.223 32.0548 116.097 32.6164C115.976 33.1775 116 33.6935 116.17 34.1644C116.343 34.6329 116.642 35.0305 117.069 35.3574C117.493 35.6824 117.954 35.8673 118.452 35.9122C118.955 35.9565 119.461 35.8468 119.971 35.583C120.484 35.3186 120.973 34.8856 121.436 34.2839Z" fill="white"/>
<path d="M135.003 39.2044L135.955 40.247L131.415 44.3747C130.932 44.8139 130.4 45.0898 129.82 45.2025C129.242 45.3131 128.659 45.2603 128.071 45.0441C127.485 44.8258 126.94 44.4409 126.436 43.8893C125.934 43.34 125.602 42.7642 125.438 42.1619C125.277 41.5575 125.278 40.9735 125.442 40.41C125.608 39.8444 125.932 39.342 126.416 38.9028L130.956 34.7751L131.905 35.8143L127.449 39.8654C127.137 40.1494 126.922 40.47 126.804 40.8274C126.688 41.1871 126.677 41.5569 126.769 41.9369C126.863 42.3149 127.069 42.6777 127.387 43.0252C127.706 43.375 128.05 43.6142 128.419 43.743C128.792 43.8719 129.161 43.8933 129.526 43.8072C129.894 43.7233 130.234 43.5394 130.546 43.2555L135.003 39.2044Z" fill="white"/>
<path d="M133.677 50.5791L141.774 45.9456L143.432 48.8284C143.792 49.455 143.983 50.0368 144.005 50.5738C144.028 51.1135 143.907 51.5953 143.643 52.0194C143.382 52.4419 143.002 52.7957 142.504 53.0808C142.008 53.3644 141.512 53.51 141.016 53.5177C140.523 53.5265 140.053 53.3825 139.606 53.0857C139.16 52.7915 138.757 52.3312 138.397 51.7046L137.141 49.5207L138.192 48.9189L139.385 50.9922C139.612 51.3871 139.853 51.6759 140.109 51.8585C140.366 52.0437 140.636 52.1324 140.919 52.1246C141.201 52.1167 141.494 52.0261 141.797 51.8526C142.103 51.6777 142.334 51.4669 142.49 51.2202C142.647 50.9761 142.714 50.6951 142.688 50.3772C142.667 50.0603 142.541 49.7005 142.309 49.2977L141.428 47.7654L134.378 51.7994L133.677 50.5791ZM139.626 52.4811L137.122 56.5698L136.322 55.1798L138.849 51.1305L139.626 52.4811Z" fill="white"/>
<path d="M149.089 60.8473L140.214 63.7254L139.778 62.3871L148.652 59.509L149.089 60.8473Z" fill="white"/>
<path d="M150.386 74.7432C150.81 74.6486 151.12 74.4134 151.318 74.0377C151.518 73.6617 151.59 73.208 151.532 72.6767C151.491 72.2962 151.395 71.9737 151.244 71.709C151.096 71.4439 150.909 71.2457 150.684 71.1142C150.463 70.9854 150.22 70.9352 149.958 70.9636C149.737 70.9874 149.553 71.0593 149.404 71.1792C149.255 71.3022 149.136 71.4541 149.045 71.6349C148.958 71.8184 148.889 72.0122 148.838 72.2163C148.79 72.42 148.753 72.6149 148.728 72.8009L148.59 73.7321C148.55 74.0359 148.485 74.3499 148.395 74.6742C148.305 74.9986 148.173 75.3045 148 75.5921C147.826 75.8796 147.599 76.1211 147.318 76.3164C147.037 76.5147 146.688 76.6364 146.271 76.6814C145.746 76.7382 145.265 76.6527 144.828 76.425C144.391 76.2004 144.027 75.8441 143.735 75.3563C143.445 74.8715 143.26 74.2668 143.181 73.5422C143.106 72.8477 143.151 72.235 143.316 71.704C143.481 71.1729 143.751 70.7422 144.124 70.4116C144.501 70.0808 144.967 69.8701 145.522 69.7795L145.674 71.1835C145.342 71.2468 145.075 71.3857 144.872 71.6001C144.672 71.8171 144.535 72.0809 144.458 72.3916C144.385 72.7049 144.369 73.0412 144.408 73.4005C144.45 73.796 144.551 74.1411 144.708 74.4357C144.868 74.7329 145.07 74.9586 145.313 75.1126C145.559 75.2662 145.832 75.3268 146.134 75.2942C146.409 75.2645 146.626 75.1617 146.784 74.9858C146.942 74.8129 147.064 74.5874 147.15 74.3093C147.236 74.0342 147.305 73.7259 147.357 73.3843L147.537 72.2561C147.658 71.4915 147.892 70.8706 148.237 70.3934C148.583 69.9193 149.079 69.6473 149.725 69.5775C150.259 69.5198 150.741 69.6143 151.171 69.8611C151.602 70.1079 151.954 70.4669 152.228 70.9383C152.505 71.4093 152.677 71.9558 152.745 72.5777C152.813 73.2057 152.763 73.7717 152.595 74.2755C152.427 74.7824 152.165 75.1956 151.808 75.5151C151.455 75.8343 151.03 76.0269 150.533 76.0928L150.386 74.7432Z" fill="white"/>
<path d="M143.749 82.7536L153.016 83.8334L152.853 85.2315L148.825 84.7623L148.284 89.3818L152.312 89.851L152.147 91.2536L142.881 90.1738L143.045 88.7712L147.085 89.2421L147.626 84.6225L143.586 84.1517L143.749 82.7536Z" fill="white"/>
<path d="M147.1 107.195L145.99 106.795L147.397 102.906L148.508 103.305L147.1 107.195Z" fill="white"/>
<path d="M149.566 115.882L150.672 116.377L147.095 122.649L145.989 122.153L147.431 119.625L140.025 116.302L140.72 115.083L148.126 118.406L149.566 115.882Z" fill="white"/>
<path d="M134.415 128.916C133.604 128.337 133.036 127.71 132.709 127.035C132.384 126.361 132.289 125.687 132.421 125.012C132.554 124.341 132.904 123.719 133.47 123.147C134.039 122.573 134.702 122.172 135.46 121.944C136.219 121.719 137.018 121.685 137.858 121.843C138.697 122 139.521 122.368 140.33 122.945C141.14 123.524 141.708 124.15 142.032 124.823C142.359 125.499 142.456 126.172 142.323 126.843C142.19 127.518 141.839 128.143 141.271 128.717C140.705 129.288 140.042 129.687 139.284 129.911C138.526 130.14 137.727 130.175 136.887 130.018C136.05 129.862 135.226 129.495 134.415 128.916ZM135.396 127.926C136.014 128.367 136.621 128.651 137.216 128.778C137.813 128.909 138.369 128.901 138.886 128.754C139.403 128.611 139.849 128.35 140.225 127.97C140.604 127.588 140.831 127.169 140.909 126.712C140.988 126.257 140.902 125.79 140.65 125.312C140.398 124.837 139.963 124.379 139.345 123.938C138.728 123.497 138.121 123.211 137.524 123.08C136.929 122.953 136.372 122.961 135.855 123.104C135.341 123.249 134.894 123.512 134.516 123.894C134.14 124.274 133.912 124.691 133.832 125.146C133.753 125.605 133.839 126.072 134.091 126.546C134.343 127.025 134.778 127.485 135.396 127.926Z" fill="white"/>
<path d="M134.679 136.757L133.158 137.534L126.04 133.175L125.943 133.224L127.769 140.284L126.248 141.061L120.495 133.716L121.688 133.107L125.851 138.422L125.928 138.383L124.224 131.828L125.214 131.322L131.822 135.379L131.899 135.34L127.733 130.021L128.926 129.412L134.679 136.757Z" fill="white"/>
<path d="M121.057 145.285L119.427 145.797L113.22 140.268L113.116 140.301L113.656 147.611L112.026 148.123L107.686 139.865L108.964 139.463L112.105 145.439L112.187 145.413L111.678 138.624L112.738 138.291L118.499 143.434L118.582 143.408L115.439 137.428L116.717 137.026L121.057 145.285Z" fill="white"/>
<path d="M96.8606 145.907C96.62 144.94 96.5942 144.089 96.7833 143.353C96.973 142.62 97.3367 142.032 97.8744 141.587C98.4098 141.146 99.0774 140.881 99.8772 140.792C100.68 140.702 101.443 140.808 102.166 141.109C102.887 141.414 103.516 141.893 104.051 142.548C104.586 143.204 104.974 144.013 105.214 144.977C105.454 145.943 105.48 146.793 105.29 147.526C105.101 148.262 104.739 148.85 104.203 149.292C103.666 149.736 102.996 150.003 102.193 150.092C101.393 150.181 100.632 150.074 99.9114 149.769C99.1882 149.468 98.5589 148.99 98.0235 148.335C97.4889 147.683 97.1013 146.874 96.8606 145.907ZM98.246 145.753C98.4295 146.489 98.7061 147.096 99.0761 147.573C99.4437 148.053 99.8711 148.399 100.358 148.611C100.843 148.827 101.351 148.905 101.882 148.846C102.417 148.786 102.861 148.602 103.215 148.293C103.57 147.987 103.807 147.567 103.925 147.033C104.041 146.502 104.007 145.868 103.824 145.131C103.64 144.395 103.365 143.786 102.997 143.306C102.627 142.83 102.2 142.483 101.715 142.268C101.231 142.055 100.722 141.979 100.188 142.038C99.6563 142.097 99.2132 142.28 98.8583 142.586C98.501 142.895 98.2644 143.316 98.1483 143.846C98.0301 144.38 98.0626 145.016 98.246 145.753Z" fill="white"/>
<path d="M91.9296 142.506L91.9497 151.835L88.6309 151.624C87.9096 151.578 87.3107 151.416 86.8344 151.136C86.355 150.857 85.9966 150.489 85.7592 150.034C85.5219 149.582 85.4026 149.069 85.4014 148.495C85.4001 147.924 85.5188 147.429 85.7573 147.01C85.9927 146.593 86.3497 146.281 86.828 146.071C87.3033 145.861 87.9017 145.78 88.623 145.825L91.1371 145.985L91.1397 147.197L88.7529 147.045C88.2983 147.016 87.9287 147.058 87.644 147.171C87.3564 147.283 87.1462 147.459 87.0133 147.7C86.8805 147.94 86.8145 148.235 86.8152 148.585C86.816 148.937 86.8848 149.246 87.0218 149.513C87.1557 149.78 87.3668 149.991 87.655 150.146C87.9402 150.303 88.3146 150.397 88.7784 150.427L90.5423 150.539L90.5248 142.416L91.9296 142.506ZM87.3424 146.423L85.033 142.067L86.6333 142.169L88.8972 146.522L87.3424 146.423Z" fill="white"/>
<path d="M81.3613 142.204L79.0759 151.25L75.8412 150.478C75.1381 150.311 74.5851 150.051 74.1823 149.699C73.7766 149.346 73.5124 148.929 73.3899 148.447C73.2666 147.968 73.2752 147.45 73.4158 146.894C73.5557 146.34 73.7955 145.881 74.1353 145.515C74.4713 145.152 74.9021 144.91 75.4276 144.788C75.9502 144.666 76.563 144.689 77.2661 144.857L79.7166 145.441L79.4198 146.616L77.0934 146.061C76.6503 145.956 76.2739 145.933 75.9642 145.993C75.6515 146.053 75.3997 146.188 75.2088 146.399C75.0178 146.609 74.8795 146.884 74.7939 147.222C74.7076 147.564 74.6994 147.876 74.7691 148.158C74.8358 148.439 74.9928 148.679 75.2399 148.879C75.4834 149.08 75.8311 149.235 76.2831 149.343L78.0024 149.753L79.9921 141.878L81.3613 142.204ZM75.8503 145.217L74.6392 140.601L76.1989 140.973L77.3657 145.578L75.8503 145.217Z" fill="white"/>
<path d="M61.4759 140.874C61.9677 140.008 62.5569 139.338 63.2434 138.863C63.9285 138.391 64.656 138.117 65.4259 138.041C66.1916 137.966 66.9418 138.092 67.6765 138.421C68.4141 138.75 68.9781 139.211 69.3687 139.803C69.755 140.396 69.9375 141.078 69.9164 141.85C69.8953 142.622 69.6396 143.44 69.1493 144.304C68.6575 145.17 68.069 145.839 67.384 146.311C66.6974 146.785 65.9713 147.06 65.2056 147.135C64.4357 147.212 63.682 147.085 62.9445 146.756C62.2097 146.427 61.6492 145.966 61.2629 145.373C60.8723 144.782 60.6876 144.1 60.7087 143.328C60.7284 142.558 60.9841 141.741 61.4759 140.874ZM62.7485 141.443C62.3737 142.103 62.1704 142.71 62.1386 143.262C62.1025 143.815 62.2126 144.295 62.4688 144.7C62.7207 145.108 63.0907 145.42 63.5787 145.638C64.0695 145.858 64.5743 145.936 65.0931 145.873C65.6105 145.813 66.1104 145.606 66.5929 145.252C67.0711 144.9 67.4976 144.393 67.8724 143.733C68.2473 143.073 68.4528 142.466 68.4888 141.913C68.5206 141.361 68.4106 140.881 68.1586 140.474C67.9052 140.069 67.5331 139.757 67.0423 139.538C66.5543 139.32 66.0516 139.241 65.5343 139.301C65.0127 139.362 64.5127 139.569 64.0345 139.922C63.5521 140.276 63.1234 140.783 62.7485 141.443Z" fill="white"/>
<path d="M58.6683 135.427L56.4245 144.596L55.0728 143.992L56.9804 136.967L56.9014 136.932L51.6083 142.444L50.2691 141.845L52.1124 134.787L52.0334 134.752L46.8088 140.299L45.453 139.693L52.4256 132.637L53.719 133.215L52.0615 140.093L52.128 140.123L57.3707 134.847L58.6683 135.427Z" fill="white"/>
</svg>
