<svg width="195" height="90" viewBox="0 0 195 90" fill="none" xmlns="http://www.w3.org/2000/svg">
<g clip-path="url(#clip0_166_1178)">
<path d="M99.8061 5.51032C110.99 5.51032 120.06 14.6344 120.06 25.8852C120.06 37.1362 110.99 46.2604 99.8061 46.2604C88.6225 46.2604 79.5529 37.1362 79.5529 25.8852C79.5529 14.6344 88.6225 5.51032 99.8061 5.51032Z" fill="url(#paint0_linear_166_1178)" stroke="#1B1918" stroke-width="0.544667"/>
<path d="M99.8061 12.4362C107.188 12.4362 113.175 18.4589 113.175 25.8853C113.175 33.3118 107.188 39.3345 99.8061 39.3345C92.424 39.3345 86.4374 33.3118 86.4374 25.8853C86.4374 18.4589 92.424 12.4362 99.8061 12.4362Z" fill="url(#paint1_radial_166_1178)"/>
<path fill-rule="evenodd" clip-rule="evenodd" d="M87.7445 35.7774L85.153 37.6028L84.7965 37.0905L85.7842 34.8044L84.0537 36.0234L83.7131 35.5343L86.3047 33.7087L86.6726 34.2373L85.7138 36.4786L87.404 35.2881L87.7445 35.7774ZM84.9816 33.6995C84.7979 33.7819 84.5991 33.8158 84.3866 33.8021C84.1746 33.7877 83.9856 33.7173 83.8213 33.5905C83.6565 33.464 83.5281 33.2977 83.4367 33.0913C83.2959 32.773 83.2832 32.4655 83.399 32.1695C83.5147 31.8737 83.7295 31.6558 84.0437 31.515C84.3599 31.3733 84.6679 31.3588 84.9673 31.4705C85.2669 31.5827 85.4851 31.795 85.6231 32.1068C85.7088 32.3005 85.747 32.5033 85.7379 32.7176C85.7285 32.9318 85.6605 33.1222 85.5334 33.2885C85.406 33.4544 85.2224 33.5918 84.9816 33.6995ZM84.7582 33.115C84.9662 33.022 85.1031 32.9013 85.1694 32.7524C85.2359 32.604 85.237 32.4567 85.1722 32.3113C85.1079 32.1657 84.9988 32.0686 84.845 32.0199C84.6909 31.9705 84.509 31.9927 84.2983 32.087C84.0936 32.1787 83.9575 32.299 83.8909 32.4472C83.8239 32.5947 83.8226 32.7415 83.8873 32.887C83.9517 33.0324 84.0611 33.1302 84.2152 33.1798C84.3697 33.2298 84.5512 33.2077 84.7582 33.115ZM84.6493 29.1376L84.3136 29.2094C84.4506 29.2667 84.5677 29.3545 84.6651 29.4729C84.762 29.5924 84.8264 29.7264 84.8578 29.8749C84.8898 30.0265 84.8854 30.169 84.845 30.3034C84.8043 30.4378 84.7296 30.5448 84.6215 30.6248C84.5132 30.7039 84.3533 30.7662 84.1421 30.8114L82.7243 31.1145L82.5983 30.518L83.6277 30.2978C83.9434 30.2303 84.1341 30.1781 84.2006 30.1403C84.2666 30.1037 84.3146 30.0517 84.3442 29.9848C84.3734 29.9177 84.3782 29.8395 84.3593 29.7504C84.3377 29.6482 84.291 29.5627 84.2185 29.4941C84.1453 29.4256 84.0652 29.3854 83.9769 29.3732C83.8878 29.3612 83.6827 29.389 83.3621 29.4575L82.4169 29.6597L82.2909 29.0633L84.5323 28.584L84.6493 29.1376ZM84.3513 27.3657L84.3936 27.9741L82.1077 28.135L82.0684 27.5702L82.3932 27.5472C82.2328 27.4614 82.1253 27.3813 82.0716 27.3078C82.0176 27.2336 81.9865 27.148 81.9797 27.0497C81.9701 26.9107 81.999 26.7751 82.0665 26.641L82.6064 26.7926C82.5482 26.8991 82.5217 26.9967 82.5279 27.0847C82.5336 27.1704 82.5616 27.2404 82.6127 27.2964C82.6632 27.3531 82.7508 27.393 82.8752 27.4184C82.9995 27.4439 83.2564 27.4427 83.6451 27.4154L84.3513 27.3657ZM81.7142 26.2593L81.153 26.2691L81.1425 25.6592L81.7037 25.6494L81.7142 26.2593ZM84.3162 26.2135L82.025 26.2537L82.0145 25.644L84.3057 25.6038L84.3162 26.2135ZM83.6316 25.104L83.6136 24.4853C83.7337 24.4738 83.8291 24.4326 83.8995 24.3606C83.9699 24.2895 84.0142 24.183 84.0315 24.0404C84.0506 23.8837 84.0365 23.7626 83.9883 23.6766C83.9554 23.6181 83.9044 23.5849 83.8379 23.5767C83.792 23.571 83.752 23.581 83.7186 23.6058C83.6864 23.6325 83.6517 23.6971 83.615 23.7985C83.4486 24.2736 83.3128 24.5711 83.2085 24.6912C83.0636 24.8568 82.8815 24.9264 82.6628 24.8993C82.4661 24.875 82.3098 24.7765 82.195 24.6033C82.0797 24.43 82.0419 24.1791 82.0821 23.8504C82.1203 23.537 82.2 23.3102 82.3195 23.1703C82.4396 23.0306 82.6024 22.9446 82.8082 22.9119L82.843 23.4956C82.7516 23.5088 82.678 23.5469 82.6228 23.6095C82.5669 23.6719 82.5316 23.7663 82.5162 23.8927C82.4969 24.0523 82.5048 24.169 82.5409 24.2437C82.5668 24.2931 82.605 24.3211 82.6547 24.3273C82.6978 24.3325 82.736 24.317 82.7709 24.2803C82.8178 24.2309 82.8971 24.0496 83.0096 23.7357C83.1214 23.4223 83.238 23.2084 83.3596 23.0936C83.4827 22.9803 83.6394 22.9356 83.8301 22.9591C84.0387 22.9849 84.2078 23.0946 84.3362 23.2889C84.4646 23.4823 84.5077 23.7506 84.4658 24.094C84.4278 24.4057 84.3349 24.6446 84.1867 24.8112C84.0395 24.9774 83.854 25.0749 83.6316 25.104ZM81.743 21.1235L82.8663 21.4262C82.6966 21.1764 82.6461 20.9195 82.7164 20.6555C82.7526 20.5195 82.8106 20.4045 82.8896 20.3085C82.9683 20.2133 83.0543 20.1482 83.1467 20.114C83.2395 20.08 83.3357 20.0653 83.4357 20.0707C83.5352 20.0751 83.6851 20.1049 83.8836 20.1583L85.1821 20.5084L85.0252 21.0975L83.8555 20.7822C83.6235 20.7197 83.4731 20.6914 83.4047 20.6968C83.3361 20.7028 83.2764 20.7288 83.2244 20.7754C83.1722 20.822 83.1349 20.8878 83.1122 20.9732C83.086 21.0712 83.0864 21.1649 83.1136 21.2543C83.14 21.3441 83.1962 21.42 83.2822 21.4807C83.3681 21.5423 83.5041 21.5981 83.6898 21.6481L84.799 21.9471L84.6422 22.5362L81.5862 21.7124L81.743 21.1235ZM86.3243 18.1722L84.0715 16.8105L83.5882 17.6197L83.1291 17.3423L84.424 15.1745L84.8829 15.4518L84.4009 16.2591L86.6537 17.6209L86.3243 18.1722ZM86.1689 16.0484C86.0195 15.9129 85.908 15.744 85.8338 15.5431C85.7608 15.3426 85.7477 15.1401 85.7961 14.9377C85.8439 14.7347 85.9427 14.5491 86.093 14.3811C86.3248 14.1222 86.5988 13.9855 86.9146 13.9714C87.2303 13.9575 87.5157 14.0663 87.7714 14.2978C88.0285 14.5307 88.1671 14.8079 88.1874 15.1285C88.2072 15.4496 88.1034 15.7363 87.8763 15.9901C87.7351 16.1476 87.5665 16.2652 87.3683 16.3439C87.17 16.4226 86.9694 16.4373 86.7667 16.3882C86.5642 16.3387 86.365 16.2258 86.1689 16.0484ZM86.609 15.6053C86.7781 15.7585 86.9432 15.8353 87.1055 15.8355C87.2672 15.8365 87.4014 15.7775 87.5073 15.6591C87.6133 15.5407 87.6571 15.4008 87.6389 15.2397C87.621 15.078 87.5267 14.9199 87.3555 14.7646C87.1889 14.6138 87.0244 14.5376 86.8627 14.5367C86.7015 14.5352 86.5679 14.5937 86.4619 14.7121C86.3558 14.8304 86.3116 14.9709 86.3293 15.1326C86.3467 15.2948 86.4404 15.4527 86.609 15.6053ZM90.5512 13.3643L90.1202 13.7282L89.9037 13.4687C89.9164 13.6304 89.8942 13.7766 89.8378 13.9084C89.7814 14.0403 89.7036 14.1475 89.6043 14.2314C89.4021 14.4019 89.1615 14.466 88.8811 14.424C88.6015 14.3813 88.3391 14.2141 88.095 13.9217C87.8452 13.622 87.7252 13.3353 87.7354 13.0618C87.7457 12.788 87.8574 12.5603 88.0713 12.3796C88.267 12.2144 88.5057 12.1532 88.7857 12.1964L88.0533 11.3183L88.5176 10.9262L90.5512 13.3643ZM88.5431 13.4894C88.7003 13.678 88.8398 13.7924 88.9622 13.833C89.1381 13.8916 89.2942 13.8643 89.4285 13.751C89.5358 13.6605 89.5883 13.5376 89.587 13.3831C89.5856 13.2287 89.5089 13.06 89.3575 12.8784C89.1885 12.6758 89.0296 12.5603 88.8832 12.5321C88.736 12.5043 88.6054 12.5382 88.4914 12.6344C88.3815 12.7273 88.3264 12.8493 88.3253 13.0001C88.3239 13.1509 88.3968 13.314 88.5431 13.4894ZM90.6058 11.375L90.0798 11.5653C90.0224 11.341 90.0326 11.1451 90.11 10.976C90.1883 10.8074 90.3553 10.6479 90.613 10.4982C90.8478 10.3619 91.0381 10.2889 91.1849 10.278C91.3313 10.2677 91.4527 10.2911 91.5486 10.3501C91.6447 10.409 91.7583 10.5525 91.8902 10.7822L92.2384 11.4022C92.3389 11.5775 92.4216 11.7023 92.4868 11.7757C92.5509 11.8489 92.6343 11.9202 92.7347 11.9885L92.215 12.2904C92.1812 12.263 92.1342 12.2211 92.075 12.1639C92.0487 12.1372 92.0305 12.1203 92.0207 12.1123C91.9812 12.2525 91.9232 12.3733 91.8466 12.477C91.7695 12.5799 91.6728 12.6651 91.5567 12.7327C91.3527 12.8511 91.1592 12.889 90.9781 12.8461C90.7961 12.8032 90.6564 12.6959 90.5585 12.5253C90.494 12.4129 90.463 12.2967 90.4655 12.177C90.4684 12.0574 90.505 11.9462 90.5745 11.8434C90.6439 11.7406 90.76 11.6184 90.9217 11.4776C91.1399 11.289 91.2852 11.1464 91.3569 11.0517L91.3267 10.9992C91.2682 10.8971 91.202 10.8398 91.1272 10.825C91.0527 10.811 90.9465 10.8435 90.8081 10.9239C90.7143 10.9784 90.6521 11.0393 90.6213 11.1068C90.5899 11.1739 90.585 11.263 90.6058 11.375ZM91.5542 11.3958C91.5001 11.4573 91.4091 11.5461 91.2812 11.6623C91.1537 11.7782 91.0763 11.8642 91.048 11.9202C91.008 12.0091 91.009 12.0909 91.0523 12.1659C91.0949 12.2402 91.1588 12.288 91.2447 12.3099C91.3305 12.332 91.4153 12.3186 91.5003 12.2692C91.5953 12.214 91.6673 12.1304 91.7177 12.0182C91.7542 11.9334 91.7621 11.851 91.7423 11.7702C91.7304 11.7172 91.6875 11.6276 91.615 11.501L91.5542 11.3958ZM92.0904 9.69767L92.6929 9.46491L93.7875 10.7955L93.7045 9.07435L94.2904 8.84802L94.3255 11.2108L94.3331 11.6382C94.3317 11.7826 94.3208 11.8969 94.3013 11.9805C94.2813 12.0646 94.2499 12.1377 94.2075 12.2018C94.1645 12.2651 94.1054 12.3252 94.0288 12.3812C93.9522 12.4368 93.8606 12.4858 93.7526 12.5274C93.644 12.5693 93.5328 12.5989 93.4189 12.6167L93.1984 12.1899C93.294 12.1735 93.3769 12.1511 93.4486 12.1234C93.5798 12.0728 93.6627 11.9964 93.6963 11.8945C93.7295 11.7928 93.7404 11.675 93.7282 11.5416L92.0904 9.69767ZM96.6723 10.537L96.3416 7.37169L98.4989 7.14364L98.5549 7.67928L97.0333 7.84022L97.1115 8.58896L98.4249 8.4501L98.481 8.98588L97.1675 9.12474L97.3079 10.4698L96.6723 10.537ZM99.3656 10.2989L99.3104 7.1167L99.9166 7.10606L99.9716 10.2883L99.3656 10.2989ZM100.575 9.09944C100.596 8.89826 100.666 8.70816 100.784 8.52993C100.903 8.35248 101.058 8.22277 101.249 8.1433C101.44 8.06283 101.648 8.03403 101.871 8.05776C102.216 8.09406 102.487 8.23671 102.683 8.48562C102.88 8.73439 102.96 9.03054 102.924 9.37465C102.888 9.72104 102.747 9.99661 102.501 10.2017C102.255 10.4065 101.963 10.4904 101.625 10.4548C101.416 10.4327 101.222 10.3644 101.042 10.2493C100.862 10.1342 100.733 9.97961 100.653 9.78565C100.574 9.59184 100.547 9.36322 100.575 9.09944ZM101.19 9.1972C101.166 9.42489 101.201 9.60448 101.297 9.73677C101.391 9.86891 101.517 9.9433 101.675 9.96002C101.832 9.97668 101.97 9.93008 102.089 9.82052C102.209 9.71089 102.281 9.54131 102.305 9.31069C102.328 9.0865 102.293 8.9077 102.198 8.77556C102.105 8.64356 101.979 8.56902 101.822 8.55251C101.664 8.53579 101.525 8.58224 101.406 8.69187C101.285 8.80128 101.214 8.97037 101.19 9.1972ZM104.703 11.06L104.786 10.7251C104.675 10.824 104.545 10.8914 104.397 10.9274C104.247 10.9625 104.1 10.9621 103.953 10.9254C103.804 10.888 103.678 10.8214 103.576 10.7261C103.474 10.6304 103.411 10.5159 103.387 10.3831C103.364 10.2507 103.378 10.0786 103.43 9.86776L103.781 8.45289L104.369 8.6004L104.115 9.62785C104.036 9.9428 103.999 10.1383 104.004 10.2148C104.008 10.2907 104.033 10.3568 104.08 10.4129C104.127 10.4688 104.195 10.5072 104.283 10.5292C104.384 10.5545 104.48 10.5498 104.574 10.5143C104.667 10.4781 104.738 10.4233 104.788 10.3489C104.837 10.2735 104.902 10.0759 104.982 9.75606L105.215 8.81272L105.803 8.96022L105.249 11.1971L104.703 11.06ZM106.363 11.7389L105.809 11.491L106.741 9.38494L107.255 9.61527L107.123 9.91436C107.274 9.81231 107.394 9.75456 107.484 9.7412C107.575 9.72826 107.664 9.74084 107.754 9.78093C107.88 9.83753 107.986 9.92679 108.072 10.0498L107.685 10.4582C107.619 10.3564 107.546 10.2871 107.466 10.2513C107.388 10.2163 107.313 10.2081 107.24 10.2274C107.167 10.2456 107.091 10.3046 107.01 10.4032C106.929 10.5017 106.809 10.7303 106.651 11.0885L106.363 11.7389ZM108.662 9.97539L108.943 9.48635L109.468 9.79122L109.187 10.2804L108.662 9.97539ZM107.361 12.2425L108.507 10.2462L109.032 10.5511L107.886 12.5476L107.361 12.2425ZM108.658 12.2428L109.2 12.5366C109.149 12.6468 109.137 12.7507 109.164 12.848C109.19 12.9448 109.259 13.0365 109.373 13.1231C109.499 13.2181 109.61 13.2664 109.708 13.2673C109.775 13.268 109.829 13.2402 109.869 13.1864C109.897 13.1491 109.908 13.1094 109.904 13.0676C109.897 13.0262 109.859 12.9639 109.79 12.8812C109.464 12.4985 109.276 12.2315 109.225 12.0806C109.154 11.8714 109.186 11.6781 109.318 11.5012C109.438 11.3419 109.601 11.255 109.807 11.2416C110.014 11.2277 110.249 11.3204 110.512 11.5198C110.762 11.7096 110.918 11.8925 110.979 12.0665C111.038 12.2411 111.031 12.4257 110.957 12.6215L110.437 12.36C110.471 12.2738 110.475 12.1905 110.449 12.1112C110.423 12.0314 110.359 11.9533 110.258 11.8767C110.131 11.78 110.026 11.7286 109.944 11.7228C109.888 11.7206 109.845 11.7399 109.815 11.7802C109.789 11.815 109.783 11.8561 109.797 11.905C109.816 11.9703 109.933 12.1301 110.147 12.3851C110.36 12.6391 110.486 12.8478 110.524 13.0112C110.56 13.1749 110.521 13.3339 110.405 13.4883C110.278 13.6571 110.099 13.7495 109.868 13.7642C109.637 13.7794 109.385 13.6827 109.11 13.4745C108.861 13.2854 108.702 13.0853 108.632 12.8728C108.563 12.6616 108.572 12.4512 108.658 12.2428ZM113.025 12.6285L112.188 13.4413C112.488 13.4235 112.733 13.5123 112.922 13.7089C113.019 13.8101 113.087 13.9194 113.128 14.037C113.169 14.154 113.18 14.2615 113.162 14.3587C113.143 14.4563 113.106 14.547 113.05 14.6304C112.995 14.7138 112.892 14.8277 112.744 14.9714L111.777 15.9108L111.356 15.4721L112.227 14.6258C112.4 14.458 112.502 14.343 112.532 14.2812C112.562 14.2189 112.571 14.154 112.558 14.0851C112.545 14.0163 112.508 13.9501 112.448 13.8865C112.377 13.8136 112.297 13.7657 112.207 13.7429C112.117 13.7194 112.024 13.7289 111.927 13.7717C111.831 13.8139 111.713 13.9026 111.575 14.0368L110.749 14.8394L110.328 14.4007L112.603 12.1899L113.025 12.6285ZM113.243 18.0871L115.495 16.7254L115.012 15.916L115.471 15.6387L116.766 17.8065L116.307 18.0841L115.825 17.2768L113.572 18.6385L113.243 18.0871ZM115.004 18.9618C115.19 18.8861 115.39 18.8593 115.602 18.8804C115.813 18.9023 116 18.9792 116.16 19.1117C116.32 19.2438 116.442 19.4145 116.527 19.6241C116.656 19.9471 116.659 20.2547 116.532 20.5466C116.406 20.8383 116.184 21.0484 115.865 21.1781C115.544 21.3086 115.236 21.3124 114.941 21.1902C114.645 21.0674 114.435 20.8477 114.307 20.5311C114.228 20.3345 114.197 20.1305 114.214 19.9168C114.231 19.703 114.305 19.5152 114.438 19.3534C114.571 19.1921 114.759 19.0613 115.004 18.9618ZM115.207 19.5539C114.996 19.6397 114.855 19.7553 114.783 19.9019C114.712 20.0478 114.705 20.195 114.765 20.3426C114.824 20.4904 114.93 20.5913 115.082 20.6454C115.234 20.7002 115.417 20.6843 115.631 20.5974C115.838 20.513 115.978 20.3976 116.05 20.2519C116.122 20.1067 116.129 19.9602 116.069 19.8124C116.01 19.6648 115.904 19.5632 115.752 19.5084C115.599 19.4528 115.417 19.4685 115.207 19.5539ZM117.261 21.7661L117.329 22.3242L117.019 22.3625C117.285 22.5321 117.435 22.7555 117.468 23.0313C117.486 23.1775 117.472 23.3085 117.425 23.4234C117.378 23.5389 117.298 23.6382 117.185 23.7225C117.319 23.8075 117.423 23.9051 117.497 24.0139C117.571 24.1228 117.616 24.2434 117.632 24.3757C117.653 24.5435 117.636 24.6903 117.582 24.8149C117.529 24.9396 117.439 25.0386 117.316 25.1122C117.224 25.1661 117.069 25.2062 116.852 25.233L115.397 25.4126L115.324 24.8073L116.624 24.6466C116.85 24.6187 116.992 24.5803 117.053 24.5302C117.132 24.4638 117.164 24.3724 117.15 24.2561C117.14 24.1708 117.105 24.0945 117.043 24.026C116.983 23.9579 116.901 23.9135 116.798 23.8927C116.694 23.872 116.536 23.8743 116.322 23.9007L115.229 24.0356L115.155 23.4304L116.402 23.2764C116.624 23.249 116.765 23.2203 116.827 23.191C116.888 23.162 116.932 23.1222 116.958 23.0735C116.983 23.024 116.992 22.961 116.983 22.883C116.971 22.7896 116.936 22.7088 116.877 22.6408C116.818 22.5719 116.739 22.5271 116.641 22.5065C116.542 22.4855 116.385 22.4888 116.166 22.5158L115.061 22.6523L114.987 22.047L117.261 21.7661ZM116.511 25.9926C116.712 26.0066 116.903 26.0705 117.084 26.1831C117.264 26.2959 117.399 26.4474 117.484 26.6367C117.571 26.8263 117.607 27.0339 117.591 27.2592C117.567 27.6067 117.435 27.8843 117.194 28.0909C116.954 28.2975 116.663 28.3886 116.32 28.3643C115.974 28.3401 115.696 28.2075 115.483 27.9674C115.271 27.7268 115.178 27.4364 115.201 27.0957C115.216 26.8844 115.277 26.6873 115.385 26.5023C115.493 26.3176 115.642 26.1818 115.832 26.0949C116.022 26.0086 116.248 25.974 116.511 25.9926ZM116.435 26.6142C116.208 26.5982 116.031 26.64 115.903 26.7402C115.775 26.8397 115.705 26.9693 115.694 27.1282C115.683 27.287 115.734 27.4244 115.848 27.5401C115.961 27.6565 116.132 27.7227 116.361 27.739C116.585 27.7546 116.761 27.7127 116.889 27.6135C117.017 27.5147 117.087 27.3858 117.098 27.2268C117.109 27.068 117.058 26.93 116.945 26.8134C116.832 26.6963 116.662 26.63 116.435 26.6142ZM114.929 29.2802L115.065 28.686L117.298 29.2046L117.171 29.7563L116.854 29.6827C116.982 29.8119 117.062 29.9202 117.092 30.0064C117.122 30.0932 117.127 30.1841 117.105 30.28C117.073 30.4158 117.006 30.537 116.903 30.6454L116.431 30.3417C116.517 30.257 116.571 30.1714 116.591 30.0854C116.61 30.0016 116.604 29.9264 116.571 29.858C116.539 29.789 116.467 29.725 116.355 29.6642C116.244 29.6033 115.998 29.5287 115.618 29.4405L114.929 29.2802ZM114.481 30.9439L114.678 30.3672L116.845 31.1177L116.662 31.6532L116.354 31.5466C116.468 31.6887 116.536 31.8046 116.557 31.8934C116.578 31.9829 116.573 32.0738 116.541 32.1669C116.496 32.2987 116.417 32.4122 116.302 32.5091L115.864 32.1574C115.959 32.0822 116.022 32.0027 116.05 31.9195C116.078 31.838 116.08 31.7626 116.054 31.6911C116.03 31.6192 115.965 31.548 115.86 31.4757C115.756 31.4034 115.519 31.3034 115.15 31.1758L114.481 30.9439ZM115.221 32.4144C115.402 32.503 115.555 32.6343 115.681 32.8068C115.806 32.9796 115.875 33.1705 115.884 33.3785C115.893 33.5868 115.849 33.7927 115.751 33.9959C115.599 34.3089 115.373 34.5164 115.073 34.6174C114.773 34.7185 114.469 34.693 114.16 34.5413C113.849 34.3887 113.64 34.1608 113.533 33.8582C113.426 33.5551 113.447 33.2506 113.596 32.9436C113.688 32.753 113.818 32.5935 113.987 32.4627C114.156 32.3322 114.345 32.2622 114.553 32.2534C114.761 32.2449 114.984 32.2981 115.221 32.4144ZM114.919 32.9621C114.715 32.8618 114.535 32.8339 114.379 32.8785C114.223 32.9225 114.11 33.0164 114.041 33.1595C113.972 33.3027 113.968 33.4493 114.029 33.5991C114.091 33.7495 114.225 33.8755 114.432 33.9772C114.633 34.076 114.812 34.1037 114.968 34.0596C115.123 34.0165 115.236 33.9231 115.305 33.78C115.375 33.6367 115.379 33.4896 115.318 33.339C115.256 33.1878 115.123 33.0622 114.919 32.9621ZM112.557 34.7786L114.824 35.583L114.469 36.0563L113.011 35.4922L113.973 36.7185L113.621 37.1885L112.192 36.5864L113.127 37.8477L112.768 38.3277L111.381 36.3492L111.731 35.8811L113.146 36.4562L112.203 35.252L112.557 34.7786Z" fill="#1B1918"/>
<path fill-rule="evenodd" clip-rule="evenodd" d="M109.071 28.5015L102.924 35.5973L94.3818 23.6841L100.012 16.6533C100.012 16.6533 109.006 28.5666 109.071 28.5015Z" fill="white"/>
<path fill-rule="evenodd" clip-rule="evenodd" d="M101.981 21.2859L98.2275 25.5174L98.0788 25.6848L97.9215 25.5265L95.786 23.3783L95.6442 23.2355L95.7795 23.0861L99.7268 18.7244L99.8844 18.5503L100.039 18.7269C100.044 18.7329 101.936 20.8993 102.011 21.051L102.075 21.1795L101.981 21.2859ZM98.0617 25.0686L101.554 21.1315C101.26 20.7691 100.265 19.626 99.8798 19.1836L96.2256 23.2214L98.0617 25.0686Z" fill="#1B1918"/>
<path fill-rule="evenodd" clip-rule="evenodd" d="M102.316 24.4553L102.811 26.1286C102.472 25.843 102.14 25.6926 101.815 25.6803C101.491 25.6671 101.195 25.7882 100.927 26.0452C100.545 26.4107 100.389 26.8453 100.458 27.3467C100.528 27.8484 100.818 28.3686 101.326 28.9058C102.445 30.0899 103.487 30.2216 104.45 29.3005L104.941 28.8307L103.436 27.2381L102.668 27.9729C102.501 28.1323 102.373 28.2373 102.284 28.2881C102.193 28.339 102.086 28.366 101.961 28.3679L101.889 28.2916C102.014 28.2772 102.122 28.2431 102.211 28.1903C102.301 28.1383 102.427 28.0333 102.593 27.875L103.352 27.1491L103.195 26.9836L102.348 27.794L102.211 27.9255C101.908 28.2153 101.651 28.2497 101.442 28.0287C101.361 27.9428 101.317 27.8457 101.309 27.7352C101.302 27.6246 101.335 27.5355 101.405 27.4677C101.458 27.4171 101.524 27.3921 101.6 27.3928C101.676 27.3938 101.74 27.421 101.79 27.4745C101.875 27.5644 101.893 27.6477 101.841 27.725L101.781 27.8104C101.763 27.8396 101.76 27.8621 101.774 27.8767C101.799 27.9028 101.845 27.8847 101.913 27.8198L102.017 27.7203L104.029 25.7956L103.999 26.6114L105.43 28.1244L106.139 28.0881L104.581 29.5789L104.272 29.8735C104.014 30.1205 103.771 30.2933 103.542 30.3906C103.314 30.489 103.037 30.5394 102.712 30.5433C101.946 30.5577 101.266 30.2492 100.668 29.6168C100.052 28.9646 99.7641 28.2704 99.8039 27.5345C99.8372 26.8906 100.087 26.3471 100.55 25.9039C100.757 25.7057 101.03 25.5143 101.368 25.3328C101.714 25.1453 101.93 25.0098 102.018 24.9261C102.146 24.8037 102.245 24.6466 102.316 24.4553ZM102.679 24.4726L103.132 26.0028L103.028 26.039L102.575 24.5029L102.679 24.4726ZM102.145 25.8726L102.052 25.8856C101.665 25.9413 101.374 26.0617 101.184 26.2439C100.952 26.466 100.83 26.7399 100.818 27.0665C100.812 27.3057 100.876 27.5516 101.01 27.8001C101.144 28.0508 101.364 28.3385 101.671 28.663C102.062 29.0766 102.402 29.3541 102.689 29.4943C102.977 29.6353 103.314 29.6897 103.696 29.6586L103.728 29.6922C103.359 29.7758 103.002 29.7391 102.655 29.5823C102.31 29.4243 101.929 29.1264 101.513 28.6867C101.055 28.2019 100.789 27.7384 100.716 27.296C100.643 26.8536 100.77 26.4767 101.097 26.1639C101.381 25.8921 101.725 25.7884 102.128 25.8548L102.145 25.8726ZM104.324 25.844L104.309 26.4609L105.669 27.8995L106.729 28.0019L105.509 29.1504L104.424 30.2126C104.355 30.2793 104.299 30.3279 104.259 30.3585C104.117 30.4664 103.936 30.5345 103.712 30.5605L103.777 30.4987C103.974 30.428 104.191 30.2782 104.431 30.0483L104.58 29.8996L106.48 28.0824L105.616 28.0157L104.195 26.5121L104.209 25.8206L104.324 25.844Z" fill="#1B1918"/>
<path fill-rule="evenodd" clip-rule="evenodd" d="M102.64 35.8571L98.9763 37.0295L89.1403 24.0747L96.2585 16.0024H97.5527L90.6286 23.4238L93.9289 23.6841L102.64 35.8571Z" fill="white"/>
<path fill-rule="evenodd" clip-rule="evenodd" d="M92.4743 20.276L92.4957 20.1685L91.6836 19.3085L92.6667 18.6205L93.436 19.1795L92.4743 20.276Z" fill="#E30016"/>
<path fill-rule="evenodd" clip-rule="evenodd" d="M37.925 77.3917L39.9678 83.3612V77.3917H40.9826V84.3189H39.2883L37.2453 78.413V84.3189H36.2308V77.3917H37.925ZM42.1933 81.3374C42.1969 80.8361 42.2543 80.4604 42.3664 80.2106C42.5414 79.8381 42.8556 79.5934 43.3087 79.4794C43.5202 79.4241 43.7428 79.3955 43.9769 79.3955C44.2092 79.3955 44.4319 79.4241 44.647 79.4794C44.9288 79.5516 45.1534 79.6707 45.3171 79.8381C45.6027 80.1299 45.7491 80.6297 45.7569 81.3374V82.5445C45.7604 83.1838 45.6485 83.6364 45.4218 83.9012C45.1325 84.2483 44.6585 84.4213 43.9997 84.4176C42.9546 84.428 42.3705 84.0337 42.2428 83.239C42.2067 83.0292 42.1893 82.798 42.1933 82.5445V81.3374ZM43.2078 82.5464L43.2252 83.0125C43.2573 83.5007 43.5123 83.7435 43.9884 83.7404C44.3198 83.7339 44.5405 83.5927 44.647 83.3178C44.7096 83.1568 44.7423 82.9001 44.7423 82.5464V81.2585C44.7423 80.462 44.4854 80.0665 43.9729 80.073C43.5105 80.0666 43.2629 80.3096 43.2308 80.8008L43.2078 81.2585V82.5464ZM47.8432 79.4947V82.7478C47.8475 83.0914 47.8699 83.3129 47.9098 83.4115C48.011 83.6364 48.2109 83.7473 48.5136 83.7404C48.7094 83.7432 48.8751 83.7017 49.0103 83.6131C49.1759 83.5107 49.2846 83.3496 49.3341 83.1266C49.3624 82.9959 49.3777 82.8518 49.3777 82.694V79.4947H50.3922V84.3189H49.3777V83.893L49.1871 84.089C48.9361 84.3086 48.5951 84.4176 48.1667 84.4176C47.7881 84.4176 47.4683 84.3205 47.2076 84.1277C46.9657 83.9483 46.842 83.675 46.8346 83.3075L46.8289 82.7861V79.4947H47.8432ZM52.5414 79.4947V80.0878C52.6974 79.8485 52.8805 79.6788 53.0879 79.5768C53.2249 79.508 53.36 79.4609 53.4896 79.4341L53.8131 79.3955V80.2794L53.4725 80.3096C53.1088 80.3479 52.8575 80.482 52.7202 80.7119C52.6005 80.9246 52.5414 81.24 52.5414 81.6559V84.3189H51.5269V79.4947H52.5414ZM54.6317 79.4947H55.6463V84.3189H54.6317V79.4947ZM55.6864 77.3817V78.2854H54.5916V77.3817H55.6864ZM57.609 82.8498V83.0276L57.6258 83.2237C57.6887 83.5776 57.9117 83.7504 58.2962 83.7404C58.7493 83.7368 58.9835 83.544 58.9987 83.1602C58.9987 83.0292 58.9604 82.9121 58.886 82.8112C58.7854 82.6855 58.6599 82.5681 58.5073 82.4575L57.9995 82.1224L57.4642 81.7683C57.2225 81.6022 57.0473 81.4448 56.9407 81.2972C56.8056 81.1178 56.7408 80.8879 56.7446 80.6096C56.7446 79.8029 57.2776 79.399 58.3457 79.3955C58.6235 79.3955 58.8825 79.4291 59.1202 79.4947C59.5885 79.622 59.8494 79.9119 59.9011 80.3633L59.9179 80.7321V80.8897H58.9034V80.7368V80.5593C58.8692 80.2423 58.6752 80.0797 58.3171 80.073C57.9534 80.0695 57.7669 80.2373 57.7593 80.5744C57.7593 80.6984 57.7915 80.8024 57.8547 80.8847C57.9362 80.9919 58.0679 81.1078 58.2504 81.2283L58.8807 81.6361C59.4346 81.9794 59.7734 82.2731 59.8952 82.5162C59.9715 82.6771 60.0095 82.8599 60.0133 83.0659C60.0057 83.5022 59.842 83.8409 59.5222 84.084C59.2288 84.3039 58.8256 84.4145 58.3115 84.4176C57.2739 84.4147 56.7084 84.0303 56.6113 83.2676L56.5945 83.0226V82.8498H57.609ZM60.9387 77.3817H61.9532V79.917L62.1494 79.7495C62.4499 79.5095 62.7927 79.3924 63.1813 79.3955C64.0131 79.4056 64.4489 79.768 64.4851 80.482L64.5022 81.0606V84.3189H63.4877V81.262L63.482 80.9033C63.4709 80.6416 63.4291 80.4503 63.3547 80.3278C63.2501 80.1619 63.0595 80.0762 62.7855 80.073C62.42 80.073 62.1817 80.1971 62.0715 80.4472C62.0067 80.5794 61.9725 80.7139 61.9649 80.8512L61.9534 81.2434V84.3189H60.9389L60.9387 77.3817ZM72.6671 77.3917V78.1733H70.849V84.3189H69.7678V78.1733H67.9499V77.3917H72.6671ZM72.0995 81.3374C72.103 80.8361 72.1606 80.4604 72.2727 80.2106C72.4476 79.8381 72.7618 79.5934 73.2152 79.4794C73.4267 79.4241 73.6493 79.3955 73.8835 79.3955C74.1158 79.3955 74.3384 79.4241 74.5533 79.4794C74.8351 79.5516 75.0599 79.6707 75.2237 79.8381C75.5089 80.1299 75.6556 80.6297 75.663 81.3374V82.5445C75.6673 83.1838 75.5547 83.6364 75.3283 83.9012C75.039 84.2483 74.5648 84.4213 73.9059 84.4176C72.8609 84.428 72.2767 84.0337 72.149 83.239C72.1129 83.0292 72.0954 82.798 72.0995 82.5445V81.3374ZM73.1141 82.5464L73.1315 83.0125C73.1636 83.5007 73.4186 83.7435 73.895 83.7404C74.226 83.7339 74.4468 83.5927 74.5533 83.3178C74.6162 83.1568 74.6486 82.9001 74.6486 82.5464V81.2585C74.6486 80.462 74.3917 80.0665 73.8794 80.073C73.4167 80.0666 73.1695 80.3096 73.1371 80.8008L73.1141 81.2585V82.5464ZM80.3099 77.3817V84.3189H79.2954V83.8776C78.9202 84.2451 78.5282 84.4245 78.119 84.4176C77.7877 84.4211 77.5058 84.3387 77.2736 84.1694C77.0413 84.0001 76.8931 83.7755 76.8301 83.4938C76.775 83.2708 76.7464 83.0292 76.7464 82.766V81.1596C76.7349 79.981 77.2125 79.3924 78.18 79.3955C78.5378 79.399 78.823 79.4759 79.0382 79.6267C79.1048 79.6754 79.1908 79.7445 79.2954 79.8331V77.3817H80.3099ZM77.7609 82.6152C77.7573 82.8498 77.7644 83.0342 77.7836 83.1652C77.8164 83.556 78.0446 83.7473 78.4693 83.7404C78.7147 83.7404 78.9068 83.665 79.0441 83.5139C79.2079 83.3345 79.2914 82.9707 79.2954 82.4242V81.0122C79.2954 80.8426 79.2783 80.6869 79.2459 80.5458C79.2117 80.4051 79.1391 80.2911 79.027 80.2072C78.909 80.1218 78.7568 80.0762 78.5699 80.073C78.0941 80.0759 77.8331 80.3112 77.7896 80.7758C77.7668 80.9366 77.7572 81.1213 77.7609 81.3305V82.6152ZM81.4941 80.8643C81.4977 80.6617 81.5187 80.4855 81.5552 80.3398C81.5969 80.1484 81.696 79.9773 81.8538 79.8249C82.0117 79.6738 82.1985 79.5683 82.4134 79.508C82.6706 79.4357 82.939 79.399 83.2168 79.3955C83.5406 79.3955 83.8339 79.4341 84.0983 79.513C84.4293 79.6085 84.6694 79.8183 84.8236 80.1415C84.9017 80.3127 84.9397 80.6162 84.9397 81.0506V84.3189H83.9252V83.7991C83.7387 84.0441 83.5671 84.203 83.4111 84.2753C83.2112 84.3743 82.9711 84.4213 82.6914 84.4176C82.4878 84.4211 82.3051 84.3943 82.1449 84.3387C81.6256 84.1814 81.3687 83.7554 81.3762 83.0612C81.3762 82.7713 81.4104 82.5078 81.4767 82.2762C81.5873 81.8723 81.9376 81.6038 82.5261 81.4699C82.76 81.4143 83.0019 81.3776 83.2494 81.3628L83.9252 81.3424V80.7773C83.9174 80.2976 83.691 80.063 83.2454 80.073C82.9732 80.0759 82.7812 80.1534 82.665 80.3042C82.5831 80.4116 82.5317 80.5995 82.5086 80.8643H81.4941ZM83.9252 82.02H83.63C82.7886 82.0551 82.3754 82.3941 82.3907 83.0326C82.3792 83.5007 82.5887 83.7369 83.0153 83.7404C83.3768 83.7475 83.6393 83.5808 83.8031 83.244C83.866 83.1165 83.9024 82.984 83.9136 82.8448L83.9252 82.4626V82.02ZM86.6433 79.4947L87.574 83.0949L88.5774 79.4947H89.5598L87.4847 86.1066H86.5253L87.0945 84.4161L85.6002 79.4947H86.6433ZM96.6262 77.3917V78.1733H94.2562V80.3649H96.5368V81.1464H94.2562V84.3189H93.175V77.3917H96.6262ZM98.6175 77.3817V84.3189H97.603V77.3817H98.6175ZM99.6986 81.3374C99.7022 80.8361 99.7597 80.4604 99.8718 80.2106C100.047 79.8381 100.361 79.5934 100.814 79.4794C101.026 79.4241 101.248 79.3955 101.482 79.3955C101.715 79.3955 101.937 79.4241 102.152 79.4794C102.434 79.5516 102.659 79.6707 102.823 79.8381C103.108 80.1299 103.255 80.6297 103.262 81.3374V82.5445C103.266 83.1838 103.154 83.6364 102.927 83.9012C102.638 84.2483 102.164 84.4213 101.505 84.4176C100.46 84.428 99.8759 84.0337 99.7481 83.239C99.7121 83.0292 99.6946 82.798 99.6986 82.5445V81.3374ZM100.713 82.5464L100.731 83.0125C100.763 83.5007 101.018 83.7435 101.494 83.7404C101.825 83.7339 102.046 83.5927 102.152 83.3178C102.215 83.1568 102.248 82.9001 102.248 82.5464V81.2585C102.248 80.462 101.991 80.0665 101.479 80.073C101.016 80.0666 100.768 80.3096 100.736 80.8008L100.713 81.2585V82.5464ZM105.349 79.4947V82.7478C105.353 83.0914 105.375 83.3129 105.415 83.4115C105.516 83.6364 105.716 83.7473 106.019 83.7404C106.215 83.7432 106.38 83.7017 106.516 83.6131C106.681 83.5107 106.79 83.3496 106.839 83.1266C106.868 82.9959 106.883 82.8518 106.883 82.694V79.4947H107.898V84.3189H106.883V83.893L106.692 84.089C106.442 84.3086 106.101 84.4176 105.672 84.4176C105.293 84.4176 104.974 84.3205 104.713 84.1277C104.471 83.9483 104.347 83.675 104.34 83.3075L104.334 82.7861V79.4947H105.349ZM110.047 79.4947V80.0878C110.203 79.8485 110.386 79.6788 110.593 79.5768C110.731 79.508 110.865 79.4609 110.995 79.4341L111.318 79.3955V80.2794L110.978 80.3096C110.614 80.3479 110.363 80.482 110.226 80.7119C110.106 80.9246 110.047 81.24 110.047 81.6559V84.3189H109.032V79.4947H110.047ZM112.137 79.4947H113.152V84.3189H112.137V79.4947ZM113.192 77.3817V78.2854H112.097V77.3817H113.192ZM115.114 82.8498V83.0276L115.131 83.2237C115.194 83.5776 115.417 83.7504 115.802 83.7404C116.255 83.7368 116.489 83.544 116.504 83.1602C116.504 83.0292 116.466 82.9121 116.392 82.8112C116.291 82.6855 116.165 82.5681 116.013 82.4575L115.505 82.1224L114.97 81.7683C114.728 81.6022 114.553 81.4448 114.446 81.2972C114.311 81.1178 114.246 80.8879 114.25 80.6096C114.25 79.8029 114.783 79.399 115.851 79.3955C116.129 79.3955 116.388 79.4291 116.626 79.4947C117.094 79.622 117.355 79.9119 117.406 80.3633L117.423 80.7321V80.8897H116.409V80.7368V80.5593C116.375 80.2423 116.181 80.0797 115.823 80.073C115.459 80.0695 115.273 80.2373 115.265 80.5744C115.265 80.6984 115.297 80.8024 115.36 80.8847C115.442 80.9919 115.573 81.1078 115.756 81.2283L116.386 81.6361C116.94 81.9794 117.279 82.2731 117.401 82.5162C117.477 82.6771 117.515 82.8599 117.519 83.0659C117.511 83.5022 117.347 83.8409 117.027 84.084C116.734 84.3039 116.331 84.4145 115.817 84.4176C114.779 84.4147 114.214 84.0303 114.117 83.2676L114.1 83.0226V82.8498H115.114ZM118.444 77.3817H119.459V79.917L119.655 79.7495C119.956 79.5095 120.298 79.3924 120.687 79.3955C121.518 79.4056 121.955 79.768 121.991 80.482L122.008 81.0606V84.3189H120.993V81.262L120.987 80.9033C120.976 80.6416 120.934 80.4503 120.86 80.3278C120.755 80.1619 120.565 80.0762 120.291 80.073C119.925 80.073 119.687 80.1971 119.577 80.4472C119.512 80.5794 119.478 80.7139 119.47 80.8512L119.459 81.2434V84.3189H118.444L118.444 77.3817ZM130.173 77.3917V78.1733H128.355V84.3189H127.273V78.1733H125.455V77.3917H130.173ZM129.605 81.3374C129.608 80.8361 129.666 80.4604 129.778 80.2106C129.953 79.8381 130.268 79.5934 130.721 79.4794C130.932 79.4241 131.155 79.3955 131.389 79.3955C131.621 79.3955 131.844 79.4241 132.059 79.4794C132.34 79.5516 132.565 79.6707 132.729 79.8381C133.015 80.1299 133.161 80.6297 133.168 81.3374V82.5445C133.173 83.1838 133.06 83.6364 132.834 83.9012C132.544 84.2483 132.07 84.4213 131.412 84.4176C130.366 84.428 129.782 84.0337 129.654 83.239C129.618 83.0292 129.601 82.798 129.605 82.5445V81.3374ZM130.62 82.5464L130.637 83.0125C130.669 83.5007 130.924 83.7435 131.4 83.7404C131.731 83.7339 131.952 83.5927 132.059 83.3178C132.122 83.1568 132.154 82.9001 132.154 82.5464V81.2585C132.154 80.462 131.897 80.0665 131.385 80.073C130.922 80.0666 130.675 80.3096 130.643 80.8008L130.62 81.2585V82.5464ZM134.13 79.4947H135.145V79.9119L135.39 79.6958C135.499 79.6034 135.623 79.5347 135.763 79.4895C135.942 79.4307 136.136 79.399 136.344 79.3955C136.936 79.3955 137.345 79.6 137.572 80.0093C137.928 79.6104 138.356 79.4056 138.855 79.3955C139.32 79.399 139.675 79.5145 139.925 79.7445C140.119 79.922 140.222 80.2455 140.237 80.717L140.243 81.3022V84.3189H139.228V81.3458L139.222 80.7421C139.215 80.2926 138.979 80.0696 138.514 80.073C138.149 80.073 137.911 80.2022 137.8 80.4619C137.726 80.6146 137.69 80.9149 137.693 81.3606V84.3189H136.679V81.3509L136.673 80.7553C136.654 80.3042 136.413 80.0762 135.948 80.073C135.636 80.0695 135.423 80.1736 135.307 80.3831C135.232 80.5106 135.187 80.6432 135.173 80.7773C135.151 80.9431 135.141 81.1376 135.145 81.3606V84.3189H134.13L134.13 79.4947ZM141.189 81.3374C141.192 80.8361 141.25 80.4604 141.362 80.2106C141.537 79.8381 141.851 79.5934 142.304 79.4794C142.516 79.4241 142.738 79.3955 142.973 79.3955C143.205 79.3955 143.427 79.4241 143.643 79.4794C143.924 79.5516 144.149 79.6707 144.313 79.8381C144.598 80.1299 144.745 80.6297 144.752 81.3374V82.5445C144.756 83.1838 144.644 83.6364 144.417 83.9012C144.128 84.2483 143.654 84.4213 142.995 84.4176C141.95 84.428 141.366 84.0337 141.238 83.239C141.202 83.0292 141.185 82.798 141.189 82.5445V81.3374ZM142.203 82.5464L142.221 83.0125C142.253 83.5007 142.508 83.7435 142.984 83.7404C143.315 83.7339 143.536 83.5927 143.643 83.3178C143.705 83.1568 143.738 82.9001 143.738 82.5464V81.2585C143.738 80.462 143.481 80.0665 142.969 80.073C142.506 80.0666 142.259 80.3096 142.226 80.8008L142.203 81.2585V82.5464ZM146.901 79.4947V80.0878C147.058 79.8485 147.241 79.6788 147.448 79.5768C147.585 79.508 147.72 79.4609 147.85 79.4341L148.173 79.3955V80.2794L147.833 80.3096C147.469 80.3479 147.217 80.482 147.08 80.7119C146.961 80.9246 146.901 81.24 146.901 81.6559V84.3189H145.887V79.4947H146.901ZM150.058 79.4947V80.0878C150.214 79.8485 150.397 79.6788 150.604 79.5768C150.741 79.508 150.876 79.4609 151.006 79.4341L151.329 79.3955V80.2794L150.989 80.3096C150.625 80.3479 150.374 80.482 150.237 80.7119C150.117 80.9246 150.058 81.24 150.058 81.6559V84.3189H149.043V79.4947H150.058ZM151.925 81.3374C151.929 80.8361 151.986 80.4604 152.098 80.2106C152.273 79.8381 152.587 79.5934 153.041 79.4794C153.252 79.4241 153.475 79.3955 153.709 79.3955C153.941 79.3955 154.164 79.4241 154.379 79.4794C154.661 79.5516 154.885 79.6707 155.049 79.8381C155.334 80.1299 155.481 80.6297 155.489 81.3374V82.5445C155.493 83.1838 155.38 83.6364 155.154 83.9012C154.865 84.2483 154.39 84.4213 153.732 84.4176C152.686 84.428 152.102 84.0337 151.975 83.239C151.938 83.0292 151.921 82.798 151.925 82.5445V81.3374ZM152.94 82.5464L152.957 83.0125C152.989 83.5007 153.244 83.7435 153.721 83.7404C154.051 83.7339 154.272 83.5927 154.379 83.3178C154.442 83.1568 154.474 82.9001 154.474 82.5464V81.2585C154.474 80.462 154.217 80.0665 153.705 80.073C153.242 80.0666 152.995 80.3096 152.963 80.8008L152.94 81.2585V82.5464ZM157.131 79.4947L157.981 83.675H157.978L158.793 79.4947H160.21L161.114 83.6951H161.112L161.961 79.4947H162.898L161.776 84.3189H160.36L159.467 80.2358H159.469L158.643 84.3189H157.227L156.105 79.4947H157.131Z" fill="#1B1918"/>
<path fill-rule="evenodd" clip-rule="evenodd" d="M168.326 79.9311H190.38L185.637 73.0416L190.38 66.681H168.326V79.9311Z" fill="#FFCB00" stroke="white" stroke-width="4.35827"/>
<path fill-rule="evenodd" clip-rule="evenodd" d="M26.9312 79.9311H4.87817L9.62076 73.0416L4.87817 66.681H26.9312V79.9311Z" fill="#FFCB00" stroke="white" stroke-width="4.35827"/>
<path d="M26.1796 50.0949H169.059C172.873 50.0949 175.993 53.2341 175.993 57.0709V71.1851H19.2452V57.0709C19.2452 53.2341 22.3657 50.0949 26.1796 50.0949Z" fill="url(#paint2_linear_166_1178)" stroke="white" stroke-width="4.35827"/>
<path fill-rule="evenodd" clip-rule="evenodd" d="M19.2643 71.1851H26.9312V79.9311L19.2643 71.1851Z" fill="#1B1918"/>
<path fill-rule="evenodd" clip-rule="evenodd" d="M175.993 71.1851H168.326V79.9311L175.993 71.1851Z" fill="#1B1918"/>
<path fill-rule="evenodd" clip-rule="evenodd" d="M168.326 79.9311H190.38L185.637 73.0416L190.38 66.681H168.326V79.9311Z" fill="#F07C00"/>
<path fill-rule="evenodd" clip-rule="evenodd" d="M26.9312 79.9311H4.87817L9.62076 73.0416L4.87817 66.681H26.9312V79.9311Z" fill="#F07C00"/>
<path d="M26.1796 50.0949H169.059C172.873 50.0949 175.993 53.2341 175.993 57.0709V71.1851H19.2452V57.0709C19.2452 53.2341 22.3657 50.0949 26.1796 50.0949Z" fill="url(#paint3_linear_166_1178)"/>
<path fill-rule="evenodd" clip-rule="evenodd" d="M19.2643 71.1851H26.9312V79.9311L19.2643 71.1851Z" fill="#1B1918"/>
<path fill-rule="evenodd" clip-rule="evenodd" d="M175.993 71.1851H168.326V79.9311L175.993 71.1851Z" fill="#1B1918"/>
<path fill-rule="evenodd" clip-rule="evenodd" d="M40.3491 55.1063L38.7632 58.7566C38.6617 57.7193 38.384 56.923 37.9266 56.3739C37.4725 55.8248 36.8733 55.5506 36.1269 55.5506C35.0646 55.5506 34.237 56.0354 33.6464 57.0011C33.056 57.9672 32.7609 59.3224 32.7609 61.0612C32.7609 64.8939 34.1008 66.812 36.7778 66.812H38.1437V61.6575H36.0079C35.5451 61.6575 35.2119 61.627 35.0123 61.5691C34.8098 61.5082 34.6159 61.3795 34.4306 61.1796V60.932C34.6334 61.1118 34.8387 61.2303 35.0412 61.2847C35.2439 61.3422 35.574 61.3692 36.0339 61.3692H38.1437V60.8338H35.7882H35.4058C34.5638 60.8338 34.1411 60.4747 34.1411 59.7596C34.1411 59.482 34.211 59.2444 34.3528 59.0444C34.4943 58.8445 34.6654 58.7463 34.8618 58.7463C35.0094 58.7463 35.1396 58.8107 35.2497 58.9359C35.3598 59.0616 35.4147 59.2105 35.4147 59.3834C35.4147 59.675 35.3249 59.8445 35.1427 59.8917L34.9371 59.9393C34.8704 59.9595 34.8362 59.9934 34.8362 60.041C34.8362 60.1256 34.9285 60.1697 35.1167 60.1697H35.4058H41.0003L39.8312 61.5082V66.4053L40.9166 67.4966H36.5842H35.7273C35.0094 67.4966 34.4163 67.3949 33.9472 67.1878C33.4785 66.9849 33.004 66.6189 32.5235 66.0968C31.3861 64.8768 30.819 63.2466 30.819 61.1997C30.819 59.0887 31.3572 57.4417 32.4308 56.2551C33.3687 55.2152 34.4826 54.6965 35.7708 54.6965C36.3465 54.6965 37.0095 54.8153 37.753 55.0559C38.5172 55.2997 39.0206 55.4219 39.2637 55.4219C39.6197 55.4219 39.9813 55.3168 40.3491 55.1063ZM40.8556 55.7266L39.4056 59.065L39.203 58.9565L40.6617 55.6082L40.8556 55.7266ZM38.1437 57.2379L37.9904 57.1092C37.3481 56.5739 36.7575 56.3062 36.2281 56.3062C35.5826 56.3062 35.0269 56.5739 34.5581 57.1092C34.2195 57.5061 33.9732 58.0278 33.8259 58.6682C33.6752 59.3126 33.6003 60.1594 33.6003 61.21C33.6003 62.5486 33.713 63.5721 33.9386 64.277C34.1646 64.9853 34.5813 65.6258 35.1831 66.1951V66.304C34.5289 65.8463 34.0573 65.2023 33.7679 64.3722C33.4813 63.5417 33.3366 62.4164 33.3366 60.9934C33.3366 59.4241 33.5882 58.2041 34.0923 57.3331C34.5956 56.4622 35.3021 56.0282 36.2106 56.0282C37.0006 56.0282 37.6461 56.4112 38.1437 57.1808V57.2379ZM41.3649 60.7321L40.491 61.7557V66.4121L41.8975 68.31L38.5319 68.2795L35.4813 68.3199C35.2874 68.3199 35.1396 68.3135 35.0383 68.2998C34.6822 68.2522 34.3236 68.0724 33.9618 67.754H34.1411C34.5261 67.954 35.0501 68.0522 35.7184 68.0522L36.1411 68.0419H41.4227L40.2536 66.5237V61.6575L41.2291 60.5052L41.3649 60.7321ZM54.4464 51.2632L54.4984 51.3417L54.4143 51.4498C53.4013 52.6836 52.5679 53.9341 51.9109 55.2049C51.6564 55.6862 51.4771 56.0319 51.3698 56.2353L48.2152 62.1453V66.1749L49.445 67.4966H45.3152L46.5367 66.1749V62.1453L44.5021 58.482L44.0622 57.6549C43.6601 56.923 43.3301 56.3842 43.0724 56.0487C42.8147 55.7098 42.4357 55.31 41.9321 54.8454L41.8397 54.7574H46.1197L45.0692 56.0384L47.8941 61.0204L48.1632 60.5151L45.6452 56.0384L46.5367 55.0457L46.7163 55.2049L45.9432 56.0384L48.2905 60.2783L50.1918 56.7738C50.7386 55.754 51.0138 54.9913 51.0138 54.4901C51.0138 54.0663 50.7735 53.5815 50.2933 53.0393C51.937 52.5751 53.2886 52.0024 54.3448 51.3211L54.4464 51.2632ZM54.831 51.8603V52.2667L54.7469 52.3649C54.2725 52.8934 53.8643 53.4224 53.52 53.9543C53.1785 54.4829 52.672 55.3743 52.0008 56.6249L48.9303 62.2809V66.1749L50.4381 68.31H45.133L45.0286 68.0419H49.9893L48.7014 66.1749V62.2131L51.83 56.4352L52.322 55.5232C53.1988 53.8866 54.035 52.6665 54.831 51.8603ZM61.5886 54.7574L60.706 55.9303L62.098 60.2577L62.4367 60.0376L61.1809 56.1264L62.0806 54.917L62.3008 55.0251L61.4439 56.1877L62.6309 59.8883C62.7001 59.8308 62.7378 59.7934 62.7492 59.7802L63.0301 59.5018C63.2008 59.3426 63.3078 59.231 63.3513 59.1633C63.4988 59.9187 63.7248 60.5935 64.0314 61.1899C63.8664 61.1762 63.7477 61.1693 63.6753 61.1693C63.137 61.1693 62.7436 61.2676 62.4944 61.4675L64.0314 66.3443L65.3021 67.4966H61.0215L62.191 66.3443L61.2503 63.443C60.628 64.1788 60.1504 64.8768 59.8178 65.5408L59.621 65.4799C59.9564 64.833 60.4515 64.1079 61.1139 63.3045L61.1809 63.2062L61.0215 62.7691C60.3472 63.4263 59.7914 64.1856 59.3516 65.0531L59.1982 64.7652C58.9031 64.2161 58.5267 63.5893 58.0697 62.8875L57.9859 62.7691C57.5486 63.9008 57.3319 64.8227 57.3319 65.531C57.3319 65.9479 57.3922 66.3002 57.514 66.5881C57.6353 66.8763 57.9279 67.3576 58.3909 68.032C58.4312 68.0929 58.495 68.1848 58.5791 68.31H54.0005L53.8297 68.0419H58.1478L58.0027 67.8322C57.6299 67.3032 57.3836 66.8931 57.2677 66.5983C57.1522 66.304 57.0942 65.9578 57.0942 65.558C57.0942 64.8836 57.3287 63.8771 57.7977 62.5421L57.4271 62.0843C57.3518 62.2946 57.2592 62.6065 57.1465 63.0162L56.8656 64.0295C56.7121 64.5721 56.6368 65.0226 56.6368 65.3817C56.6368 65.7514 56.692 66.0595 56.799 66.304C56.9063 66.5511 57.1319 66.8832 57.4762 67.3066C57.5112 67.3473 57.5603 67.4117 57.6299 67.4966H53.3899C54.1972 67.005 54.8367 66.3478 55.3115 65.521C55.7834 64.6936 56.2493 63.4164 56.7121 61.6879L56.7469 61.5489C56.4489 61.2508 56.0148 61.0676 55.4505 61.0033C55.7599 60.4576 56.0002 59.8917 56.171 59.3018C56.2493 59.3902 56.2982 59.4408 56.3157 59.4614L56.6978 59.8784C56.8278 60.0239 56.9811 60.1731 57.1636 60.3254L57.3144 59.8883L57.2128 59.79C56.9323 59.4987 56.6949 59.265 56.501 59.0852L56.4258 59.014L56.5619 58.7973C56.86 59.0277 57.149 59.2954 57.4271 59.6001L58.5791 55.8892L57.6787 54.7574H61.5886ZM59.4934 57.9432L58.5616 60.8239C58.6137 60.8883 58.6397 60.929 58.6454 60.9423L58.9954 61.3997C59.1808 61.6369 59.4182 62.0067 59.7077 62.5112L59.7914 62.6609C60.0345 62.3014 60.3239 61.9488 60.6569 61.5962L59.4934 57.9432ZM59.1141 56.7909L57.7657 60.9629C58.1941 61.4781 58.5645 61.9895 58.8771 62.4911L59.2649 63.1281C59.2706 63.1352 59.2995 63.1758 59.3516 63.2572C59.4007 63.1959 59.4299 63.159 59.4357 63.1449L59.554 62.9789C59.5715 62.9518 59.6007 62.9081 59.647 62.8502C59.2506 62.1354 58.7901 61.488 58.2665 60.9119L59.3516 57.5567L59.1141 56.7909ZM64.0978 59.6412C64.2224 60.2375 64.5351 61.0543 65.0299 62.0946C64.9083 62.0745 64.8359 62.0638 64.8188 62.0638L64.1326 61.996C63.8232 61.9621 63.5944 61.9453 63.4557 61.9453C63.4322 61.9453 63.3744 61.9489 63.2849 61.9556L64.6997 66.3546L66.5926 68.31H61.6813L61.5223 68.0419H66.0225L64.4973 66.4627L62.9866 61.7862C63.1805 61.7287 63.4004 61.6979 63.6493 61.6979C63.9533 61.6979 64.2948 61.7287 64.6655 61.7862L64.5639 61.5657C64.2021 60.7862 63.959 60.0817 63.8346 59.4511L64.0978 59.6412ZM76.554 54.7574C75.9116 55.1473 75.4946 55.5065 75.3064 55.8283C75.0259 56.3335 74.884 57.0891 74.884 58.1024V58.7463V67.4966H73.4514L69.4491 58.4009V63.7922L69.4403 64.24L69.5415 65.67C69.6544 66.3307 69.9122 66.8218 70.3146 67.1372L70.3809 67.2084C69.6024 66.9038 69.2117 65.9274 69.2117 64.2804L69.2206 63.3448V57.9127L68.7601 56.872V62.5893C68.7601 64.4061 68.8617 65.5919 69.067 66.1547C69.2695 66.7172 69.7471 67.1307 70.4996 67.3881L71.2377 68.31H66.6417L66.5059 68.0419H70.7544L70.3146 67.4966H66.3612C67.0498 67.205 67.51 66.8154 67.7357 66.3238C67.9613 65.836 68.0743 64.9956 68.0743 63.8025V55.8587L66.9458 54.7574H71.2377L70.0337 55.6996L74.1375 65.0736V63.8806L70.6179 55.8587L71.8049 54.917L71.9671 55.1063L70.9163 55.9402L74.1375 63.3448V58.709V58.1804C74.1375 57.0315 74.0563 56.2623 73.8973 55.8724C73.7351 55.4863 73.3387 55.1135 72.705 54.7574H76.554ZM76.849 55.4927L76.699 55.7909C76.2616 55.9097 75.9665 56.1302 75.8132 56.4486C75.6567 56.7703 75.5787 57.313 75.5787 58.0719V68.31H73.7554L73.6453 68.0419H75.3499V58.1735C75.3499 57.2379 75.4543 56.5875 75.6599 56.2212C75.8652 55.8553 76.2616 55.6116 76.849 55.4927ZM93.9534 54.866C93.6615 55.3302 93.4241 55.8115 93.2504 56.3164C92.9058 57.3095 92.6773 57.9161 92.5643 58.1431L92.5208 58.201C92.498 58.1298 92.4805 58.0719 92.4691 58.035C92.3127 57.4379 92.1825 57.0247 92.0809 56.7909C91.9797 56.5605 91.8264 56.34 91.6237 56.1264C91.1086 55.591 90.5243 55.3233 89.867 55.3233C89.2621 55.3233 88.7617 55.5202 88.3592 55.9132C87.9568 56.3096 87.7572 56.8012 87.7572 57.3975C87.7572 58.5091 88.4722 59.268 89.9016 59.6712L91.3345 60.0783C93.3748 60.6541 94.3933 61.9149 94.3933 63.86C94.3933 64.948 94.0432 65.8596 93.3456 66.5949C92.6484 67.334 91.7859 67.703 90.7554 67.703C90.1133 67.703 89.3923 67.588 88.5934 67.3576L87.6039 67.0698C87.2015 66.9574 86.8718 66.9003 86.6112 66.9003C86.2669 66.9003 85.9108 67.029 85.5433 67.2864L85.4737 67.1474C86.1774 65.9106 86.6692 64.7313 86.9498 63.6129L87.1031 63.6635C87.2218 64.7008 87.5779 65.507 88.1711 66.0835C88.7642 66.6593 89.543 66.9476 90.5037 66.9476C91.2593 66.9476 91.8614 66.7407 92.3097 66.3307C92.7554 65.9209 92.9782 65.3684 92.9782 64.6738C92.9782 63.8738 92.6687 63.2126 92.0461 62.6909C91.5976 62.3182 90.683 61.9762 89.2999 61.6575C88.2319 61.4134 87.4563 61.0067 86.9758 60.4374C86.4953 59.8677 86.2551 59.0749 86.2551 58.0654C86.2551 57.0182 86.5763 56.1709 87.2189 55.5167C87.8584 54.866 88.695 54.5404 89.7223 54.5404C90.385 54.5404 91.1549 54.6794 92.0375 54.9573C92.4516 55.0899 92.7554 55.1542 92.9521 55.1542C93.2298 55.1542 93.5339 55.0419 93.8611 54.8187L93.9534 54.866ZM94.4803 55.2829L94.4022 55.4319C94.1704 55.8892 93.9738 56.3267 93.8087 56.7433C93.4152 57.7162 93.1895 58.2581 93.1403 58.3701L93.0971 58.4413L92.8944 58.343L92.929 58.2512C93.0911 57.8145 93.3282 57.2452 93.6408 56.5433L94.2168 55.2353L94.2603 55.1542L94.4803 55.2829ZM92.0032 57.2585C91.3806 56.4825 90.715 56.0963 90.0029 56.0963C89.5719 56.0963 89.2161 56.2418 88.9349 56.5335C88.6516 56.8248 88.5097 57.1942 88.5097 57.645C88.5097 58.1362 88.7963 58.6378 89.3662 59.1564L89.4357 59.2071L89.3923 59.2851C88.6458 58.8956 88.2723 58.3297 88.2723 57.5872C88.2723 57.0719 88.4316 56.6519 88.747 56.3267C89.0625 56.0015 89.4764 55.8385 89.986 55.8385C90.4719 55.8385 90.8972 55.9604 91.2621 56.2014C91.6268 56.4452 91.8928 56.7844 92.0635 57.2212L92.0032 57.2585ZM93.9534 61.1997C94.7233 61.881 95.1083 62.8162 95.1083 63.999C95.1083 65.2633 94.6887 66.334 93.8522 67.2118C93.0159 68.0896 92 68.5267 90.802 68.5267C90.191 68.5267 89.6385 68.4555 89.1466 68.31L87.7892 67.9235C87.4735 67.8322 87.1352 67.7849 86.7734 67.7849C86.449 67.7849 86.1539 67.8592 85.8819 68.0119L85.7806 67.7236C86.0729 67.5644 86.3741 67.4863 86.6778 67.4863C87.0193 67.4863 87.4043 67.5473 87.841 67.6661L89.1466 68.032C89.6674 68.1779 90.2143 68.2491 90.7934 68.2491C91.922 68.2491 92.8855 67.8253 93.6786 66.9814C94.4745 66.1376 94.8709 65.1174 94.8709 63.9214C94.8709 62.9081 94.564 62.02 93.9534 61.2611V61.1997ZM87.9165 64.0599C88.1247 65.2533 88.6864 66.0968 89.595 66.5914V66.673C88.5446 66.3139 87.9079 65.4597 87.6877 64.111L87.9165 64.0599ZM86.8575 60.8441L87.1466 61.0303C87.332 61.4202 87.8791 61.7458 88.7816 62.0032L90.1479 62.4031C91.074 62.6742 91.6906 62.9081 92 63.1011C92.3066 63.2976 92.5268 63.5927 92.6573 63.9891L92.5964 64.0295C92.3415 63.6875 92.0667 63.4332 91.7716 63.274C91.4732 63.1179 90.9032 62.9213 90.061 62.6909C88.8426 62.3589 88.0206 62.071 87.6039 61.83C87.1843 61.5897 86.9352 61.2611 86.8575 60.8441ZM103.475 54.7574L102.592 55.9303L103.984 60.2577L104.323 60.0376L103.067 56.1264L103.967 54.917L104.187 55.0251L103.33 56.1877L104.517 59.8883C104.586 59.8308 104.624 59.7934 104.635 59.7802L104.916 59.5018C105.087 59.3426 105.194 59.231 105.238 59.1633C105.385 59.9187 105.611 60.5935 105.917 61.1899C105.753 61.1762 105.634 61.1693 105.562 61.1693C105.023 61.1693 104.63 61.2676 104.381 61.4675L105.917 66.3443L107.188 67.4966H102.908L104.077 66.3443L103.136 63.443C102.514 64.1788 102.037 64.8768 101.704 65.5408L101.507 65.4799C101.843 64.833 102.338 64.1079 103 63.3045L103.067 63.2062L102.908 62.7691C102.233 63.4263 101.678 64.1856 101.238 65.0531L101.084 64.7652C100.789 64.2161 100.413 63.5893 99.956 62.8875L99.8719 62.7691C99.4346 63.9008 99.2179 64.8227 99.2179 65.531C99.2179 65.9479 99.2785 66.3002 99.4003 66.5881C99.5215 66.8763 99.8142 67.3576 100.277 68.032C100.318 68.0929 100.381 68.1848 100.465 68.31H95.8868L95.716 68.0419H100.034L99.889 67.8322C99.5162 67.3032 99.2699 66.8931 99.1541 66.5983C99.0382 66.304 98.9805 65.9578 98.9805 65.558C98.9805 64.8836 99.215 63.8771 99.6837 62.5421L99.3133 62.0843C99.2382 62.2946 99.1455 62.6065 99.0328 63.0162L98.7516 64.0295C98.5983 64.5721 98.5231 65.0226 98.5231 65.3817C98.5231 65.7514 98.5784 66.0595 98.6853 66.304C98.7925 66.5511 99.0182 66.8832 99.3622 67.3066C99.3972 67.3473 99.4467 67.4117 99.5162 67.4966H95.2762C96.0836 67.005 96.7231 66.3478 97.1978 65.521C97.6697 64.6936 98.1356 63.4164 98.5983 61.6879L98.6333 61.5489C98.3353 61.2508 97.9008 61.0676 97.3365 61.0033C97.6463 60.4576 97.8865 59.8917 98.0572 59.3018C98.1356 59.3902 98.1845 59.4408 98.2019 59.4614L98.5841 59.8784C98.7142 60.0239 98.8675 60.1731 99.0499 60.3254L99.2004 59.8883L99.0992 59.79C98.8186 59.4987 98.5809 59.265 98.3873 59.0852L98.3118 59.014L98.4479 58.7973C98.7462 59.0277 99.0354 59.2954 99.3133 59.6001L100.465 55.8892L99.565 54.7574H103.475ZM101.379 57.9432L100.448 60.8239C100.5 60.8883 100.526 60.929 100.532 60.9423L100.882 61.3997C101.067 61.6369 101.305 62.0067 101.594 62.5112L101.678 62.6609C101.921 62.3014 102.21 61.9488 102.543 61.5962L101.379 57.9432ZM101.001 56.7909L99.652 60.9629C100.08 61.4781 100.451 61.9895 100.763 62.4911L101.151 63.1281C101.157 63.1352 101.186 63.1758 101.238 63.2572C101.287 63.1959 101.316 63.159 101.322 63.1449L101.44 62.9789C101.458 62.9518 101.487 62.9081 101.533 62.8502C101.137 62.1354 100.676 61.488 100.153 60.9119L101.238 57.5567L101.001 56.7909ZM105.984 59.6412C106.109 60.2375 106.421 61.0543 106.916 62.0946C106.794 62.0745 106.722 62.0638 106.705 62.0638L106.019 61.996C105.709 61.9621 105.481 61.9453 105.342 61.9453C105.319 61.9453 105.26 61.9489 105.171 61.9556L106.586 66.3546L108.479 68.31H103.567L103.409 68.0419H107.909L106.383 66.4627L104.873 61.7862C105.067 61.7287 105.287 61.6979 105.536 61.6979C105.84 61.6979 106.181 61.7287 106.551 61.7862L106.45 61.5657C106.088 60.7862 105.845 60.0817 105.721 59.4511L105.984 59.6412ZM118.44 54.7574C117.798 55.1473 117.381 55.5065 117.193 55.8283C116.912 56.3335 116.77 57.0891 116.77 58.1024V58.7463V67.4966H115.338L111.335 58.4009V63.7922L111.327 64.24L111.428 65.67C111.541 66.3307 111.798 66.8218 112.201 67.1372L112.267 67.2084C111.489 66.9038 111.098 65.9274 111.098 64.2804L111.107 63.3448V57.9127L110.646 56.872V62.5893C110.646 64.4061 110.748 65.5919 110.953 66.1547C111.156 66.7172 111.633 67.1307 112.386 67.3881L113.124 68.31H108.528L108.392 68.0419H112.64L112.201 67.4966H108.247C108.936 67.205 109.396 66.8154 109.622 66.3238C109.848 65.836 109.96 64.9956 109.96 63.8025V55.8587L108.832 54.7574H113.124L111.92 55.6996L116.024 65.0736V63.8806L112.504 55.8587L113.691 54.917L113.853 55.1063L112.802 55.9402L116.024 63.3448V58.709V58.1804C116.024 57.0315 115.943 56.2623 115.784 55.8724C115.621 55.4863 115.225 55.1135 114.591 54.7574H118.44ZM118.735 55.4927L118.585 55.7909C118.148 55.9097 117.853 56.1302 117.7 56.4486C117.543 56.7703 117.465 57.313 117.465 58.0719V68.31H115.642L115.532 68.0419H117.236V58.1735C117.236 57.2379 117.341 56.5875 117.546 56.2212C117.751 55.8553 118.148 55.6116 118.735 55.4927ZM128.106 55.0659L128.014 55.2525C127.504 56.2928 127.065 57.3331 126.691 58.3701L126.616 58.5974L126.506 58.5296C126.376 57.5228 126.072 56.7265 125.597 56.1371C125.122 55.5472 124.55 55.2525 123.875 55.2525C123.158 55.2525 122.559 55.6184 122.078 56.3538C121.473 57.2688 121.172 58.8171 121.172 60.9999C121.172 62.8806 121.45 64.3551 122.009 65.4194C122.564 66.4867 123.337 67.0187 124.327 67.0187C125.117 67.0187 125.751 66.7103 126.222 66.09C126.694 65.47 126.975 64.5854 127.065 63.4332C127.088 63.1555 127.183 63.0162 127.354 63.0162C127.574 63.0162 127.684 63.2298 127.684 63.6601C127.684 64.3044 127.559 64.9685 127.311 65.6563C126.784 67.1136 125.699 67.842 124.055 67.842C122.584 67.842 121.418 67.2389 120.553 66.029C119.687 64.8227 119.256 63.1894 119.256 61.132C119.256 59.231 119.705 57.6382 120.605 56.3538C121.502 55.0693 122.619 54.4288 123.954 54.4288C124.587 54.4288 125.308 54.6116 126.115 54.9741C126.538 55.1676 126.888 55.2624 127.166 55.2624C127.467 55.2624 127.733 55.1676 127.97 54.9741L128.106 55.0659ZM125.649 56.7806C125.134 56.2962 124.648 56.0552 124.191 56.0552C122.726 56.0552 121.994 57.6922 121.994 60.9629C121.994 62.4503 122.165 63.691 122.503 64.6803C122.842 65.67 123.319 66.3104 123.936 66.6022V66.7004C123.268 66.5408 122.735 65.9407 122.338 64.9007C121.939 63.857 121.74 62.5386 121.74 60.9423C121.74 57.5194 122.541 55.808 124.147 55.808C124.691 55.808 125.189 56.0891 125.649 56.6519V56.7806ZM128.413 63.6026C128.32 65.2461 127.93 66.4933 127.238 67.3508C126.546 68.2084 125.577 68.6386 124.336 68.6386C123.389 68.6386 122.512 68.2963 121.696 67.615V67.5339C122.42 68.0929 123.293 68.3706 124.318 68.3706C125.435 68.3706 126.35 67.9509 127.056 67.1101C127.4 66.7004 127.655 66.2393 127.82 65.7274C127.982 65.2191 128.092 64.5447 128.15 63.7008L128.167 63.4739L128.413 63.6026ZM128.726 55.5403L128.633 55.73C128.017 56.9603 127.524 58.0821 127.157 59.0954L126.928 58.9667L127.021 58.7189C127.305 58.0243 127.554 57.4485 127.768 56.9908L128.445 55.5811L128.532 55.4013L128.726 55.5403ZM129.504 54.7574H133.49L132.338 56.0792V60.3662C132.468 60.3933 132.621 60.4138 132.795 60.4275V56.1774L133.718 55.1063L133.889 55.2829L133.015 56.2962V60.434L133.296 60.4644C133.73 60.512 134.152 60.5357 134.558 60.5357C135.148 60.5357 135.652 60.5017 136.077 60.434V55.8694L135.041 54.7574H138.959L137.79 56.0792V66.4254L138.818 67.4966H134.913L136.077 66.334V62.1251C135.602 62.2572 135.113 62.3216 134.61 62.3216C134.135 62.3216 133.643 62.2912 133.134 62.2336L133.015 62.2233V66.4254L134.416 68.31H130.031L129.811 68.0419H133.947L132.795 66.5644V61.996L133.041 62.0132C133.788 62.0779 134.326 62.1118 134.661 62.1118C135.203 62.1118 135.674 62.0269 136.077 61.8574V61.4979C135.544 61.5897 134.928 61.6369 134.219 61.6369C133.843 61.6369 133.565 61.627 133.388 61.6065L132.532 61.5185C132.5 61.512 132.433 61.5048 132.338 61.4979V66.4254L133.423 67.4966H129.504L130.642 66.334V61.996C130.167 61.996 129.788 62.2131 129.504 62.6502L129.328 62.552C129.655 62.0672 130.095 61.7996 130.642 61.7458V61.3795C130.008 61.3795 129.507 61.6609 129.14 62.2233L129.015 62.1251C129.348 61.1693 129.889 60.6069 130.642 60.434V55.9676L129.504 54.7574ZM139.315 55.3134L138.45 56.2962V66.422L139.857 68.31H135.457L135.246 68.0419H139.373L138.239 66.5443V56.198L139.179 55.1063L139.315 55.3134ZM148.059 54.7574L147.176 55.9303L148.568 60.2577L148.906 60.0376L147.65 56.1264L148.55 54.917L148.77 55.0251L147.914 56.1877L149.1 59.8883C149.17 59.8308 149.207 59.7934 149.219 59.7802L149.5 59.5018C149.67 59.3426 149.777 59.231 149.821 59.1633C149.969 59.9187 150.194 60.5935 150.501 61.1899C150.336 61.1762 150.217 61.1693 150.145 61.1693C149.607 61.1693 149.213 61.2676 148.964 61.4675L150.501 66.3443L151.772 67.4966H147.491L148.661 66.3443L147.72 63.443C147.098 64.1788 146.62 64.8768 146.287 65.5408L146.091 65.4799C146.426 64.833 146.921 64.1079 147.584 63.3045L147.65 63.2062L147.491 62.7691C146.817 63.4263 146.261 64.1856 145.821 65.0531L145.668 64.7652C145.373 64.2161 144.996 63.5893 144.539 62.8875L144.456 62.7691C144.018 63.9008 143.801 64.8227 143.801 65.531C143.801 65.9479 143.862 66.3002 143.984 66.5881C144.105 66.8763 144.397 67.3576 144.86 68.032C144.901 68.0929 144.965 68.1848 145.049 68.31H140.47L140.299 68.0419H144.617L144.473 67.8322C144.099 67.3032 143.853 66.8931 143.738 66.5983C143.622 66.304 143.564 65.9578 143.564 65.558C143.564 64.8836 143.798 63.8771 144.267 62.5421L143.897 62.0843C143.821 62.2946 143.729 62.6065 143.616 63.0162L143.335 64.0295C143.182 64.5721 143.106 65.0226 143.106 65.3817C143.106 65.7514 143.162 66.0595 143.269 66.304C143.376 66.5511 143.602 66.8832 143.946 67.3066C143.981 67.3473 144.03 67.4117 144.099 67.4966H139.859C140.667 67.005 141.307 66.3478 141.781 65.521C142.253 64.6936 142.719 63.4164 143.182 61.6879L143.217 61.5489C142.919 61.2508 142.484 61.0676 141.92 61.0033C142.23 60.4576 142.47 59.8917 142.641 59.3018C142.719 59.3902 142.768 59.4408 142.785 59.4614L143.167 59.8784C143.298 60.0239 143.451 60.1731 143.633 60.3254L143.784 59.8883L143.683 59.79C143.402 59.4987 143.164 59.265 142.971 59.0852L142.895 59.014L143.031 58.7973C143.329 59.0277 143.619 59.2954 143.897 59.6001L145.049 55.8892L144.149 54.7574H148.059ZM145.963 57.9432L145.031 60.8239C145.083 60.8883 145.11 60.929 145.115 60.9423L145.465 61.3997C145.65 61.6369 145.888 62.0067 146.177 62.5112L146.261 62.6609C146.504 62.3014 146.794 61.9488 147.127 61.5962L145.963 57.9432ZM145.584 56.7909L144.235 60.9629C144.664 61.4781 145.034 61.9895 145.347 62.4911L145.734 63.1281C145.74 63.1352 145.769 63.1758 145.821 63.2572C145.871 63.1959 145.9 63.159 145.905 63.1449L146.024 62.9789C146.041 62.9518 146.07 62.9081 146.117 62.8502C145.72 62.1354 145.26 61.488 144.736 60.9119L145.821 57.5567L145.584 56.7909ZM150.567 59.6412C150.692 60.2375 151.005 61.0543 151.499 62.0946C151.378 62.0745 151.306 62.0638 151.288 62.0638L150.602 61.996C150.293 61.9621 150.064 61.9453 149.925 61.9453C149.902 61.9453 149.844 61.9489 149.755 61.9556L151.17 66.3546L153.062 68.31H148.151L147.992 68.0419H152.492L150.967 66.4627L149.457 61.7862C149.65 61.7287 149.87 61.6979 150.119 61.6979C150.423 61.6979 150.764 61.7287 151.135 61.7862L151.034 61.5657C150.672 60.7862 150.429 60.0817 150.304 59.4511L150.567 59.6412ZM153.748 55.947C155.088 55.0419 156.529 54.5883 158.072 54.5883C159.27 54.5883 160.26 54.893 161.036 55.503C161.814 56.1096 162.202 56.8861 162.202 57.8244C162.202 58.594 161.947 59.2714 161.438 59.8647C160.928 60.4576 160.234 60.8844 159.351 61.1487C159.742 62.4099 160.271 63.6331 160.943 64.8258C161.611 66.0157 162.283 66.9308 162.957 67.5644L162.83 67.615C161.988 67.954 161.16 68.4285 160.353 69.0453L160.225 69.1436L160.184 68.8249C159.823 66.2629 159.316 64.0938 158.665 62.3113L158.631 62.2131C158.242 62.4267 157.719 62.5927 157.062 62.718L156.995 62.7283V66.4426L158.489 68.31H154.104L153.968 68.0419H158.005L156.775 66.5138V62.5112L156.955 62.4808C157.598 62.4031 158.138 62.2538 158.572 62.0333C158.538 61.9556 158.518 61.905 158.512 61.8845L158.428 61.5962C158.422 61.5764 158.408 61.5387 158.384 61.4781C158.034 61.5962 157.374 61.7253 156.402 61.8639L156.309 61.8845V66.3139L157.276 67.4966H153.528L154.631 66.3139V62.9789L154.564 62.9895C154.234 63.0741 153.939 63.1689 153.673 63.277L153.604 63.3045L153.528 63.1079C153.777 62.996 153.971 62.9179 154.113 62.8772L154.564 62.7485L154.631 62.7283V62.2131C154.298 62.2131 153.881 62.2976 153.384 62.4709L153.291 62.5112C153.302 62.4199 153.358 62.2032 153.462 61.8639C153.473 61.8406 153.511 61.6914 153.58 61.4202C153.586 61.3997 153.595 61.3692 153.604 61.3289C153.858 61.349 154.058 61.3593 154.2 61.3593C154.35 61.3593 154.492 61.349 154.622 61.3289V56.4452C154.362 56.2589 154.093 56.1032 153.818 55.9775L153.748 55.947ZM156.309 55.6893V61.0406C156.474 61.0406 156.628 61.0239 156.775 60.9934V56.1062C157.085 56.008 157.458 55.957 157.896 55.957C158.995 55.957 159.745 56.3808 160.141 57.2281C159.721 56.8316 159.354 56.5571 159.038 56.4078C158.723 56.2589 158.344 56.1843 157.901 56.1843C157.557 56.1843 157.256 56.2246 156.995 56.3062V60.9934L157.088 60.9728C158.202 60.7321 159.03 60.3593 159.568 59.8445C160.11 59.3327 160.379 58.6652 160.379 57.845C160.379 57.1092 160.136 56.503 159.649 56.0213C159.163 55.5438 158.55 55.3031 157.809 55.3031C157.215 55.3031 156.717 55.4318 156.309 55.6893ZM160.405 61.6472C160.76 63.0097 161.388 64.3448 162.294 65.6497C162.858 66.4627 163.573 67.195 164.439 67.842C163.145 68.2457 161.93 68.8622 160.792 69.6893L160.717 69.7502L160.546 69.591C161.626 68.7639 162.778 68.1539 163.999 67.7643C162.37 66.4933 161.09 64.4598 160.158 61.6674L160.106 61.4979C161.837 60.7291 162.702 59.5597 162.702 57.9839C162.702 57.3362 162.48 56.6283 162.031 55.8587C162.601 56.4691 162.888 57.2414 162.888 58.1838C162.888 59.7055 162.06 60.8612 160.405 61.6472Z" fill="#1B1918"/>
</g>
<defs>
<linearGradient id="paint0_linear_166_1178" x1="79.5529" y1="5.51032" x2="120.06" y2="5.51032" gradientUnits="userSpaceOnUse">
<stop stop-color="white"/>
<stop offset="0.26" stop-color="#FFEC00"/>
<stop offset="0.38" stop-color="#E74013"/>
<stop offset="0.48" stop-color="#FFEC00"/>
<stop offset="1" stop-color="#FFEC00"/>
</linearGradient>
<radialGradient id="paint1_radial_166_1178" cx="0" cy="0" r="1" gradientUnits="userSpaceOnUse" gradientTransform="translate(99.8062 25.8854) scale(26.7376 26.8983)">
<stop stop-color="#009EE0"/>
<stop offset="1" stop-color="#004394"/>
</radialGradient>
<linearGradient id="paint2_linear_166_1178" x1="19.2452" y1="50.0949" x2="19.2452" y2="71.1851" gradientUnits="userSpaceOnUse">
<stop stop-color="#FFCB00"/>
<stop offset="0.46" stop-color="#FFFCDB"/>
<stop offset="1" stop-color="#FFCB00"/>
</linearGradient>
<linearGradient id="paint3_linear_166_1178" x1="19.2452" y1="50.0949" x2="19.2452" y2="71.1851" gradientUnits="userSpaceOnUse">
<stop stop-color="#F8A600"/>
<stop offset="0.5" stop-color="#FFEC00"/>
<stop offset="1" stop-color="#F8A600"/>
</linearGradient>
<clipPath id="clip0_166_1178">
<rect width="195" height="90" fill="white"/>
</clipPath>
</defs>
</svg>
