<svg width="63" height="46" viewBox="0 0 63 46" fill="none" xmlns="http://www.w3.org/2000/svg">
<path d="M31.262 32.5258C47.623 32.5258 60.8863 28.1464 60.8863 22.7441C60.8863 17.3418 47.623 12.9624 31.262 12.9624C14.9009 12.9624 1.6377 17.3418 1.6377 22.7441C1.6377 28.1464 14.9009 32.5258 31.262 32.5258Z" stroke="#4D2C5E" stroke-opacity="0.1" stroke-width="3" stroke-miterlimit="10" stroke-linecap="round" stroke-linejoin="round"/>
<path d="M43.2422 27.843C51.7499 18.1089 53.2772 7.94049 46.6533 5.13129C40.0295 2.3221 27.763 7.9359 19.2552 17.6701C10.7475 27.4042 9.22025 37.5726 15.8441 40.3818C22.4679 43.191 34.7344 37.5772 43.2422 27.843Z" stroke="#4D2C5E" stroke-opacity="0.1" stroke-width="3" stroke-miterlimit="10" stroke-linecap="round" stroke-linejoin="round"/>
<path d="M46.6475 40.3773C53.2713 37.5681 51.7441 27.3997 43.2363 17.6655C34.7286 7.93135 22.462 2.31757 15.8382 5.12676C9.21439 7.93596 10.7416 18.1043 19.2494 27.8385C27.7571 37.5727 40.0236 43.1864 46.6475 40.3773Z" stroke="#4D2C5E" stroke-opacity="0.1" stroke-width="3" stroke-miterlimit="10" stroke-linecap="round" stroke-linejoin="round"/>
<path d="M31.2621 25.3335C33.3151 25.3335 34.9793 24.1742 34.9793 22.7442C34.9793 21.3141 33.3151 20.1548 31.2621 20.1548C29.2092 20.1548 27.5449 21.3141 27.5449 22.7442C27.5449 24.1742 29.2092 25.3335 31.2621 25.3335Z" stroke="#4D2C5E" stroke-opacity="0.1" stroke-width="3" stroke-miterlimit="10" stroke-linecap="round" stroke-linejoin="round"/>
</svg>
