<svg width="60" height="42" viewBox="0 0 60 42" fill="none" xmlns="http://www.w3.org/2000/svg">
<path d="M8.31985 12.2247C8.31985 13.6288 6.68262 14.7693 4.6669 14.7693C2.65117 14.7693 1.01392 13.6288 1.01392 12.2247C1.01392 10.8205 2.65117 9.68005 4.6669 9.68005C6.68262 9.68005 8.31985 10.8176 8.31985 12.2247Z" stroke="#4D2C5E" stroke-opacity="0.1" stroke-width="2" stroke-miterlimit="10" stroke-linecap="round" stroke-linejoin="round"/>
<path d="M43.7609 34.294C45.7784 34.294 47.4139 33.1547 47.4139 31.7493C47.4139 30.344 45.7784 29.2047 43.7609 29.2047C41.7434 29.2047 40.1079 30.344 40.1079 31.7493C40.1079 33.1547 41.7434 34.294 43.7609 34.294Z" stroke="#4D2C5E" stroke-opacity="0.1" stroke-width="2" stroke-miterlimit="10" stroke-linecap="round" stroke-linejoin="round"/>
<path d="M30.008 26.5179C34.3107 26.5179 37.7987 24.0881 37.7987 21.0909C37.7987 18.0937 34.3107 15.6639 30.008 15.6639C25.7053 15.6639 22.2173 18.0937 22.2173 21.0909C22.2173 24.0881 25.7053 26.5179 30.008 26.5179Z" stroke="#4D2C5E" stroke-opacity="0.1" stroke-width="2" stroke-miterlimit="10" stroke-linecap="round" stroke-linejoin="round"/>
<path d="M43.5823 21.0909L40.984 24.2546L39.6061 27.7768L34.5541 28.7336L30.0081 30.5466L25.462 28.7336L20.4057 27.7768L19.0321 24.2546L16.4296 21.0909L19.0321 17.9242L20.4057 14.402L25.462 13.4451L30.0081 11.6322L34.5541 13.4451L39.6061 14.402L40.984 17.9242L43.5823 21.0909Z" stroke="#4D2C5E" stroke-opacity="0.1" stroke-width="2" stroke-miterlimit="10" stroke-linecap="round" stroke-linejoin="round"/>
<path d="M40.1078 31.7494C40.1078 30.3452 41.7451 29.2047 43.7608 29.2047C44.8495 29.2047 45.8276 29.5395 46.4952 30.0668C49.2764 27.5903 50.9392 24.4769 50.9392 21.088C50.9392 13.0335 41.5665 6.50452 30.0037 6.50452C18.4409 6.50452 9.06824 13.0335 9.06824 21.088C9.06824 29.1425 18.4409 35.6715 30.0037 35.6715C34.0692 35.6715 37.8582 34.8628 41.0689 33.4675C40.4778 33.0143 40.1078 32.4129 40.1078 31.7494Z" stroke="#4D2C5E" stroke-opacity="0.1" stroke-width="2" stroke-miterlimit="10" stroke-linecap="round" stroke-linejoin="round"/>
<path d="M30.008 1.35596C20.2398 1.35596 11.6241 4.80113 6.53373 10.0415C7.60113 10.4858 8.31979 11.2975 8.31979 12.2277C8.31979 13.6318 6.68256 14.7723 4.66684 14.7723C4.16929 14.7723 3.69726 14.7012 3.26775 14.5768C2.24288 16.6178 1.68152 18.807 1.68152 21.0909C1.68152 31.9893 14.367 40.8258 30.0122 40.8258C45.6575 40.8258 58.3429 31.9893 58.3429 21.0909C58.3429 10.1925 45.6532 1.35596 30.008 1.35596Z" stroke="#4D2C5E" stroke-opacity="0.1" stroke-width="2" stroke-miterlimit="10" stroke-linecap="round" stroke-linejoin="round"/>
</svg>
