<svg width="82" height="52" viewBox="0 0 82 52" fill="none" xmlns="http://www.w3.org/2000/svg">
<path d="M59.9031 47.8471L7.71028 36.9865C3.91427 36.1975 1.75966 33.4146 2.89227 30.7703L13.3158 6.45416C14.4484 3.80989 18.4435 2.30901 22.2395 3.09797L74.4323 13.9586C78.2283 14.7475 80.3829 17.5305 79.2503 20.1747L68.8268 44.4909C67.6898 47.1321 63.6947 48.636 59.9031 47.8471Z" stroke="#4D2C5E" stroke-opacity="0.1" stroke-width="4" stroke-miterlimit="10" stroke-linecap="round"/>
<path d="M4.12219 27.8949L70.0567 41.6155" stroke="#4D2C5E" stroke-opacity="0.1" stroke-width="4" stroke-miterlimit="10" stroke-linecap="round"/>
<path d="M37.251 38.7402C36.9678 39.3997 35.9679 39.7757 35.0212 39.5784C34.0744 39.3812 33.5346 38.6847 33.8178 38.0252C34.1009 37.3656 35.1008 36.9896 36.0476 37.1869C36.9944 37.3841 37.5341 38.0806 37.251 38.7402Z" fill="#4D2C5E" fill-opacity="0.5"/>
<path d="M41.2036 43.9597L26.4211 40.884L24.4294 45.5292L39.2119 48.6049L41.2036 43.9597Z" stroke="#4D2C5E" stroke-opacity="0.1" stroke-width="4" stroke-miterlimit="10" stroke-linecap="round"/>
<path d="M18.9479 44.6543L44.4669 49.9644" stroke="#4D2C5E" stroke-opacity="0.1" stroke-width="4" stroke-miterlimit="10" stroke-linecap="round"/>
</svg>
