<svg width="70" height="66" viewBox="0 0 70 66" fill="none" xmlns="http://www.w3.org/2000/svg">
<path d="M30.6595 7.69118L7.1064 15.3982C5.84691 15.8132 4.34613 15.435 3.75032 14.5576L2.24196 12.3196C1.64615 11.4422 2.18915 10.3968 3.44863 9.98174L27.0017 2.27474C28.2612 1.85971 29.7621 2.23797 30.3579 3.11532L31.8663 5.35334C32.4621 6.23594 31.919 7.2814 30.6595 7.69118Z" stroke="#4D2C5E" stroke-opacity="0.1" stroke-width="4" stroke-miterlimit="10" stroke-linecap="round"/>
<path d="M39.8077 25.196L28.2839 8.47913L9.64044 14.7151L21.1644 31.432L28.4347 59.402C30.8255 62.8746 36.8061 64.3351 41.7837 62.6698L61.9129 55.9347C66.898 54.2693 68.9946 50.1032 66.6039 46.6358L39.8077 25.196Z" stroke="#4D2C5E" stroke-opacity="0.1" stroke-width="4" stroke-miterlimit="10" stroke-linecap="round"/>
<path d="M24.4375 44.0459C24.4375 44.0459 28.2839 39.7065 38.5106 39.9534C48.7373 40.2003 50.4568 33.7122 50.4568 33.7122" stroke="#4D2C5E" stroke-opacity="0.1" stroke-width="4" stroke-miterlimit="10" stroke-linecap="round"/>
</svg>
