<svg width="72" height="52" viewBox="0 0 72 52" fill="none" xmlns="http://www.w3.org/2000/svg">
<path d="M34.7758 42.6838L17.1988 38.5254C15.3414 38.0871 14.3499 36.6811 14.979 35.3872C15.6082 34.0934 17.6267 33.4027 19.479 33.841L37.0559 37.9994C38.9133 38.4377 39.9049 39.8437 39.2757 41.1341C38.6465 42.4314 36.6331 43.1256 34.7758 42.6838Z" stroke="#4D2C5E" stroke-opacity="0.1" stroke-width="3" stroke-miterlimit="10"/>
<path d="M32.4654 47.4244L14.8884 43.2659C13.031 42.8276 12.0394 41.4216 12.6686 40.1313C13.2978 38.8375 15.3162 38.1467 17.1736 38.585L34.7506 42.74C36.6079 43.1782 37.5995 44.5843 36.9703 45.8781C36.3361 47.1719 34.3227 47.8626 32.4654 47.4244Z" stroke="#4D2C5E" stroke-opacity="0.1" stroke-width="3" stroke-miterlimit="10"/>
<path d="M16.8413 21.0535C16.8615 21.0956 16.8766 21.1342 16.8967 21.1762C17.2893 22.0493 19.6047 27.5822 18.6383 33.7217L37.4937 38.0555C41.9635 32.7225 48.5523 29.2407 49.6144 28.7007C49.6647 28.6762 49.7151 28.6517 49.7604 28.6271C50.2738 28.3712 50.7721 28.0977 51.2553 27.8066C54.0942 26.0991 56.3291 23.8515 57.5874 21.1938C61.2971 13.3677 55.1966 4.92807 43.9618 2.34394C32.727 -0.240202 20.6114 4.00943 16.9017 11.8355C15.6383 14.4967 15.5125 17.2282 16.338 19.7772C16.4789 20.205 16.645 20.6328 16.8413 21.0535Z" stroke="#4D2C5E" stroke-opacity="0.1" stroke-width="3" stroke-miterlimit="10"/>
<path d="M15.8498 43.5535C15.6384 46.1481 17.9336 48.62 21.6484 49.4756C25.3127 50.3171 29.2137 49.3178 31.2875 47.2035L15.8498 43.5535Z" stroke="#4D2C5E" stroke-opacity="0.1" stroke-width="3" stroke-miterlimit="10"/>
<path d="M24.5426 35.0087L30.1449 23.182C30.6986 22.0179 29.7875 20.7626 28.1164 20.3769C26.4453 19.9913 24.6433 20.6259 24.0896 21.79C23.5359 22.9541 24.447 24.2093 26.1181 24.595L32.8428 26.1413" stroke="#4D2C5E" stroke-opacity="0.1" stroke-width="3" stroke-miterlimit="10"/>
<path d="M31.9318 36.7092L37.534 24.8825C38.0877 23.7184 39.8897 23.0873 41.5608 23.4695C43.232 23.8552 44.138 25.1104 43.5894 26.2745C43.0357 27.4386 41.2337 28.0697 39.5626 27.6876L32.8378 26.1413" stroke="#4D2C5E" stroke-opacity="0.1" stroke-width="3" stroke-miterlimit="10"/>
<path d="M61.5691 25.2682L67.2469 26.576" stroke="#4D2C5E" stroke-opacity="0.1" stroke-width="3" stroke-miterlimit="10" stroke-linecap="round"/>
<path d="M64.1714 20.2853L70.0857 19.6652" stroke="#4D2C5E" stroke-opacity="0.1" stroke-width="3" stroke-miterlimit="10" stroke-linecap="round"/>
<path d="M57.5977 29.5422L61.8157 32.4945" stroke="#4D2C5E" stroke-opacity="0.1" stroke-width="3" stroke-miterlimit="10" stroke-linecap="round"/>
<path d="M8.83292 13.1435L3.15515 11.8391" stroke="#4D2C5E" stroke-opacity="0.1" stroke-width="3" stroke-miterlimit="10" stroke-linecap="round"/>
<path d="M11.0025 8.05924L6.78442 5.10693" stroke="#4D2C5E" stroke-opacity="0.1" stroke-width="3" stroke-miterlimit="10" stroke-linecap="round"/>
<path d="M8.37489 18.224L2.46558 18.8441" stroke="#4D2C5E" stroke-opacity="0.1" stroke-width="3" stroke-miterlimit="10" stroke-linecap="round"/>
</svg>
