<svg width="72" height="63" viewBox="0 0 72 63" fill="none" xmlns="http://www.w3.org/2000/svg">
<path d="M59.683 56.4578L35.2214 60.3915L34.1215 57.0701C33.8689 56.3002 34.5531 55.534 35.6583 55.3544L56.1201 52.0623C57.2253 51.8863 58.3252 52.3629 58.5831 53.1328L59.683 56.4578Z" stroke="#4D2C5E" stroke-opacity="0.1" stroke-width="3" stroke-miterlimit="10" stroke-linecap="round"/>
<path d="M51.6429 38.5963C62.4249 32.5405 64.1181 21.5426 55.4245 14.0319C46.731 6.52119 30.9429 5.34179 20.1608 11.3976C9.37874 17.4535 7.68569 28.4513 16.3792 35.962C25.0727 43.4727 40.8608 44.6521 51.6429 38.5963Z" stroke="#4D2C5E" stroke-opacity="0.1" stroke-width="3" stroke-miterlimit="10"/>
<path d="M47.5734 40.4519L24.1855 9.54722L21.2647 5.79688C6.01829 11.3949 0.17654 24.5413 8.21285 35.1618C16.2492 45.7823 35.1216 49.8516 50.368 44.2535L47.5103 40.4775" stroke="#4D2C5E" stroke-opacity="0.1" stroke-width="3" stroke-miterlimit="10" stroke-linecap="round" stroke-linejoin="round"/>
<path d="M29.3401 16.319C36.997 13.5068 42.0536 9.70694 40.6342 7.83172C39.2149 5.95649 31.8571 6.71604 24.2002 9.52822C16.5433 12.3404 11.4868 16.1403 12.9061 18.0155C14.3255 19.8907 21.6832 19.1312 29.3401 16.319Z" stroke="#4D2C5E" stroke-opacity="0.1" stroke-width="3" stroke-miterlimit="10"/>
<path d="M31.1377 42.1493C36.5426 42.8751 42.3265 42.3802 47.5735 40.4519C52.8205 38.5236 56.6782 35.4808 58.8727 31.965C53.4678 31.2392 47.684 31.7341 42.437 33.6624C37.1847 35.5908 33.3323 38.6335 31.1377 42.1493Z" stroke="#4D2C5E" stroke-opacity="0.1" stroke-width="3" stroke-miterlimit="10"/>
<path d="M47.5928 40.4329C53.7173 38.1836 53.4457 29.4416 46.9861 20.9073C40.5266 12.373 30.3251 7.27803 24.2007 9.5274C18.0762 11.7768 18.3478 20.5187 24.8074 29.053C31.2669 37.5873 41.4683 42.6823 47.5928 40.4329Z" stroke="#4D2C5E" stroke-opacity="0.1" stroke-width="3" stroke-miterlimit="10"/>
<path d="M13.6968 33.1455L58.0622 16.8536" stroke="#4D2C5E" stroke-opacity="0.1" stroke-width="3" stroke-miterlimit="10"/>
<path d="M43.1633 46.1562L45.7526 53.679" stroke="#4D2C5E" stroke-opacity="0.1" stroke-width="3" stroke-miterlimit="10"/>
<path d="M32.2852 61.0917L63.4673 55.8823" stroke="#4D2C5E" stroke-opacity="0.1" stroke-width="3" stroke-miterlimit="10" stroke-linecap="round"/>
</svg>
