<svg width="26" height="30" viewBox="0 0 26 30" fill="none" xmlns="http://www.w3.org/2000/svg">
<path d="M21.0618 28.6099C19.4285 30.1828 17.6451 29.9344 15.9285 29.1894C14.1118 28.4278 12.4451 28.3947 10.5285 29.1894C8.12846 30.2159 6.8618 29.9179 5.42846 28.6099C-2.70487 20.2819 -1.50487 7.5995 7.72846 7.13592C9.97846 7.25181 11.5451 8.36111 12.8618 8.46045C14.8285 8.06309 16.7118 6.92068 18.8118 7.06969C21.3285 7.26837 23.2285 8.26177 24.4785 10.0499C19.2785 13.146 20.5118 19.9508 25.2785 21.8548C24.3285 24.3383 23.0951 26.8052 21.0451 28.6265L21.0618 28.6099ZM12.6951 7.03658C12.4451 3.34444 15.4618 0.29802 18.9285 0C19.4118 4.27162 15.0285 7.45049 12.6951 7.03658Z" fill="black"/>
</svg>
