<svg width="31" height="31" viewBox="0 0 31 31" fill="none" xmlns="http://www.w3.org/2000/svg">
<path d="M7.74935 28.4163C7.03893 28.4163 6.43056 28.1632 5.92423 27.6568C5.41789 27.1505 5.16516 26.5426 5.16602 25.833V5.16634C5.16602 4.45593 5.41918 3.84755 5.92552 3.34122C6.43185 2.83488 7.0398 2.58215 7.74935 2.58301H23.2494C23.9598 2.58301 24.5681 2.83618 25.0745 3.34251C25.5808 3.84884 25.8335 4.45679 25.8327 5.16634V25.833C25.8327 26.5434 25.5795 27.1518 25.0732 27.6581C24.5669 28.1645 23.9589 28.4172 23.2494 28.4163H7.74935ZM7.74935 25.833H23.2494V5.16634H20.666V14.208L17.4369 12.2705L14.2077 14.208V5.16634H7.74935V25.833Z" fill="black"/>
</svg>
