<svg width="1440" height="900" viewBox="0 0 1440 703" fill="none" xmlns="http://www.w3.org/2000/svg">
<rect width="1440" height="606" rx="50" fill="#FBEFCE"/>
<path d="M904.32 453.225C904.32 454.629 902.683 455.769 900.667 455.769C898.651 455.769 897.014 454.629 897.014 453.225C897.014 451.821 898.651 450.68 900.667 450.68C902.683 450.68 904.32 451.818 904.32 453.225Z" stroke="#4D2C5E" stroke-opacity="0.1" stroke-width="2" stroke-miterlimit="10" stroke-linecap="round" stroke-linejoin="round"/>
<path d="M939.761 475.294C941.778 475.294 943.414 474.155 943.414 472.749C943.414 471.344 941.778 470.205 939.761 470.205C937.743 470.205 936.108 471.344 936.108 472.749C936.108 474.155 937.743 475.294 939.761 475.294Z" stroke="#4D2C5E" stroke-opacity="0.1" stroke-width="2" stroke-miterlimit="10" stroke-linecap="round" stroke-linejoin="round"/>
<path d="M926.008 467.518C930.311 467.518 933.799 465.088 933.799 462.091C933.799 459.094 930.311 456.664 926.008 456.664C921.705 456.664 918.217 459.094 918.217 462.091C918.217 465.088 921.705 467.518 926.008 467.518Z" stroke="#4D2C5E" stroke-opacity="0.1" stroke-width="2" stroke-miterlimit="10" stroke-linecap="round" stroke-linejoin="round"/>
<path d="M939.582 462.091L936.984 465.255L935.606 468.777L930.554 469.734L926.008 471.547L921.462 469.734L916.406 468.777L915.032 465.255L912.43 462.091L915.032 458.924L916.406 455.402L921.462 454.445L926.008 452.632L930.554 454.445L935.606 455.402L936.984 458.924L939.582 462.091Z" stroke="#4D2C5E" stroke-opacity="0.1" stroke-width="2" stroke-miterlimit="10" stroke-linecap="round" stroke-linejoin="round"/>
<path d="M936.108 472.749C936.108 471.345 937.745 470.205 939.761 470.205C940.849 470.205 941.828 470.539 942.495 471.067C945.276 468.59 946.939 465.477 946.939 462.088C946.939 454.033 937.566 447.505 926.004 447.505C914.441 447.505 905.068 454.033 905.068 462.088C905.068 470.143 914.441 476.671 926.004 476.671C930.069 476.671 933.858 475.863 937.069 474.468C936.478 474.014 936.108 473.413 936.108 472.749Z" stroke="#4D2C5E" stroke-opacity="0.1" stroke-width="2" stroke-miterlimit="10" stroke-linecap="round" stroke-linejoin="round"/>
<path d="M926.008 442.356C916.24 442.356 907.624 445.801 902.534 451.041C903.601 451.486 904.32 452.297 904.32 453.228C904.32 454.632 902.683 455.772 900.667 455.772C900.169 455.772 899.697 455.701 899.268 455.577C898.243 457.618 897.682 459.807 897.682 462.091C897.682 472.989 910.367 481.826 926.012 481.826C941.657 481.826 954.343 472.989 954.343 462.091C954.343 451.193 941.653 442.356 926.008 442.356Z" stroke="#4D2C5E" stroke-opacity="0.1" stroke-width="2" stroke-miterlimit="10" stroke-linecap="round" stroke-linejoin="round"/>
<path d="M1010.78 125.684L993.199 121.525C991.341 121.087 990.35 119.681 990.979 118.387C991.608 117.093 993.627 116.403 995.479 116.841L1013.06 120.999C1014.91 121.438 1015.9 122.844 1015.28 124.134C1014.65 125.431 1012.63 126.126 1010.78 125.684Z" stroke="#4D2C5E" stroke-opacity="0.1" stroke-width="3" stroke-miterlimit="10"/>
<path d="M1008.47 130.424L990.888 126.266C989.031 125.828 988.039 124.422 988.669 123.131C989.298 121.837 991.316 121.147 993.174 121.585L1010.75 125.74C1012.61 126.178 1013.6 127.584 1012.97 128.878C1012.34 130.172 1010.32 130.863 1008.47 130.424Z" stroke="#4D2C5E" stroke-opacity="0.1" stroke-width="3" stroke-miterlimit="10"/>
<path d="M992.841 104.054C992.861 104.096 992.877 104.134 992.897 104.176C993.289 105.049 995.605 110.582 994.638 116.722L1013.49 121.056C1017.96 115.722 1024.55 112.241 1025.61 111.701C1025.66 111.676 1025.72 111.652 1025.76 111.627C1026.27 111.371 1026.77 111.098 1027.26 110.807C1030.09 109.099 1032.33 106.852 1033.59 104.194C1037.3 96.3677 1031.2 87.9281 1019.96 85.3439C1008.73 82.7598 996.611 87.0094 992.902 94.8355C991.638 97.4967 991.512 100.228 992.338 102.777C992.479 103.205 992.645 103.633 992.841 104.054Z" stroke="#4D2C5E" stroke-opacity="0.1" stroke-width="3" stroke-miterlimit="10"/>
<path d="M991.85 126.553C991.638 129.148 993.934 131.62 997.648 132.476C1001.31 133.317 1005.21 132.318 1007.29 130.204L991.85 126.553Z" stroke="#4D2C5E" stroke-opacity="0.1" stroke-width="3" stroke-miterlimit="10"/>
<path d="M1000.54 118.009L1006.14 106.182C1006.7 105.018 1005.79 103.763 1004.12 103.377C1002.45 102.991 1000.64 103.626 1000.09 104.79C999.536 105.954 1000.45 107.209 1002.12 107.595L1008.84 109.141" stroke="#4D2C5E" stroke-opacity="0.1" stroke-width="3" stroke-miterlimit="10"/>
<path d="M1007.93 119.709L1013.53 107.883C1014.09 106.718 1015.89 106.087 1017.56 106.469C1019.23 106.855 1020.14 108.11 1019.59 109.275C1019.04 110.439 1017.23 111.07 1015.56 110.688L1008.84 109.141" stroke="#4D2C5E" stroke-opacity="0.1" stroke-width="3" stroke-miterlimit="10"/>
<path d="M1037.57 108.268L1043.25 109.576" stroke="#4D2C5E" stroke-opacity="0.1" stroke-width="3" stroke-miterlimit="10" stroke-linecap="round"/>
<path d="M1040.17 103.285L1046.09 102.665" stroke="#4D2C5E" stroke-opacity="0.1" stroke-width="3" stroke-miterlimit="10" stroke-linecap="round"/>
<path d="M1033.6 112.542L1037.82 115.495" stroke="#4D2C5E" stroke-opacity="0.1" stroke-width="3" stroke-miterlimit="10" stroke-linecap="round"/>
<path d="M984.833 96.1435L979.155 94.8391" stroke="#4D2C5E" stroke-opacity="0.1" stroke-width="3" stroke-miterlimit="10" stroke-linecap="round"/>
<path d="M987.002 91.0592L982.784 88.1069" stroke="#4D2C5E" stroke-opacity="0.1" stroke-width="3" stroke-miterlimit="10" stroke-linecap="round"/>
<path d="M984.375 101.224L978.466 101.844" stroke="#4D2C5E" stroke-opacity="0.1" stroke-width="3" stroke-miterlimit="10" stroke-linecap="round"/>
<path d="M832.903 166.847L780.71 155.986C776.914 155.198 774.76 152.415 775.892 149.77L786.316 125.454C787.448 122.81 791.443 121.309 795.239 122.098L847.432 132.959C851.228 133.748 853.383 136.53 852.25 139.175L841.827 163.491C840.69 166.132 836.695 167.636 832.903 166.847Z" stroke="#4D2C5E" stroke-opacity="0.1" stroke-width="4" stroke-miterlimit="10" stroke-linecap="round"/>
<path d="M777.122 146.895L843.057 160.615" stroke="#4D2C5E" stroke-opacity="0.1" stroke-width="4" stroke-miterlimit="10" stroke-linecap="round"/>
<path d="M810.251 157.74C809.968 158.4 808.968 158.776 808.021 158.578C807.074 158.381 806.535 157.685 806.818 157.025C807.101 156.366 808.101 155.99 809.048 156.187C809.994 156.384 810.534 157.081 810.251 157.74Z" fill="#4D2C5E" fill-opacity="0.5"/>
<path d="M814.204 162.96L799.421 159.884L797.429 164.529L812.212 167.605L814.204 162.96Z" stroke="#4D2C5E" stroke-opacity="0.1" stroke-width="4" stroke-miterlimit="10" stroke-linecap="round"/>
<path d="M791.948 163.654L817.467 168.964" stroke="#4D2C5E" stroke-opacity="0.1" stroke-width="4" stroke-miterlimit="10" stroke-linecap="round"/>
<path d="M1340.26 128.526C1356.62 128.526 1369.89 124.146 1369.89 118.744C1369.89 113.342 1356.62 108.962 1340.26 108.962C1323.9 108.962 1310.64 113.342 1310.64 118.744C1310.64 124.146 1323.9 128.526 1340.26 128.526Z" stroke="#4D2C5E" stroke-opacity="0.1" stroke-width="3" stroke-miterlimit="10" stroke-linecap="round" stroke-linejoin="round"/>
<path d="M1352.24 123.843C1360.75 114.109 1362.28 103.94 1355.65 101.131C1349.03 98.3221 1336.76 103.936 1328.26 113.67C1319.75 123.404 1318.22 133.573 1324.84 136.382C1331.47 139.191 1343.73 133.577 1352.24 123.843Z" stroke="#4D2C5E" stroke-opacity="0.1" stroke-width="3" stroke-miterlimit="10" stroke-linecap="round" stroke-linejoin="round"/>
<path d="M1355.65 136.377C1362.27 133.568 1360.74 123.4 1352.24 113.666C1343.73 103.931 1331.46 98.3176 1324.84 101.127C1318.21 103.936 1319.74 114.104 1328.25 123.839C1336.76 133.573 1349.02 139.186 1355.65 136.377Z" stroke="#4D2C5E" stroke-opacity="0.1" stroke-width="3" stroke-miterlimit="10" stroke-linecap="round" stroke-linejoin="round"/>
<path d="M1340.26 121.334C1342.32 121.334 1343.98 120.174 1343.98 118.744C1343.98 117.314 1342.32 116.155 1340.26 116.155C1338.21 116.155 1336.54 117.314 1336.54 118.744C1336.54 120.174 1338.21 121.334 1340.26 121.334Z" stroke="#4D2C5E" stroke-opacity="0.1" stroke-width="3" stroke-miterlimit="10" stroke-linecap="round" stroke-linejoin="round"/>
<path d="M1350.68 427.458L1326.22 431.391L1325.12 428.07C1324.87 427.3 1325.55 426.534 1326.66 426.354L1347.12 423.062C1348.23 422.886 1349.33 423.363 1349.58 424.133L1350.68 427.458Z" stroke="#4D2C5E" stroke-opacity="0.1" stroke-width="3" stroke-miterlimit="10" stroke-linecap="round"/>
<path d="M1342.64 409.596C1353.42 403.54 1355.12 392.543 1346.42 385.032C1337.73 377.521 1321.94 376.342 1311.16 382.398C1300.38 388.453 1298.69 399.451 1307.38 406.962C1316.07 414.473 1331.86 415.652 1342.64 409.596Z" stroke="#4D2C5E" stroke-opacity="0.1" stroke-width="3" stroke-miterlimit="10"/>
<path d="M1338.57 411.452L1315.19 380.547L1312.26 376.797C1297.02 382.395 1291.18 395.541 1299.21 406.162C1307.25 416.782 1326.12 420.852 1341.37 415.254L1338.51 411.478" stroke="#4D2C5E" stroke-opacity="0.1" stroke-width="3" stroke-miterlimit="10" stroke-linecap="round" stroke-linejoin="round"/>
<path d="M1320.34 387.319C1328 384.507 1333.05 380.707 1331.63 378.832C1330.21 376.956 1322.86 377.716 1315.2 380.528C1307.54 383.34 1302.49 387.14 1303.91 389.016C1305.33 390.891 1312.68 390.131 1320.34 387.319Z" stroke="#4D2C5E" stroke-opacity="0.1" stroke-width="3" stroke-miterlimit="10"/>
<path d="M1322.14 413.149C1327.54 413.875 1333.33 413.38 1338.57 411.452C1343.82 409.524 1347.68 406.481 1349.87 402.965C1344.47 402.239 1338.68 402.734 1333.44 404.662C1328.18 406.591 1324.33 409.634 1322.14 413.149Z" stroke="#4D2C5E" stroke-opacity="0.1" stroke-width="3" stroke-miterlimit="10"/>
<path d="M1338.59 411.433C1344.72 409.184 1344.45 400.442 1337.99 391.907C1331.53 383.373 1321.33 378.278 1315.2 380.527C1309.08 382.777 1309.35 391.519 1315.81 400.053C1322.27 408.587 1332.47 413.682 1338.59 411.433Z" stroke="#4D2C5E" stroke-opacity="0.1" stroke-width="3" stroke-miterlimit="10"/>
<path d="M1304.7 404.145L1349.06 387.854" stroke="#4D2C5E" stroke-opacity="0.1" stroke-width="3" stroke-miterlimit="10"/>
<path d="M1334.16 417.156L1336.75 424.679" stroke="#4D2C5E" stroke-opacity="0.1" stroke-width="3" stroke-miterlimit="10"/>
<path d="M1323.29 432.092L1354.47 426.882" stroke="#4D2C5E" stroke-opacity="0.1" stroke-width="3" stroke-miterlimit="10" stroke-linecap="round"/>
<path d="M1367.42 318.384L1380.47 309.293L1344.31 284.102L1331.26 293.193L1367.42 318.384Z" stroke="#4D2C5E" stroke-opacity="0.1" stroke-width="3" stroke-miterlimit="10" stroke-linecap="round" stroke-linejoin="round"/>
<path d="M1384 320.843L1380.47 309.291L1367.42 318.382L1384 320.843Z" stroke="#4D2C5E" stroke-opacity="0.1" stroke-width="3" stroke-miterlimit="10" stroke-linecap="round" stroke-linejoin="round"/>
<path d="M1382.35 315.453L1376.26 319.695" stroke="#4D2C5E" stroke-opacity="0.1" stroke-width="3" stroke-miterlimit="10" stroke-linecap="round" stroke-linejoin="round"/>
<path d="M1327.41 286.262L1334.35 281.428C1336.04 280.252 1338.77 280.252 1340.46 281.428L1344.3 284.101L1331.25 293.193L1327.41 290.52C1325.72 289.343 1325.72 287.434 1327.41 286.262Z" stroke="#4D2C5E" stroke-opacity="0.1" stroke-width="3" stroke-miterlimit="10" stroke-linecap="round" stroke-linejoin="round"/>
<path d="M1347.83 286.554L1334.78 295.65" stroke="#4D2C5E" stroke-opacity="0.1" stroke-width="3" stroke-miterlimit="10" stroke-linecap="round" stroke-linejoin="round"/>
<path d="M1373.94 313.837L1341.3 291.104" stroke="#4D2C5E" stroke-opacity="0.1" stroke-width="3" stroke-miterlimit="10" stroke-linecap="round" stroke-linejoin="round"/>
<path d="M347.223 428.28L344.846 432.093" stroke="#4D2C5E" stroke-opacity="0.1" stroke-width="4" stroke-miterlimit="10" stroke-linecap="round" stroke-linejoin="round"/>
<path d="M364.658 433.607L362.281 437.421" stroke="#4D2C5E" stroke-opacity="0.1" stroke-width="4" stroke-miterlimit="10" stroke-linecap="round" stroke-linejoin="round"/>
<path d="M382.098 438.932L379.72 442.746" stroke="#4D2C5E" stroke-opacity="0.1" stroke-width="4" stroke-miterlimit="10" stroke-linecap="round" stroke-linejoin="round"/>
<path d="M335.559 424.715L334.371 426.625" stroke="#4D2C5E" stroke-opacity="0.1" stroke-width="4" stroke-miterlimit="10" stroke-linecap="round" stroke-linejoin="round"/>
<path d="M341.394 426.501L340.206 428.404" stroke="#4D2C5E" stroke-opacity="0.1" stroke-width="4" stroke-miterlimit="10" stroke-linecap="round" stroke-linejoin="round"/>
<path d="M353.029 430.051L351.84 431.961" stroke="#4D2C5E" stroke-opacity="0.1" stroke-width="4" stroke-miterlimit="10" stroke-linecap="round" stroke-linejoin="round"/>
<path d="M358.859 431.833L357.675 433.74" stroke="#4D2C5E" stroke-opacity="0.1" stroke-width="4" stroke-miterlimit="10" stroke-linecap="round" stroke-linejoin="round"/>
<path d="M370.498 435.387L369.31 437.297" stroke="#4D2C5E" stroke-opacity="0.1" stroke-width="4" stroke-miterlimit="10" stroke-linecap="round" stroke-linejoin="round"/>
<path d="M388.22 440.802L387.036 442.708" stroke="#4D2C5E" stroke-opacity="0.1" stroke-width="4" stroke-miterlimit="10" stroke-linecap="round" stroke-linejoin="round"/>
<path d="M376.329 437.169L375.145 439.076" stroke="#4D2C5E" stroke-opacity="0.1" stroke-width="4" stroke-miterlimit="10" stroke-linecap="round" stroke-linejoin="round"/>
<path d="M378.544 471.298L320.745 420.075L395.991 443.292L378.544 471.298Z" stroke="#4D2C5E" stroke-opacity="0.1" stroke-width="4" stroke-miterlimit="10" stroke-linecap="round" stroke-linejoin="round"/>
<path d="M375.461 455.17L359.649 441.157L380.231 447.505L375.461 455.17Z" stroke="#4D2C5E" stroke-opacity="0.1" stroke-width="4" stroke-miterlimit="10" stroke-linecap="round" stroke-linejoin="round"/>
<path d="M518.998 96.1453L497.297 103.454L540.55 165.769L562.251 158.46L518.998 96.1453Z" stroke="#4D2C5E" stroke-opacity="0.1" stroke-width="4" stroke-miterlimit="10" stroke-linecap="round" stroke-linejoin="round"/>
<path d="M524.176 103.623L513.331 107.274" stroke="#4D2C5E" stroke-opacity="0.1" stroke-width="4" stroke-miterlimit="10" stroke-linecap="round" stroke-linejoin="round"/>
<path d="M534.199 118.06L523.346 121.716" stroke="#4D2C5E" stroke-opacity="0.1" stroke-width="4" stroke-miterlimit="10" stroke-linecap="round" stroke-linejoin="round"/>
<path d="M544.222 132.497L533.369 136.153" stroke="#4D2C5E" stroke-opacity="0.1" stroke-width="4" stroke-miterlimit="10" stroke-linecap="round" stroke-linejoin="round"/>
<path d="M554.237 146.939L543.392 150.59" stroke="#4D2C5E" stroke-opacity="0.1" stroke-width="4" stroke-miterlimit="10" stroke-linecap="round" stroke-linejoin="round"/>
<path d="M527.494 108.404L522.072 110.227" stroke="#4D2C5E" stroke-opacity="0.1" stroke-width="4" stroke-miterlimit="10" stroke-linecap="round" stroke-linejoin="round"/>
<path d="M530.843 113.232L525.42 115.06" stroke="#4D2C5E" stroke-opacity="0.1" stroke-width="4" stroke-miterlimit="10" stroke-linecap="round" stroke-linejoin="round"/>
<path d="M537.532 122.867L532.11 124.69" stroke="#4D2C5E" stroke-opacity="0.1" stroke-width="4" stroke-miterlimit="10" stroke-linecap="round" stroke-linejoin="round"/>
<path d="M540.881 127.695L535.458 129.523" stroke="#4D2C5E" stroke-opacity="0.1" stroke-width="4" stroke-miterlimit="10" stroke-linecap="round" stroke-linejoin="round"/>
<path d="M547.571 137.33L542.148 139.153" stroke="#4D2C5E" stroke-opacity="0.1" stroke-width="4" stroke-miterlimit="10" stroke-linecap="round" stroke-linejoin="round"/>
<path d="M550.927 142.158L545.497 143.986" stroke="#4D2C5E" stroke-opacity="0.1" stroke-width="4" stroke-miterlimit="10" stroke-linecap="round" stroke-linejoin="round"/>
<path d="M66.6595 411.691L43.1064 419.398C41.8469 419.813 40.3461 419.435 39.7503 418.558L38.242 416.32C37.6462 415.442 38.1891 414.397 39.4486 413.982L63.0017 406.275C64.2612 405.86 65.7621 406.238 66.3579 407.115L67.8663 409.353C68.4621 410.236 67.919 411.281 66.6595 411.691Z" stroke="#4D2C5E" stroke-opacity="0.1" stroke-width="4" stroke-miterlimit="10" stroke-linecap="round"/>
<path d="M75.8077 429.196L64.2839 412.479L45.6404 418.715L57.1644 435.432L64.4347 463.402C66.8255 466.875 72.8061 468.335 77.7837 466.67L97.9129 459.935C102.898 458.269 104.995 454.103 102.604 450.636L75.8077 429.196Z" stroke="#4D2C5E" stroke-opacity="0.1" stroke-width="4" stroke-miterlimit="10" stroke-linecap="round"/>
<path d="M60.4375 448.046C60.4375 448.046 64.2839 443.706 74.5106 443.953C84.7373 444.2 86.4568 437.712 86.4568 437.712" stroke="#4D2C5E" stroke-opacity="0.1" stroke-width="4" stroke-miterlimit="10" stroke-linecap="round"/>
<path d="M99.4508 141.305C108.398 141.305 115.651 136.253 115.651 130.02C115.651 123.788 108.398 118.736 99.4508 118.736C90.5039 118.736 83.251 123.788 83.251 130.02C83.251 136.253 90.5039 141.305 99.4508 141.305Z" stroke="#4D2C5E" stroke-opacity="0.1" stroke-width="4" stroke-miterlimit="10" stroke-linecap="round" stroke-linejoin="round"/>
<path d="M122.159 152.453C125.737 152.453 128.638 150.433 128.638 147.94C128.638 145.448 125.737 143.427 122.159 143.427C118.581 143.427 115.681 145.448 115.681 147.94C115.681 150.433 118.581 152.453 122.159 152.453Z" stroke="#4D2C5E" stroke-opacity="0.1" stroke-width="4" stroke-miterlimit="10" stroke-linecap="round" stroke-linejoin="round"/>
<ellipse cx="719.5" cy="605.618" rx="136.5" ry="97.3822" fill="#FBEFCE"/>
<ellipse cx="719.5" cy="616.22" rx="100.5" ry="71.4373" fill="#CC9B2B"/>
<path d="M724.186 665.417V680.698H714.21V678.449H721.392L721.392 674.258H714.865L714.865 672.075H721.392V667.665H714.21V665.417H724.186Z" fill="white"/>
<path d="M710.048 664.427L704.515 668.953L706.738 674.736L703.786 674.257L702.246 670.159L698.378 673.38L695.404 672.898L700.959 668.376L698.714 662.588L701.688 663.071L703.207 667.166L707.096 663.948L710.048 664.427Z" fill="white"/>
<path d="M698.352 657.711L689.585 670.651L687.231 669.845L687.811 668.463C687.211 668.748 686.541 668.949 685.799 669.066C685.045 669.179 684.234 669.086 683.366 668.79C682.402 668.46 681.68 667.96 681.201 667.291C680.721 666.622 680.502 665.857 680.543 664.995C680.584 664.134 680.91 663.251 681.522 662.348C682.135 661.444 682.902 660.712 683.824 660.152C684.738 659.604 685.713 659.255 686.747 659.104C687.774 658.966 688.769 659.062 689.733 659.392C690.504 659.656 691.093 660.013 691.5 660.464C691.907 660.915 692.134 661.431 692.182 662.011L695.708 656.806L698.352 657.711ZM688.919 661.607C688.079 661.319 687.217 661.328 686.331 661.634C685.446 661.939 684.738 662.483 684.207 663.267C683.677 664.05 683.515 664.789 683.723 665.483C683.931 666.178 684.455 666.669 685.295 666.956C686.149 667.248 687.022 667.236 687.916 666.918C688.788 666.608 689.489 666.062 690.019 665.278C690.55 664.495 690.718 663.759 690.524 663.069C690.308 662.386 689.773 661.899 688.919 661.607Z" fill="white"/>
<path d="M680.134 654.707L668.401 665.166L665.971 663.788L677.704 653.329L680.134 654.707Z" fill="white"/>
<path d="M668.321 645.419C669.104 646.117 669.601 646.864 669.813 647.663C670.015 648.452 669.933 649.219 669.568 649.964C669.179 650.707 668.498 651.355 667.523 651.908C666.548 652.46 665.509 652.78 664.405 652.867C663.289 652.961 662.212 652.851 661.175 652.536C660.127 652.211 659.212 651.7 658.43 651.003C657.658 650.315 657.172 649.577 656.971 648.788C656.758 647.99 656.846 647.219 657.235 646.476C657.6 645.731 658.27 645.082 659.245 644.529C660.219 643.976 661.265 643.653 662.381 643.559C663.474 643.462 664.545 643.576 665.592 643.901C666.64 644.226 667.55 644.732 668.321 645.419ZM666.213 646.614C665.67 646.13 664.963 645.842 664.093 645.749C663.21 645.663 662.3 645.886 661.363 646.417C660.426 646.948 659.924 647.526 659.858 648.15C659.779 648.781 660.005 649.333 660.538 649.808C661.092 650.302 661.81 650.591 662.693 650.677C663.553 650.76 664.451 650.536 665.388 650.005C666.325 649.474 666.838 648.898 666.928 648.276C666.995 647.652 666.757 647.098 666.213 646.614Z" fill="white"/>
<path d="M661.75 638.872L651.506 642.379L650.11 640.318L651.884 639.444C651.003 639.345 650.182 639.084 649.421 638.662C648.638 638.232 647.989 637.638 647.475 636.879L650.263 635.924L650.704 636.575C651.047 637.081 651.442 637.502 651.891 637.839C652.339 638.175 652.861 638.382 653.457 638.46C654.044 638.526 654.731 638.425 655.515 638.156L660.183 636.559L661.75 638.872Z" fill="white"/>
<path d="M656.05 626.62C656.384 627.659 656.45 628.618 656.249 629.496C656.047 630.375 655.603 631.11 654.917 631.702C654.23 632.295 653.341 632.68 652.249 632.857C651.143 633.036 650.088 632.974 649.084 632.671C648.075 632.353 647.207 631.838 646.479 631.125C645.733 630.401 645.186 629.498 644.839 628.417C644.514 627.406 644.457 626.475 644.667 625.624C644.878 624.774 645.316 624.068 645.983 623.508C646.631 622.937 647.443 622.572 648.42 622.413C648.578 622.388 648.745 622.368 648.922 622.354C649.095 622.326 649.276 622.303 649.468 622.287L651.984 630.123C652.799 629.932 653.364 629.549 653.678 628.973C653.987 628.384 654.026 627.729 653.795 627.008C653.621 626.468 653.354 626.037 652.994 625.717C652.616 625.384 652.196 625.161 651.736 625.046L650.869 622.344C651.606 622.428 652.328 622.654 653.036 623.02C653.724 623.375 654.333 623.859 654.862 624.473C655.387 625.073 655.784 625.789 656.05 626.62ZM647.08 628.054C647.289 628.705 647.668 629.249 648.216 629.684C648.749 630.123 649.426 630.348 650.246 630.361L648.598 625.227C647.907 625.383 647.427 625.723 647.157 626.248C646.888 626.773 646.862 627.375 647.08 628.054Z" fill="white"/>
<path d="M653.487 614.377L638.404 611.93L639.418 608.77L650.474 605.688L642.375 599.563L643.389 596.404L658.473 598.851L657.619 601.511L647.211 599.823L654.162 605.215L653.488 607.314L643.934 610.028L654.342 611.716L653.487 614.377Z" fill="white"/>
<path d="M661.091 596.414C660.504 597.282 659.746 597.987 658.818 598.53C657.899 599.061 656.901 599.395 655.825 599.531C654.743 599.651 653.672 599.529 652.612 599.166C651.551 598.803 650.761 598.28 650.24 597.597C649.705 596.91 649.443 596.145 649.454 595.302C649.473 594.448 649.776 593.587 650.364 592.72C650.944 591.864 651.693 591.171 652.613 590.64C653.541 590.096 654.545 589.765 655.627 589.645C656.703 589.509 657.771 589.623 658.832 589.985C659.892 590.348 660.689 590.874 661.224 591.561C661.753 592.232 662.008 592.995 661.989 593.849C661.97 594.704 661.671 595.559 661.091 596.414ZM658.799 595.629C659.207 595.027 659.307 594.416 659.1 593.795C658.879 593.171 658.259 592.684 657.24 592.335C656.221 591.986 655.306 591.947 654.494 592.219C653.669 592.486 653.057 592.914 652.657 593.504C652.24 594.119 652.143 594.739 652.364 595.363C652.579 595.972 653.197 596.45 654.216 596.799C655.234 597.148 656.152 597.195 656.97 596.94C657.781 596.669 658.391 596.232 658.799 595.629Z" fill="white"/>
<path d="M666.963 589.321L657.543 583.981L659.401 582.326L661.363 583.152C661.048 582.546 660.964 581.92 661.109 581.274C661.253 580.611 661.666 579.974 662.351 579.364L664.915 580.817L664.328 581.34C663.872 581.747 663.547 582.157 663.353 582.569C663.159 582.982 663.161 583.396 663.36 583.809C663.569 584.213 664.035 584.62 664.757 585.029L669.049 587.462L666.963 589.321Z" fill="white"/>
<path d="M679.168 579.988C678.219 580.526 677.203 580.848 676.121 580.955C675.039 581.061 673.974 580.952 672.926 580.627C671.878 580.302 670.942 579.772 670.116 579.036C669.279 578.29 668.738 577.512 668.491 576.701C668.257 575.883 668.322 575.11 668.685 574.382C669.05 573.636 669.726 572.984 670.714 572.424C671.638 571.9 672.628 571.592 673.685 571.5C674.741 571.408 675.77 571.522 676.771 571.841C677.774 572.144 678.644 572.625 679.383 573.284C679.503 573.39 679.621 573.505 679.739 573.628C679.869 573.745 679.999 573.869 680.127 574.002L672.968 578.061C673.649 578.594 674.396 578.891 675.21 578.952C676.037 579.006 676.78 578.846 677.438 578.473C677.932 578.193 678.251 577.878 678.396 577.527C678.542 577.158 678.545 576.792 678.406 576.428L680.875 575.028C681.208 575.584 681.378 576.169 681.383 576.783C681.391 577.381 681.211 577.959 680.842 578.516C680.486 579.067 679.928 579.557 679.168 579.988ZM672.408 573.934C671.813 574.272 671.435 574.7 671.272 575.22C671.099 575.73 671.242 576.283 671.702 576.877L676.393 574.218C675.823 573.765 675.171 573.517 674.438 573.473C673.705 573.429 673.029 573.583 672.408 573.934Z" fill="white"/>
<path d="M698.963 566.073L698.249 563.849L707.278 562.384L707.992 564.608L698.963 566.073Z" fill="white"/>
<path d="M730.005 569.579L734.677 555.03L744.525 556.627L743.837 558.768L736.748 557.618L735.467 561.609L741.909 562.654L741.242 564.732L734.799 563.687L733.451 567.886L740.54 569.036L739.853 571.177L730.005 569.579Z" fill="white"/>
<path d="M743.485 572.167L750.239 568.958L749.558 563.203L752.388 564.172L752.835 568.243L757.572 565.946L760.422 566.922L753.647 570.124L754.349 575.886L751.499 574.91L751.072 570.846L746.315 573.136L743.485 572.167Z" fill="white"/>
<path d="M752.455 580.654L764.123 570.254L766.288 571.481L765.396 572.663C766.059 572.516 766.773 572.461 767.538 572.499C768.316 572.544 769.104 572.792 769.902 573.245C770.788 573.747 771.394 574.36 771.721 575.084C772.048 575.808 772.094 576.57 771.858 577.371C771.622 578.172 771.097 578.936 770.282 579.662C769.467 580.389 768.537 580.923 767.491 581.264C766.455 581.596 765.405 581.729 764.339 581.664C763.284 581.589 762.314 581.3 761.428 580.798C760.719 580.396 760.212 579.942 759.909 579.438C759.605 578.933 759.495 578.403 759.579 577.849L754.886 582.032L752.455 580.654ZM762.74 578.88C763.512 579.318 764.374 579.482 765.326 579.372C766.278 579.262 767.107 578.892 767.813 578.263C768.519 577.633 768.847 576.972 768.797 576.278C768.747 575.584 768.336 575.019 767.564 574.581C766.779 574.136 765.905 573.973 764.942 574.093C764.003 574.21 763.18 574.583 762.474 575.213C761.768 575.842 761.434 576.5 761.471 577.187C761.532 577.871 761.955 578.435 762.74 578.88Z" fill="white"/>
<path d="M769.179 586.625L782.852 578.874L784.938 580.733L771.265 588.484L769.179 586.625Z" fill="white"/>
<path d="M778.619 597.217C778.031 596.349 777.728 595.488 777.709 594.634C777.698 593.792 777.953 593.029 778.474 592.346C779.017 591.67 779.819 591.151 780.879 590.788C781.939 590.425 783.007 590.312 784.083 590.448C785.173 590.58 786.178 590.911 787.098 591.442C788.025 591.986 788.783 592.691 789.371 593.558C789.95 594.414 790.246 595.263 790.257 596.105C790.276 596.959 790.014 597.724 789.471 598.4C788.95 599.083 788.159 599.606 787.099 599.969C786.039 600.332 784.964 600.448 783.874 600.316C782.806 600.192 781.808 599.858 780.88 599.315C779.952 598.772 779.198 598.072 778.619 597.217ZM780.911 596.432C781.32 597.034 781.929 597.471 782.741 597.743C783.566 598.009 784.488 597.968 785.507 597.62C786.526 597.271 787.139 596.786 787.347 596.166C787.568 595.541 787.478 594.934 787.078 594.343C786.662 593.729 786.041 593.288 785.216 593.021C784.413 592.762 783.502 592.807 782.483 593.156C781.464 593.504 780.84 593.985 780.61 594.598C780.403 595.218 780.503 595.83 780.911 596.432Z" fill="white"/>
<path d="M782.529 604.565L793.216 602.831L793.977 605.201L792.053 605.775C792.863 606.037 793.571 606.455 794.178 607.027C794.804 607.61 795.257 608.339 795.537 609.212L792.628 609.684L792.388 608.935C792.201 608.353 791.941 607.849 791.607 607.422C791.274 606.995 790.835 606.687 790.291 606.499C789.751 606.324 789.072 606.303 788.253 606.436L783.383 607.226L782.529 604.565Z" fill="white"/>
<path d="M784.821 617.538C784.821 616.446 785.054 615.478 785.52 614.634C785.985 613.79 786.64 613.128 787.484 612.648C788.328 612.167 789.303 611.927 790.409 611.927C791.53 611.927 792.527 612.16 793.4 612.626C794.273 613.106 794.95 613.761 795.43 614.591C795.925 615.435 796.173 616.424 796.173 617.559C796.173 618.622 795.94 619.56 795.474 620.375C795.008 621.19 794.368 621.823 793.553 622.275C792.753 622.74 791.858 622.973 790.868 622.973C790.708 622.973 790.54 622.966 790.366 622.951C790.191 622.951 790.009 622.944 789.82 622.93V614.7C788.976 614.758 788.314 615.049 787.834 615.573C787.353 616.111 787.113 616.759 787.113 617.516C787.113 618.083 787.237 618.556 787.484 618.935C787.746 619.328 788.081 619.619 788.488 619.808V622.646C787.804 622.442 787.179 622.1 786.611 621.62C786.058 621.154 785.621 620.572 785.301 619.873C784.981 619.189 784.821 618.411 784.821 617.538ZM793.902 617.559C793.902 616.875 793.706 616.271 793.313 615.748C792.934 615.224 792.352 614.889 791.566 614.743V620.135C792.28 620.092 792.847 619.83 793.269 619.349C793.691 618.869 793.902 618.273 793.902 617.559Z" fill="white"/>
<path d="M783.169 630.38L797.626 635.329L795.765 638.076L783.865 638.967L790.341 646.082L788.48 648.829L774.023 643.88L775.59 641.567L785.565 644.981L780.043 638.749L781.279 636.924L791.577 636.108L781.602 632.693L783.169 630.38Z" fill="white"/>
<path d="M770.064 646.117C770.846 645.419 771.761 644.908 772.809 644.583C773.846 644.268 774.916 644.154 776.02 644.241C777.125 644.345 778.165 644.673 779.14 645.226C780.115 645.779 780.785 646.428 781.15 647.173C781.528 647.926 781.616 648.697 781.414 649.485C781.202 650.284 780.705 651.032 779.922 651.729C779.151 652.416 778.247 652.918 777.21 653.233C776.162 653.558 775.085 653.668 773.98 653.564C772.876 653.477 771.837 653.157 770.862 652.605C769.887 652.052 769.211 651.4 768.833 650.647C768.457 649.911 768.376 649.144 768.588 648.346C768.8 647.547 769.292 646.804 770.064 646.117ZM772.172 647.311C771.628 647.796 771.39 648.35 771.456 648.973C771.536 649.604 772.044 650.185 772.98 650.717C773.917 651.248 774.821 651.467 775.691 651.374C776.574 651.288 777.282 651.008 777.814 650.534C778.369 650.04 778.606 649.478 778.527 648.847C778.45 648.233 777.942 647.66 777.006 647.129C776.069 646.598 775.164 646.37 774.292 646.446C773.422 646.539 772.715 646.827 772.172 647.311Z" fill="white"/>
<path d="M762.54 652.719L770.622 659.923L768.457 661.151L766.714 659.929C766.894 660.587 766.844 661.217 766.566 661.819C766.286 662.437 765.747 662.972 764.95 663.424L762.75 661.463L763.434 661.076C763.965 660.774 764.369 660.442 764.646 660.079C764.923 659.717 765.007 659.312 764.9 658.866C764.78 658.427 764.411 657.931 763.792 657.379L760.109 654.097L762.54 652.719Z" fill="white"/>
<path d="M747.835 659.938C748.868 659.585 749.914 659.464 750.974 659.577C752.034 659.689 753.028 660.016 753.956 660.56C754.883 661.103 755.657 661.832 756.278 662.748C756.906 663.676 757.245 664.577 757.294 665.45C757.33 666.329 757.09 667.101 756.574 667.767C756.053 668.45 755.256 668.976 754.182 669.343C753.177 669.687 752.158 669.799 751.126 669.677C750.093 669.555 749.135 669.23 748.251 668.702C747.362 668.19 746.639 667.524 746.084 666.705C745.995 666.572 745.908 666.432 745.823 666.282C745.725 666.138 745.63 665.985 745.538 665.823L753.324 663.158C752.796 662.478 752.149 662.024 751.384 661.796C750.605 661.573 749.858 661.584 749.142 661.829C748.605 662.013 748.227 662.268 748.007 662.596C747.783 662.94 747.695 663.311 747.744 663.71L745.06 664.629C744.869 663.997 744.841 663.368 744.977 662.743C745.108 662.134 745.414 661.584 745.895 661.093C746.362 660.606 747.009 660.221 747.835 659.938ZM752.908 667.464C753.555 667.242 754.017 666.884 754.292 666.389C754.575 665.906 754.566 665.316 754.262 664.618L749.161 666.364C749.602 666.941 750.169 667.326 750.86 667.519C751.551 667.713 752.234 667.695 752.908 667.464Z" fill="white"/>
<path d="M725.887 634.631C723.625 637.416 719.375 637.416 717.113 634.631L700.839 614.596C697.839 610.902 700.468 605.38 705.227 605.38L737.773 605.38C742.532 605.38 745.161 610.902 742.161 614.596L725.887 634.631Z" fill="white"/>
</svg>
