<svg width="1004" height="790" viewBox="0 0 1004 790" fill="none" xmlns="http://www.w3.org/2000/svg">
<g filter="url(#filter0_d_378_8244)">
<rect x="232" y="201" width="590" height="393" rx="15" fill="#6E9EEC"/>
</g>
<g filter="url(#filter1_f_378_8244)">
<ellipse cx="493" cy="389.5" rx="70" ry="72.5" fill="#517DB8" fill-opacity="0.37"/>
</g>
<g filter="url(#filter2_f_378_8244)">
<circle cx="694.5" cy="480.5" r="55.5" fill="#517DB8"/>
</g>
<g filter="url(#filter3_f_378_8244)">
<ellipse cx="293.5" cy="294.5" rx="39.5" ry="40.5" fill="#A9C9FE"/>
</g>
<g filter="url(#filter4_d_378_8244)">
<rect x="232" y="192" width="590" height="393" rx="15" fill="white"/>
</g>
<path fill-rule="evenodd" clip-rule="evenodd" d="M330.986 544.083C330.811 543.932 330.505 543.964 330.296 544.151C327.8 546.33 325.284 547.555 322.823 547.81C320.426 548.058 318.105 547.359 315.925 545.746C314.608 544.793 314.892 542.88 315.459 541.356C315.498 541.25 315.535 541.145 315.569 541.041C315.997 539.713 315.91 538.537 315.491 537.989C315.259 537.686 314.936 537.517 314.543 537.471C314.04 537.413 313.33 537.574 312.464 538.256C311.268 539.201 310.873 540.428 311.065 541.72C311.068 541.741 311.071 541.762 311.075 541.784C311.273 542.979 311.057 544.435 309.845 544.43C308.232 544.433 307.135 543.354 306.413 542.031C305.787 540.887 305.068 539.178 305.458 537.73C305.59 537.238 305.871 536.799 305.464 536.445C304.842 535.897 304.146 536.59 303.964 537.266C303.572 538.718 303.963 540.387 304.388 541.653C305.168 543.983 306.881 545.984 309.472 546.039C309.657 546.042 309.838 546.036 310.016 546.021C311.606 545.885 313.347 546.165 314.663 547.066C317.262 548.802 319.99 549.467 322.74 549.069C325.486 548.673 328.262 547.229 330.925 544.698C331.133 544.509 331.161 544.234 330.986 544.083ZM313.18 541.898C313.052 541.51 312.978 541.125 312.984 540.751C312.992 540.276 313.143 539.822 313.595 539.467C313.711 539.376 313.878 539.433 313.896 539.58C313.913 539.719 313.923 539.875 313.908 540.017C313.849 540.579 313.647 541.253 313.313 541.907C313.282 541.967 313.199 541.962 313.18 541.898Z" fill="#1B1918"/>
<path fill-rule="evenodd" clip-rule="evenodd" d="M314 539.201C313.991 539.158 314.001 539.256 314.001 539.211C314.001 539.207 314 539.204 314 539.201Z" fill="#1B1918"/>
<path fill-rule="evenodd" clip-rule="evenodd" d="M328.035 545.706C328.534 545.561 329.014 546.112 328.808 546.588C328.632 546.999 328.502 547.386 328.448 547.727C328.376 548.185 328.581 548.82 329.025 548.685C329.144 548.65 329.248 548.581 329.322 548.495C329.496 548.295 329.455 547.995 329.555 547.751C329.687 547.423 329.941 547.069 330.218 546.688C330.571 546.202 330.986 545.71 331.343 545.258C331.669 544.849 331.943 544.472 332.124 544.176C332.409 543.711 332.461 543.338 332.43 543.125C332.421 543.07 331.981 542.274 331.04 542.695C330.704 542.847 329.866 543.267 329.824 543.288C329.318 543.568 328.378 544.078 327.502 544.38C327.249 544.468 327.005 544.548 326.783 544.585C326.746 544.591 326.711 544.571 326.686 544.541C326.495 544.282 326.071 544.256 325.735 544.481C325.55 544.59 325.294 544.875 325.216 545.038C325.067 545.355 325.172 545.589 325.47 545.762C325.878 545.998 326.5 546.018 327.215 545.9C327.478 545.855 327.755 545.788 328.035 545.706ZM330.498 543.497C330.417 543.487 330.584 543.511 330.503 543.497C330.501 543.497 330.5 543.497 330.498 543.497Z" fill="#1B1918"/>
<path d="M267.784 279.408V294H263.368V271.28H266.888L278.632 286.256V271.312H283.048V294H279.368L267.784 279.408ZM303.55 290.128V294H287.774V271.28H303.262V275.152H292.19V280.624H301.758V284.208H292.19V290.128H303.55ZM322.769 290.128V294H306.993V271.28H322.481V275.152H311.409V280.624H320.977V284.208H311.409V290.128H322.769ZM343.204 275.152H335.94V294H331.556V275.152H324.292V271.28H343.204V275.152ZM365.446 290.128V294H352.454V290.128H356.998V280.432C356.806 280.688 356.508 280.955 356.102 281.232C355.697 281.488 355.238 281.733 354.726 281.968C354.214 282.203 353.702 282.395 353.19 282.544C352.678 282.693 352.22 282.768 351.814 282.768V278.768C352.198 278.768 352.657 278.651 353.19 278.416C353.745 278.16 354.289 277.861 354.822 277.52C355.377 277.179 355.846 276.848 356.23 276.528C356.636 276.187 356.892 275.92 356.998 275.728H361.382V290.128H365.446ZM367.435 294C367.435 293.04 367.509 292.176 367.659 291.408C367.808 290.64 368.064 289.925 368.427 289.264C368.811 288.603 369.323 287.984 369.963 287.408C370.624 286.811 371.456 286.235 372.459 285.68C373.333 285.211 374.101 284.805 374.763 284.464C375.424 284.101 375.979 283.771 376.427 283.472C376.896 283.173 377.248 282.875 377.483 282.576C377.717 282.256 377.835 281.893 377.835 281.488C377.835 281.061 377.717 280.677 377.483 280.336C377.248 279.973 376.917 279.685 376.491 279.472C376.064 279.259 375.531 279.152 374.891 279.152C374.379 279.152 373.899 279.216 373.451 279.344C373.024 279.472 372.619 279.653 372.235 279.888C371.872 280.123 371.531 280.389 371.211 280.688C370.891 280.965 370.603 281.264 370.347 281.584L367.627 278.448C367.925 278.149 368.32 277.829 368.811 277.488C369.323 277.125 369.92 276.795 370.603 276.496C371.307 276.176 372.075 275.92 372.907 275.728C373.76 275.515 374.667 275.408 375.627 275.408C377.077 275.408 378.315 275.643 379.339 276.112C380.363 276.56 381.141 277.189 381.675 278C382.229 278.811 382.507 279.76 382.507 280.848C382.507 281.595 382.368 282.256 382.091 282.832C381.813 283.408 381.461 283.92 381.035 284.368C380.608 284.795 380.139 285.179 379.627 285.52C379.136 285.861 378.656 286.16 378.187 286.416C377.525 286.757 376.928 287.077 376.395 287.376C375.861 287.653 375.392 287.941 374.987 288.24C374.581 288.517 374.219 288.805 373.899 289.104C373.6 289.403 373.333 289.744 373.099 290.128H382.859V294H367.435ZM396.281 293.136C395.919 293.285 395.481 293.456 394.969 293.648C394.457 293.84 393.903 293.989 393.305 294.096C392.729 294.224 392.143 294.288 391.545 294.288C390.756 294.288 390.031 294.149 389.369 293.872C388.708 293.595 388.175 293.157 387.769 292.56C387.385 291.941 387.193 291.141 387.193 290.16V280.528H384.985V277.232H387.193V271.792H391.481V277.232H395.001V280.528H391.481V288.72C391.503 289.296 391.663 289.712 391.961 289.968C392.26 290.224 392.633 290.352 393.081 290.352C393.529 290.352 393.967 290.277 394.393 290.128C394.82 289.979 395.161 289.851 395.417 289.744L396.281 293.136ZM414.099 294H409.811V284.592C409.811 283.291 409.555 282.32 409.043 281.68C408.552 281.04 407.869 280.72 406.995 280.72C406.483 280.72 405.939 280.869 405.363 281.168C404.787 281.467 404.264 281.883 403.795 282.416C403.347 282.928 403.016 283.525 402.803 284.208V294H398.515V270.64H402.803V280.336C403.421 279.269 404.264 278.437 405.331 277.84C406.397 277.243 407.56 276.944 408.819 276.944C409.907 276.944 410.792 277.136 411.475 277.52C412.157 277.883 412.691 278.384 413.075 279.024C413.459 279.643 413.725 280.347 413.875 281.136C414.024 281.904 414.099 282.704 414.099 283.536V294ZM425.931 294V271.28H435.563C436.608 271.28 437.568 271.493 438.443 271.92C439.317 272.347 440.075 272.923 440.715 273.648C441.376 274.373 441.888 275.184 442.251 276.08C442.613 276.976 442.795 277.893 442.795 278.832C442.795 280.112 442.496 281.328 441.899 282.48C441.301 283.632 440.48 284.571 439.435 285.296C438.389 286.021 437.152 286.384 435.723 286.384H430.347V294H425.931ZM430.347 282.512H435.467C436 282.512 436.48 282.363 436.907 282.064C437.333 281.765 437.675 281.339 437.931 280.784C438.187 280.208 438.315 279.557 438.315 278.832C438.315 278.043 438.165 277.371 437.867 276.816C437.589 276.261 437.216 275.845 436.747 275.568C436.299 275.291 435.808 275.152 435.275 275.152H430.347V282.512ZM444.081 289.04C444.081 287.952 444.38 287.003 444.977 286.192C445.596 285.36 446.449 284.72 447.537 284.272C448.625 283.824 449.873 283.6 451.281 283.6C451.985 283.6 452.7 283.653 453.425 283.76C454.151 283.867 454.78 284.037 455.313 284.272V283.376C455.313 282.309 454.993 281.488 454.353 280.912C453.735 280.336 452.807 280.048 451.569 280.048C450.652 280.048 449.777 280.208 448.945 280.528C448.113 280.848 447.239 281.317 446.321 281.936L444.945 279.12C446.055 278.395 447.185 277.851 448.337 277.488C449.511 277.125 450.737 276.944 452.017 276.944C454.407 276.944 456.263 277.541 457.585 278.736C458.929 279.931 459.601 281.637 459.601 283.856V289.2C459.601 289.648 459.676 289.968 459.825 290.16C459.996 290.352 460.263 290.469 460.625 290.512V294C460.241 294.064 459.889 294.117 459.569 294.16C459.271 294.203 459.015 294.224 458.801 294.224C457.948 294.224 457.297 294.032 456.849 293.648C456.423 293.264 456.156 292.795 456.049 292.24L455.953 291.376C455.228 292.315 454.321 293.04 453.233 293.552C452.145 294.064 451.036 294.32 449.905 294.32C448.796 294.32 447.793 294.096 446.897 293.648C446.023 293.179 445.329 292.549 444.817 291.76C444.327 290.949 444.081 290.043 444.081 289.04ZM454.513 289.904C454.748 289.648 454.94 289.392 455.089 289.136C455.239 288.88 455.313 288.645 455.313 288.432V286.736C454.801 286.523 454.247 286.363 453.649 286.256C453.052 286.128 452.487 286.064 451.953 286.064C450.844 286.064 449.927 286.309 449.201 286.8C448.497 287.269 448.145 287.899 448.145 288.688C448.145 289.115 448.263 289.52 448.497 289.904C448.732 290.288 449.073 290.597 449.521 290.832C449.969 291.067 450.503 291.184 451.121 291.184C451.761 291.184 452.391 291.067 453.009 290.832C453.628 290.576 454.129 290.267 454.513 289.904ZM469.784 294.32C468.355 294.32 466.99 294.085 465.688 293.616C464.387 293.147 463.267 292.453 462.328 291.536L463.864 288.752C464.867 289.563 465.848 290.16 466.808 290.544C467.79 290.928 468.728 291.12 469.624 291.12C470.456 291.12 471.118 290.971 471.608 290.672C472.12 290.373 472.376 289.925 472.376 289.328C472.376 288.923 472.238 288.613 471.96 288.4C471.683 288.165 471.278 287.963 470.744 287.792C470.232 287.621 469.603 287.429 468.856 287.216C467.619 286.811 466.584 286.416 465.752 286.032C464.92 285.648 464.291 285.168 463.864 284.592C463.459 283.995 463.256 283.237 463.256 282.32C463.256 281.211 463.534 280.261 464.088 279.472C464.664 278.661 465.454 278.032 466.456 277.584C467.48 277.136 468.675 276.912 470.04 276.912C471.235 276.912 472.366 277.104 473.432 277.488C474.499 277.851 475.47 278.448 476.344 279.28L474.616 282C473.763 281.339 472.952 280.859 472.184 280.56C471.416 280.24 470.638 280.08 469.848 280.08C469.4 280.08 468.974 280.133 468.568 280.24C468.184 280.347 467.864 280.528 467.608 280.784C467.374 281.019 467.256 281.36 467.256 281.808C467.256 282.213 467.363 282.533 467.576 282.768C467.811 282.981 468.152 283.173 468.6 283.344C469.07 283.515 469.635 283.707 470.296 283.92C471.64 284.304 472.771 284.699 473.688 285.104C474.627 285.509 475.331 286.011 475.8 286.608C476.27 287.184 476.504 287.984 476.504 289.008C476.504 290.672 475.896 291.973 474.68 292.912C473.464 293.851 471.832 294.32 469.784 294.32ZM485.597 294.32C484.167 294.32 482.802 294.085 481.501 293.616C480.199 293.147 479.079 292.453 478.141 291.536L479.677 288.752C480.679 289.563 481.661 290.16 482.621 290.544C483.602 290.928 484.541 291.12 485.437 291.12C486.269 291.12 486.93 290.971 487.421 290.672C487.933 290.373 488.189 289.925 488.189 289.328C488.189 288.923 488.05 288.613 487.773 288.4C487.495 288.165 487.09 287.963 486.557 287.792C486.045 287.621 485.415 287.429 484.669 287.216C483.431 286.811 482.397 286.416 481.565 286.032C480.733 285.648 480.103 285.168 479.677 284.592C479.271 283.995 479.069 283.237 479.069 282.32C479.069 281.211 479.346 280.261 479.901 279.472C480.477 278.661 481.266 278.032 482.269 277.584C483.293 277.136 484.487 276.912 485.853 276.912C487.047 276.912 488.178 277.104 489.245 277.488C490.311 277.851 491.282 278.448 492.157 279.28L490.429 282C489.575 281.339 488.765 280.859 487.997 280.56C487.229 280.24 486.45 280.08 485.661 280.08C485.213 280.08 484.786 280.133 484.381 280.24C483.997 280.347 483.677 280.528 483.421 280.784C483.186 281.019 483.069 281.36 483.069 281.808C483.069 282.213 483.175 282.533 483.389 282.768C483.623 282.981 483.965 283.173 484.413 283.344C484.882 283.515 485.447 283.707 486.109 283.92C487.453 284.304 488.583 284.699 489.501 285.104C490.439 285.509 491.143 286.011 491.613 286.608C492.082 287.184 492.317 287.984 492.317 289.008C492.317 290.672 491.709 291.973 490.493 292.912C489.277 293.851 487.645 294.32 485.597 294.32ZM513.033 294.16C511.369 294.16 509.854 293.84 508.489 293.2C507.145 292.56 505.982 291.696 505.001 290.608C504.041 289.499 503.294 288.261 502.761 286.896C502.227 285.509 501.961 284.091 501.961 282.64C501.961 281.125 502.238 279.685 502.793 278.32C503.369 276.933 504.147 275.707 505.129 274.64C506.131 273.552 507.305 272.699 508.649 272.08C510.014 271.44 511.507 271.12 513.129 271.12C514.771 271.12 516.265 271.451 517.609 272.112C518.974 272.773 520.137 273.659 521.097 274.768C522.057 275.877 522.803 277.115 523.337 278.48C523.87 279.845 524.137 281.253 524.137 282.704C524.137 284.197 523.859 285.637 523.305 287.024C522.75 288.389 521.971 289.616 520.969 290.704C519.987 291.771 518.814 292.613 517.449 293.232C516.105 293.851 514.633 294.16 513.033 294.16ZM506.441 282.64C506.441 283.621 506.59 284.571 506.889 285.488C507.187 286.405 507.614 287.227 508.169 287.952C508.745 288.656 509.438 289.221 510.249 289.648C511.081 290.053 512.019 290.256 513.065 290.256C514.131 290.256 515.081 290.043 515.913 289.616C516.745 289.168 517.438 288.581 517.993 287.856C518.547 287.109 518.963 286.288 519.241 285.392C519.539 284.475 519.689 283.557 519.689 282.64C519.689 281.659 519.529 280.72 519.209 279.824C518.91 278.907 518.473 278.096 517.897 277.392C517.342 276.667 516.649 276.101 515.817 275.696C515.006 275.269 514.089 275.056 513.065 275.056C511.977 275.056 511.017 275.28 510.185 275.728C509.374 276.155 508.691 276.731 508.137 277.456C507.582 278.181 507.155 278.992 506.857 279.888C506.579 280.784 506.441 281.701 506.441 282.64ZM526.948 287.728V277.232H531.236V286.8C531.236 288.08 531.471 289.051 531.94 289.712C532.41 290.352 533.103 290.672 534.02 290.672C534.575 290.672 535.119 290.565 535.652 290.352C536.207 290.117 536.708 289.776 537.156 289.328C537.626 288.88 538.02 288.315 538.34 287.632V277.232H542.628V289.2C542.628 289.648 542.703 289.968 542.852 290.16C543.023 290.352 543.29 290.469 543.652 290.512V294C543.226 294.064 542.863 294.107 542.564 294.128C542.287 294.171 542.031 294.192 541.796 294.192C541.028 294.192 540.399 294.021 539.908 293.68C539.439 293.317 539.162 292.827 539.076 292.208L538.98 290.864C538.234 291.995 537.274 292.859 536.1 293.456C534.927 294.032 533.636 294.32 532.228 294.32C530.5 294.32 529.188 293.765 528.292 292.656C527.396 291.525 526.948 289.883 526.948 287.728ZM556.875 293.136C556.512 293.285 556.075 293.456 555.563 293.648C555.051 293.84 554.496 293.989 553.899 294.096C553.323 294.224 552.736 294.288 552.139 294.288C551.35 294.288 550.624 294.149 549.963 293.872C549.302 293.595 548.768 293.157 548.363 292.56C547.979 291.941 547.787 291.141 547.787 290.16V280.528H545.579V277.232H547.787V271.792H552.075V277.232H555.595V280.528H552.075V288.72C552.096 289.296 552.256 289.712 552.555 289.968C552.854 290.224 553.227 290.352 553.675 290.352C554.123 290.352 554.56 290.277 554.987 290.128C555.414 289.979 555.755 289.851 556.011 289.744L556.875 293.136Z" fill="#3442D9"/>
<path d="M262.056 328.696C262.056 327.064 262.384 325.48 263.04 323.944C263.696 322.392 264.488 320.832 265.416 319.264L266.664 319.864C266.344 320.344 266 320.936 265.632 321.64C265.28 322.344 264.944 323.104 264.624 323.92C264.32 324.72 264.072 325.536 263.88 326.368C263.688 327.2 263.592 328 263.592 328.768C263.592 330.016 263.864 331.376 264.408 332.848C264.952 334.32 265.696 335.784 266.64 337.24L265.416 337.888C264.744 336.88 264.152 335.864 263.64 334.84C263.144 333.816 262.752 332.792 262.464 331.768C262.192 330.728 262.056 329.704 262.056 328.696ZM268.008 328.36C268.008 327.32 268.184 326.304 268.536 325.312C268.904 324.304 269.432 323.392 270.12 322.576C270.808 321.744 271.656 321.088 272.664 320.608C273.672 320.112 274.816 319.864 276.096 319.864C277.616 319.864 278.912 320.216 279.984 320.92C281.072 321.608 281.872 322.496 282.384 323.584L281.064 324.4C280.696 323.648 280.232 323.056 279.672 322.624C279.112 322.176 278.512 321.856 277.872 321.664C277.248 321.472 276.624 321.376 276 321.376C274.976 321.376 274.072 321.584 273.288 322C272.504 322.4 271.84 322.944 271.296 323.632C270.768 324.304 270.368 325.064 270.096 325.912C269.824 326.744 269.688 327.592 269.688 328.456C269.688 329.4 269.848 330.304 270.168 331.168C270.488 332.032 270.936 332.8 271.512 333.472C272.088 334.128 272.76 334.656 273.528 335.056C274.312 335.44 275.16 335.632 276.072 335.632C276.712 335.632 277.368 335.52 278.04 335.296C278.712 335.072 279.336 334.728 279.912 334.264C280.504 333.8 280.976 333.2 281.328 332.464L282.72 333.184C282.368 334.032 281.824 334.752 281.088 335.344C280.352 335.936 279.528 336.384 278.616 336.688C277.72 336.992 276.84 337.144 275.976 337.144C274.808 337.144 273.736 336.896 272.76 336.4C271.784 335.888 270.936 335.216 270.216 334.384C269.512 333.536 268.968 332.592 268.584 331.552C268.2 330.496 268.008 329.432 268.008 328.36ZM285.325 319.48H286.957V334.168C286.957 334.792 287.069 335.2 287.293 335.392C287.517 335.584 287.789 335.68 288.109 335.68C288.397 335.68 288.685 335.648 288.973 335.584C289.261 335.52 289.509 335.456 289.717 335.392L290.005 336.712C289.701 336.84 289.325 336.944 288.877 337.024C288.445 337.104 288.069 337.144 287.749 337.144C287.013 337.144 286.421 336.928 285.973 336.496C285.541 336.064 285.325 335.472 285.325 334.72V319.48ZM290.784 333.4C290.784 332.616 291.008 331.944 291.456 331.384C291.904 330.808 292.52 330.368 293.304 330.064C294.104 329.744 295.024 329.584 296.064 329.584C296.672 329.584 297.304 329.632 297.96 329.728C298.616 329.824 299.2 329.968 299.712 330.16V329.104C299.712 328.048 299.4 327.208 298.776 326.584C298.152 325.96 297.288 325.648 296.184 325.648C295.512 325.648 294.848 325.776 294.192 326.032C293.552 326.272 292.88 326.632 292.176 327.112L291.552 325.96C292.368 325.4 293.168 324.984 293.952 324.712C294.736 324.424 295.536 324.28 296.352 324.28C297.888 324.28 299.104 324.72 300 325.6C300.896 326.48 301.344 327.696 301.344 329.248V335.032C301.344 335.256 301.392 335.424 301.488 335.536C301.584 335.632 301.736 335.688 301.944 335.704V337C301.768 337.016 301.616 337.032 301.488 337.048C301.36 337.064 301.264 337.064 301.2 337.048C300.8 337.032 300.496 336.904 300.288 336.664C300.08 336.424 299.968 336.168 299.952 335.896L299.928 334.984C299.368 335.704 298.64 336.264 297.744 336.664C296.848 337.048 295.936 337.24 295.008 337.24C294.208 337.24 293.48 337.072 292.824 336.736C292.184 336.384 291.68 335.92 291.312 335.344C290.96 334.752 290.784 334.104 290.784 333.4ZM299.16 334.36C299.336 334.136 299.472 333.92 299.568 333.712C299.664 333.504 299.712 333.32 299.712 333.16V331.336C299.168 331.128 298.6 330.968 298.008 330.856C297.432 330.744 296.848 330.688 296.256 330.688C295.088 330.688 294.144 330.92 293.424 331.384C292.704 331.848 292.344 332.48 292.344 333.28C292.344 333.744 292.464 334.184 292.704 334.6C292.944 335 293.296 335.336 293.76 335.608C294.224 335.864 294.768 335.992 295.392 335.992C296.176 335.992 296.904 335.84 297.576 335.536C298.264 335.232 298.792 334.84 299.16 334.36ZM308.974 337.24C307.95 337.24 306.998 337.072 306.118 336.736C305.238 336.4 304.478 335.888 303.838 335.2L304.51 334.048C305.214 334.704 305.918 335.184 306.622 335.488C307.342 335.776 308.102 335.92 308.902 335.92C309.878 335.92 310.67 335.728 311.278 335.344C311.886 334.944 312.19 334.376 312.19 333.64C312.19 333.144 312.038 332.768 311.734 332.512C311.446 332.24 311.022 332.024 310.462 331.864C309.918 331.688 309.262 331.504 308.494 331.312C307.63 331.072 306.902 330.824 306.31 330.568C305.734 330.296 305.294 329.96 304.99 329.56C304.702 329.144 304.558 328.608 304.558 327.952C304.558 327.136 304.758 326.464 305.158 325.936C305.574 325.392 306.134 324.984 306.838 324.712C307.558 324.424 308.358 324.28 309.238 324.28C310.198 324.28 311.046 324.432 311.782 324.736C312.518 325.04 313.118 325.464 313.582 326.008L312.79 327.112C312.342 326.6 311.806 326.224 311.182 325.984C310.574 325.728 309.894 325.6 309.142 325.6C308.63 325.6 308.142 325.672 307.678 325.816C307.214 325.944 306.83 326.168 306.526 326.488C306.238 326.792 306.094 327.216 306.094 327.76C306.094 328.208 306.206 328.56 306.43 328.816C306.654 329.056 306.99 329.264 307.438 329.44C307.886 329.6 308.438 329.776 309.094 329.968C310.038 330.224 310.862 330.488 311.566 330.76C312.27 331.016 312.814 331.352 313.198 331.768C313.582 332.184 313.774 332.768 313.774 333.52C313.774 334.688 313.334 335.6 312.454 336.256C311.574 336.912 310.414 337.24 308.974 337.24ZM320.576 337.24C319.552 337.24 318.6 337.072 317.72 336.736C316.84 336.4 316.08 335.888 315.44 335.2L316.112 334.048C316.816 334.704 317.52 335.184 318.224 335.488C318.944 335.776 319.704 335.92 320.504 335.92C321.48 335.92 322.272 335.728 322.88 335.344C323.488 334.944 323.792 334.376 323.792 333.64C323.792 333.144 323.64 332.768 323.336 332.512C323.048 332.24 322.624 332.024 322.064 331.864C321.52 331.688 320.864 331.504 320.096 331.312C319.232 331.072 318.504 330.824 317.912 330.568C317.336 330.296 316.896 329.96 316.592 329.56C316.304 329.144 316.16 328.608 316.16 327.952C316.16 327.136 316.36 326.464 316.76 325.936C317.176 325.392 317.736 324.984 318.44 324.712C319.16 324.424 319.96 324.28 320.84 324.28C321.8 324.28 322.648 324.432 323.384 324.736C324.12 325.04 324.72 325.464 325.184 326.008L324.392 327.112C323.944 326.6 323.408 326.224 322.784 325.984C322.176 325.728 321.496 325.6 320.744 325.6C320.232 325.6 319.744 325.672 319.28 325.816C318.816 325.944 318.432 326.168 318.128 326.488C317.84 326.792 317.696 327.216 317.696 327.76C317.696 328.208 317.808 328.56 318.032 328.816C318.256 329.056 318.592 329.264 319.04 329.44C319.488 329.6 320.04 329.776 320.696 329.968C321.64 330.224 322.464 330.488 323.168 330.76C323.872 331.016 324.416 331.352 324.8 331.768C325.184 332.184 325.376 332.768 325.376 333.52C325.376 334.688 324.936 335.6 324.056 336.256C323.176 336.912 322.016 337.24 320.576 337.24ZM342.135 335.512V337H333.999V335.512H337.407V325.24C337.279 325.432 337.063 325.64 336.759 325.864C336.455 326.088 336.103 326.296 335.703 326.488C335.319 326.68 334.935 326.84 334.551 326.968C334.167 327.096 333.815 327.16 333.495 327.16V325.576C333.863 325.576 334.263 325.472 334.695 325.264C335.127 325.056 335.543 324.816 335.943 324.544C336.343 324.272 336.679 324.016 336.951 323.776C337.223 323.536 337.375 323.376 337.407 323.296H339.087V335.512H342.135ZM343.712 337C343.712 336.456 343.76 335.912 343.856 335.368C343.952 334.808 344.136 334.256 344.408 333.712C344.68 333.168 345.08 332.648 345.608 332.152C346.136 331.64 346.832 331.16 347.696 330.712C348.16 330.472 348.64 330.24 349.136 330.016C349.632 329.776 350.096 329.52 350.528 329.248C350.976 328.96 351.328 328.64 351.584 328.288C351.856 327.92 351.992 327.488 351.992 326.992C351.992 326.592 351.872 326.2 351.632 325.816C351.408 325.432 351.056 325.12 350.576 324.88C350.112 324.64 349.528 324.52 348.824 324.52C348.312 324.52 347.848 324.592 347.432 324.736C347.016 324.88 346.648 325.064 346.328 325.288C346.008 325.496 345.736 325.712 345.512 325.936C345.288 326.144 345.104 326.32 344.96 326.464L343.928 325.336C344.008 325.24 344.184 325.072 344.456 324.832C344.744 324.576 345.104 324.312 345.536 324.04C345.984 323.768 346.504 323.536 347.096 323.344C347.704 323.152 348.368 323.056 349.088 323.056C350.064 323.056 350.896 323.232 351.584 323.584C352.288 323.92 352.824 324.376 353.192 324.952C353.56 325.528 353.744 326.152 353.744 326.824C353.744 327.48 353.6 328.048 353.312 328.528C353.04 328.992 352.68 329.4 352.232 329.752C351.8 330.088 351.344 330.384 350.864 330.64C350.4 330.88 349.976 331.088 349.592 331.264C348.84 331.616 348.208 331.968 347.696 332.32C347.184 332.672 346.776 333.032 346.472 333.4C346.168 333.752 345.928 334.104 345.752 334.456C345.592 334.792 345.48 335.144 345.416 335.512H354.008V337H343.712ZM362.972 336.4C362.844 336.448 362.644 336.536 362.372 336.664C362.1 336.792 361.772 336.904 361.388 337C361.004 337.096 360.588 337.144 360.14 337.144C359.676 337.144 359.236 337.056 358.82 336.88C358.42 336.704 358.1 336.44 357.86 336.088C357.62 335.72 357.5 335.272 357.5 334.744V325.792H355.772V324.496H357.5V320.272H359.132V324.496H362.012V325.792H359.132V334.288C359.164 334.736 359.324 335.072 359.612 335.296C359.916 335.52 360.26 335.632 360.644 335.632C361.092 335.632 361.5 335.56 361.868 335.416C362.236 335.256 362.46 335.144 362.54 335.08L362.972 336.4ZM375.523 337H373.891V330.016C373.891 328.608 373.643 327.552 373.147 326.848C372.651 326.128 371.939 325.768 371.011 325.768C370.403 325.768 369.795 325.928 369.187 326.248C368.595 326.552 368.067 326.976 367.603 327.52C367.155 328.048 366.835 328.656 366.643 329.344V337H365.011V319.48H366.643V327.328C367.139 326.4 367.827 325.664 368.707 325.12C369.603 324.56 370.555 324.28 371.563 324.28C372.283 324.28 372.891 324.408 373.387 324.664C373.899 324.92 374.307 325.296 374.611 325.792C374.931 326.272 375.163 326.84 375.307 327.496C375.451 328.136 375.523 328.864 375.523 329.68V337ZM382.579 328.696C382.579 329.704 382.443 330.728 382.171 331.768C381.899 332.792 381.507 333.816 380.995 334.84C380.483 335.864 379.891 336.88 379.219 337.888L378.019 337.24C378.963 335.784 379.707 334.32 380.251 332.848C380.795 331.376 381.067 330.016 381.067 328.768C381.067 328 380.971 327.2 380.779 326.368C380.587 325.536 380.331 324.72 380.011 323.92C379.691 323.104 379.355 322.344 379.003 321.64C378.651 320.936 378.307 320.344 377.971 319.864L379.243 319.264C380.171 320.832 380.955 322.392 381.595 323.944C382.251 325.48 382.579 327.064 382.579 328.696Z" fill="#263238"/>
<path d="M262.6 389V374.8H268.56C269.2 374.8 269.787 374.933 270.32 375.2C270.853 375.467 271.32 375.82 271.72 376.26C272.12 376.7 272.427 377.193 272.64 377.74C272.853 378.287 272.96 378.847 272.96 379.42C272.96 380.207 272.78 380.96 272.42 381.68C272.073 382.387 271.573 382.96 270.92 383.4C270.28 383.84 269.533 384.06 268.68 384.06H264.84V389H262.6ZM264.84 382.08H268.54C268.967 382.08 269.34 381.967 269.66 381.74C269.98 381.5 270.227 381.18 270.4 380.78C270.587 380.38 270.68 379.927 270.68 379.42C270.68 378.9 270.573 378.44 270.36 378.04C270.147 377.64 269.867 377.333 269.52 377.12C269.187 376.893 268.82 376.78 268.42 376.78H264.84V382.08ZM280.661 380.44C279.808 380.453 279.048 380.647 278.381 381.02C277.728 381.393 277.261 381.92 276.981 382.6V389H274.781V378.54H276.821V380.88C277.181 380.16 277.654 379.587 278.241 379.16C278.828 378.72 279.448 378.48 280.101 378.44C280.234 378.44 280.341 378.44 280.421 378.44C280.514 378.44 280.594 378.447 280.661 378.46V380.44ZM286.806 389.2C285.993 389.2 285.253 389.06 284.586 388.78C283.933 388.487 283.366 388.093 282.886 387.6C282.406 387.093 282.033 386.52 281.766 385.88C281.513 385.227 281.386 384.533 281.386 383.8C281.386 382.813 281.613 381.913 282.066 381.1C282.519 380.273 283.153 379.613 283.966 379.12C284.779 378.613 285.733 378.36 286.826 378.36C287.919 378.36 288.859 378.613 289.646 379.12C290.446 379.613 291.066 380.267 291.506 381.08C291.946 381.893 292.166 382.767 292.166 383.7C292.166 383.86 292.159 384.013 292.146 384.16C292.133 384.293 292.119 384.407 292.106 384.5H283.726C283.766 385.113 283.933 385.653 284.226 386.12C284.533 386.573 284.919 386.933 285.386 387.2C285.853 387.453 286.353 387.58 286.886 387.58C287.473 387.58 288.026 387.433 288.546 387.14C289.079 386.847 289.439 386.46 289.626 385.98L291.506 386.52C291.279 387.027 290.933 387.487 290.466 387.9C290.013 388.3 289.473 388.62 288.846 388.86C288.219 389.087 287.539 389.2 286.806 389.2ZM283.666 383.04H289.986C289.946 382.44 289.773 381.913 289.466 381.46C289.173 380.993 288.793 380.633 288.326 380.38C287.873 380.113 287.366 379.98 286.806 379.98C286.259 379.98 285.753 380.113 285.286 380.38C284.833 380.633 284.459 380.993 284.166 381.46C283.873 381.913 283.706 382.44 283.666 383.04ZM299.901 389.2C299.061 389.2 298.321 389 297.681 388.6C297.041 388.2 296.534 387.68 296.161 387.04V393.26H293.961V378.54H295.901V380.42C296.301 379.793 296.821 379.293 297.461 378.92C298.101 378.547 298.814 378.36 299.601 378.36C300.321 378.36 300.981 378.507 301.581 378.8C302.181 379.08 302.701 379.473 303.141 379.98C303.581 380.487 303.921 381.067 304.161 381.72C304.414 382.36 304.541 383.04 304.541 383.76C304.541 384.76 304.341 385.673 303.941 386.5C303.554 387.327 303.007 387.987 302.301 388.48C301.607 388.96 300.807 389.2 299.901 389.2ZM299.181 387.32C299.647 387.32 300.067 387.22 300.441 387.02C300.827 386.82 301.154 386.553 301.421 386.22C301.701 385.887 301.914 385.507 302.061 385.08C302.207 384.653 302.281 384.213 302.281 383.76C302.281 383.28 302.201 382.827 302.041 382.4C301.881 381.973 301.647 381.6 301.341 381.28C301.047 380.96 300.701 380.707 300.301 380.52C299.914 380.333 299.487 380.24 299.021 380.24C298.741 380.24 298.447 380.293 298.141 380.4C297.834 380.507 297.547 380.653 297.281 380.84C297.014 381.027 296.781 381.247 296.581 381.5C296.381 381.753 296.241 382.02 296.161 382.3V385.04C296.347 385.467 296.594 385.853 296.901 386.2C297.207 386.533 297.561 386.807 297.961 387.02C298.361 387.22 298.767 387.32 299.181 387.32ZM305.759 385.94C305.759 385.273 305.946 384.693 306.319 384.2C306.706 383.693 307.233 383.307 307.899 383.04C308.566 382.76 309.339 382.62 310.219 382.62C310.686 382.62 311.159 382.653 311.639 382.72C312.133 382.787 312.566 382.893 312.939 383.04V382.38C312.939 381.647 312.719 381.073 312.279 380.66C311.839 380.247 311.206 380.04 310.379 380.04C309.793 380.04 309.239 380.147 308.719 380.36C308.199 380.56 307.646 380.847 307.059 381.22L306.319 379.74C307.013 379.273 307.706 378.927 308.399 378.7C309.106 378.473 309.846 378.36 310.619 378.36C312.019 378.36 313.119 378.733 313.919 379.48C314.733 380.213 315.139 381.26 315.139 382.62V386.52C315.139 386.773 315.179 386.953 315.259 387.06C315.353 387.167 315.506 387.227 315.719 387.24V389C315.519 389.04 315.339 389.067 315.179 389.08C315.019 389.093 314.886 389.1 314.779 389.1C314.313 389.1 313.959 388.987 313.719 388.76C313.479 388.533 313.339 388.267 313.299 387.96L313.239 387.36C312.786 387.947 312.206 388.4 311.499 388.72C310.793 389.04 310.079 389.2 309.359 389.2C308.666 389.2 308.046 389.06 307.499 388.78C306.953 388.487 306.526 388.093 306.219 387.6C305.913 387.107 305.759 386.553 305.759 385.94ZM312.419 386.58C312.579 386.407 312.706 386.233 312.799 386.06C312.893 385.887 312.939 385.733 312.939 385.6V384.4C312.566 384.253 312.173 384.147 311.759 384.08C311.346 384 310.939 383.96 310.539 383.96C309.739 383.96 309.086 384.12 308.579 384.44C308.086 384.76 307.839 385.2 307.839 385.76C307.839 386.067 307.919 386.36 308.079 386.64C308.253 386.92 308.493 387.147 308.799 387.32C309.119 387.493 309.513 387.58 309.979 387.58C310.459 387.58 310.919 387.487 311.359 387.3C311.799 387.113 312.153 386.873 312.419 386.58ZM323.688 380.44C322.835 380.453 322.075 380.647 321.408 381.02C320.755 381.393 320.288 381.92 320.008 382.6V389H317.808V378.54H319.848V380.88C320.208 380.16 320.682 379.587 321.268 379.16C321.855 378.72 322.475 378.48 323.128 378.44C323.262 378.44 323.368 378.44 323.448 378.44C323.542 378.44 323.622 378.447 323.688 378.46V380.44ZM329.833 389.2C329.02 389.2 328.28 389.06 327.613 388.78C326.96 388.487 326.393 388.093 325.913 387.6C325.433 387.093 325.06 386.52 324.793 385.88C324.54 385.227 324.413 384.533 324.413 383.8C324.413 382.813 324.64 381.913 325.093 381.1C325.547 380.273 326.18 379.613 326.993 379.12C327.807 378.613 328.76 378.36 329.853 378.36C330.947 378.36 331.887 378.613 332.673 379.12C333.473 379.613 334.093 380.267 334.533 381.08C334.973 381.893 335.193 382.767 335.193 383.7C335.193 383.86 335.187 384.013 335.173 384.16C335.16 384.293 335.147 384.407 335.133 384.5H326.753C326.793 385.113 326.96 385.653 327.253 386.12C327.56 386.573 327.947 386.933 328.413 387.2C328.88 387.453 329.38 387.58 329.913 387.58C330.5 387.58 331.053 387.433 331.573 387.14C332.107 386.847 332.467 386.46 332.653 385.98L334.533 386.52C334.307 387.027 333.96 387.487 333.493 387.9C333.04 388.3 332.5 388.62 331.873 388.86C331.247 389.087 330.567 389.2 329.833 389.2ZM326.693 383.04H333.013C332.973 382.44 332.8 381.913 332.493 381.46C332.2 380.993 331.82 380.633 331.353 380.38C330.9 380.113 330.393 379.98 329.833 379.98C329.287 379.98 328.78 380.113 328.313 380.38C327.86 380.633 327.487 380.993 327.193 381.46C326.9 381.913 326.733 382.44 326.693 383.04ZM342.209 389V374.8H351.669V376.78H344.449V381.02H350.489V382.88H344.449V389H342.209ZM357.586 389.2C356.76 389.2 356.02 389.06 355.366 388.78C354.713 388.487 354.146 388.087 353.666 387.58C353.2 387.073 352.84 386.5 352.586 385.86C352.333 385.207 352.206 384.513 352.206 383.78C352.206 383.047 352.333 382.353 352.586 381.7C352.84 381.047 353.2 380.473 353.666 379.98C354.146 379.473 354.713 379.08 355.366 378.8C356.033 378.507 356.773 378.36 357.586 378.36C358.4 378.36 359.133 378.507 359.786 378.8C360.453 379.08 361.02 379.473 361.486 379.98C361.966 380.473 362.333 381.047 362.586 381.7C362.84 382.353 362.966 383.047 362.966 383.78C362.966 384.513 362.84 385.207 362.586 385.86C362.333 386.5 361.966 387.073 361.486 387.58C361.02 388.087 360.453 388.487 359.786 388.78C359.133 389.06 358.4 389.2 357.586 389.2ZM354.466 383.8C354.466 384.467 354.606 385.067 354.886 385.6C355.166 386.133 355.54 386.553 356.006 386.86C356.473 387.167 357 387.32 357.586 387.32C358.16 387.32 358.68 387.167 359.146 386.86C359.626 386.54 360.006 386.113 360.286 385.58C360.566 385.033 360.706 384.433 360.706 383.78C360.706 383.113 360.566 382.513 360.286 381.98C360.006 381.447 359.626 381.027 359.146 380.72C358.68 380.4 358.16 380.24 357.586 380.24C357 380.24 356.473 380.4 356.006 380.72C355.54 381.04 355.166 381.467 354.886 382C354.606 382.52 354.466 383.12 354.466 383.8ZM370.798 380.44C369.944 380.453 369.184 380.647 368.518 381.02C367.864 381.393 367.398 381.92 367.118 382.6V389H364.918V378.54H366.958V380.88C367.318 380.16 367.791 379.587 368.378 379.16C368.964 378.72 369.584 378.48 370.238 378.44C370.371 378.44 370.478 378.44 370.558 378.44C370.651 378.44 370.731 378.447 370.798 378.46V380.44ZM389.11 389V378.88L384.93 386.56H383.61L379.41 378.88V389H377.17V374.8H379.57L384.27 383.48L388.97 374.8H391.37V389H389.11ZM398.857 389.2C398.044 389.2 397.304 389.06 396.637 388.78C395.984 388.487 395.417 388.093 394.937 387.6C394.457 387.093 394.084 386.52 393.817 385.88C393.564 385.227 393.437 384.533 393.437 383.8C393.437 382.813 393.664 381.913 394.117 381.1C394.57 380.273 395.204 379.613 396.017 379.12C396.83 378.613 397.784 378.36 398.877 378.36C399.97 378.36 400.91 378.613 401.697 379.12C402.497 379.613 403.117 380.267 403.557 381.08C403.997 381.893 404.217 382.767 404.217 383.7C404.217 383.86 404.21 384.013 404.197 384.16C404.184 384.293 404.17 384.407 404.157 384.5H395.777C395.817 385.113 395.984 385.653 396.277 386.12C396.584 386.573 396.97 386.933 397.437 387.2C397.904 387.453 398.404 387.58 398.937 387.58C399.524 387.58 400.077 387.433 400.597 387.14C401.13 386.847 401.49 386.46 401.677 385.98L403.557 386.52C403.33 387.027 402.984 387.487 402.517 387.9C402.064 388.3 401.524 388.62 400.897 388.86C400.27 389.087 399.59 389.2 398.857 389.2ZM395.717 383.04H402.037C401.997 382.44 401.824 381.913 401.517 381.46C401.224 380.993 400.844 380.633 400.377 380.38C399.924 380.113 399.417 379.98 398.857 379.98C398.31 379.98 397.804 380.113 397.337 380.38C396.884 380.633 396.51 380.993 396.217 381.46C395.924 381.913 395.757 382.44 395.717 383.04ZM405.351 383.78C405.351 382.78 405.551 381.873 405.951 381.06C406.365 380.233 406.925 379.58 407.631 379.1C408.338 378.607 409.151 378.36 410.071 378.36C410.871 378.36 411.591 378.567 412.231 378.98C412.885 379.393 413.391 379.907 413.751 380.52V374.4H415.951V386.52C415.951 386.773 415.998 386.953 416.091 387.06C416.185 387.167 416.338 387.227 416.551 387.24V389C416.138 389.067 415.818 389.1 415.591 389.1C415.178 389.1 414.825 388.98 414.531 388.74C414.251 388.5 414.105 388.213 414.091 387.88L414.071 387.1C413.671 387.767 413.131 388.287 412.451 388.66C411.771 389.02 411.065 389.2 410.331 389.2C409.611 389.2 408.945 389.06 408.331 388.78C407.731 388.5 407.205 388.107 406.751 387.6C406.311 387.093 405.965 386.513 405.711 385.86C405.471 385.207 405.351 384.513 405.351 383.78ZM413.751 385.24V382.5C413.605 382.073 413.365 381.693 413.031 381.36C412.711 381.013 412.345 380.74 411.931 380.54C411.531 380.34 411.131 380.24 410.731 380.24C410.265 380.24 409.838 380.34 409.451 380.54C409.078 380.74 408.751 381.007 408.471 381.34C408.205 381.673 407.998 382.053 407.851 382.48C407.705 382.907 407.631 383.353 407.631 383.82C407.631 384.3 407.711 384.753 407.871 385.18C408.031 385.593 408.258 385.967 408.551 386.3C408.858 386.62 409.205 386.873 409.591 387.06C409.991 387.233 410.425 387.32 410.891 387.32C411.185 387.32 411.478 387.267 411.771 387.16C412.078 387.053 412.365 386.907 412.631 386.72C412.911 386.533 413.145 386.313 413.331 386.06C413.531 385.807 413.671 385.533 413.751 385.24ZM418.746 389V378.54H420.946V389H418.746ZM418.746 376.82V374.4H420.946V376.82H418.746ZM428.33 389.2C427.516 389.2 426.776 389.06 426.11 388.78C425.456 388.487 424.89 388.087 424.41 387.58C423.93 387.073 423.556 386.493 423.29 385.84C423.036 385.187 422.91 384.493 422.91 383.76C422.91 382.773 423.13 381.873 423.57 381.06C424.023 380.247 424.65 379.593 425.45 379.1C426.263 378.607 427.223 378.36 428.33 378.36C429.396 378.36 430.323 378.6 431.11 379.08C431.91 379.547 432.496 380.173 432.87 380.96L430.73 381.64C430.49 381.2 430.15 380.86 429.71 380.62C429.283 380.367 428.81 380.24 428.29 380.24C427.703 380.24 427.17 380.393 426.69 380.7C426.223 380.993 425.85 381.407 425.57 381.94C425.303 382.46 425.17 383.067 425.17 383.76C425.17 384.427 425.31 385.033 425.59 385.58C425.87 386.113 426.243 386.54 426.71 386.86C427.19 387.167 427.723 387.32 428.31 387.32C428.67 387.32 429.016 387.26 429.35 387.14C429.696 387.007 429.996 386.833 430.25 386.62C430.503 386.393 430.683 386.147 430.79 385.88L432.95 386.52C432.723 387.04 432.383 387.5 431.93 387.9C431.49 388.3 430.963 388.62 430.35 388.86C429.75 389.087 429.076 389.2 428.33 389.2ZM434.001 385.94C434.001 385.273 434.188 384.693 434.561 384.2C434.948 383.693 435.475 383.307 436.141 383.04C436.808 382.76 437.581 382.62 438.461 382.62C438.928 382.62 439.401 382.653 439.881 382.72C440.375 382.787 440.808 382.893 441.181 383.04V382.38C441.181 381.647 440.961 381.073 440.521 380.66C440.081 380.247 439.448 380.04 438.621 380.04C438.035 380.04 437.481 380.147 436.961 380.36C436.441 380.56 435.888 380.847 435.301 381.22L434.561 379.74C435.255 379.273 435.948 378.927 436.641 378.7C437.348 378.473 438.088 378.36 438.861 378.36C440.261 378.36 441.361 378.733 442.161 379.48C442.975 380.213 443.381 381.26 443.381 382.62V386.52C443.381 386.773 443.421 386.953 443.501 387.06C443.595 387.167 443.748 387.227 443.961 387.24V389C443.761 389.04 443.581 389.067 443.421 389.08C443.261 389.093 443.128 389.1 443.021 389.1C442.555 389.1 442.201 388.987 441.961 388.76C441.721 388.533 441.581 388.267 441.541 387.96L441.481 387.36C441.028 387.947 440.448 388.4 439.741 388.72C439.035 389.04 438.321 389.2 437.601 389.2C436.908 389.2 436.288 389.06 435.741 388.78C435.195 388.487 434.768 388.093 434.461 387.6C434.155 387.107 434.001 386.553 434.001 385.94ZM440.661 386.58C440.821 386.407 440.948 386.233 441.041 386.06C441.135 385.887 441.181 385.733 441.181 385.6V384.4C440.808 384.253 440.415 384.147 440.001 384.08C439.588 384 439.181 383.96 438.781 383.96C437.981 383.96 437.328 384.12 436.821 384.44C436.328 384.76 436.081 385.2 436.081 385.76C436.081 386.067 436.161 386.36 436.321 386.64C436.495 386.92 436.735 387.147 437.041 387.32C437.361 387.493 437.755 387.58 438.221 387.58C438.701 387.58 439.161 387.487 439.601 387.3C440.041 387.113 440.395 386.873 440.661 386.58ZM446.07 374.4H448.27V385.98C448.27 386.513 448.35 386.853 448.51 387C448.67 387.147 448.87 387.22 449.11 387.22C449.377 387.22 449.624 387.193 449.85 387.14C450.09 387.087 450.297 387.02 450.47 386.94L450.79 388.68C450.47 388.813 450.09 388.927 449.65 389.02C449.21 389.113 448.817 389.16 448.47 389.16C447.724 389.16 447.137 388.953 446.71 388.54C446.284 388.113 446.07 387.527 446.07 386.78V374.4ZM272.34 415.02V417H262.6V402.8H272.16V404.78H264.84V408.82H271.18V410.68H264.84V415.02H272.34ZM283.673 417H281.473V411.14C281.473 410.167 281.313 409.453 280.993 409C280.686 408.547 280.226 408.32 279.613 408.32C279.186 408.32 278.759 408.427 278.333 408.64C277.919 408.853 277.546 409.147 277.213 409.52C276.879 409.88 276.639 410.3 276.493 410.78V417H274.293V406.54H276.293V408.64C276.559 408.173 276.906 407.773 277.333 407.44C277.773 407.093 278.266 406.827 278.813 406.64C279.359 406.453 279.939 406.36 280.553 406.36C281.179 406.36 281.693 406.473 282.093 406.7C282.506 406.927 282.826 407.24 283.053 407.64C283.293 408.027 283.453 408.48 283.533 409C283.626 409.507 283.673 410.047 283.673 410.62V417ZM291.968 416.46C291.781 416.553 291.548 416.653 291.268 416.76C290.988 416.867 290.668 416.96 290.308 417.04C289.961 417.12 289.601 417.16 289.228 417.16C288.775 417.16 288.355 417.08 287.968 416.92C287.581 416.76 287.268 416.507 287.028 416.16C286.801 415.8 286.688 415.34 286.688 414.78V408.24H285.308V406.54H286.688V403.1H288.888V406.54H291.168V408.24H288.888V414.08C288.915 414.44 289.028 414.707 289.228 414.88C289.441 415.053 289.701 415.14 290.008 415.14C290.315 415.14 290.608 415.087 290.888 414.98C291.168 414.873 291.375 414.787 291.508 414.72L291.968 416.46ZM299.372 408.44C298.519 408.453 297.759 408.647 297.092 409.02C296.439 409.393 295.972 409.92 295.692 410.6V417H293.492V406.54H295.532V408.88C295.892 408.16 296.365 407.587 296.952 407.16C297.539 406.72 298.159 406.48 298.812 406.44C298.945 406.44 299.052 406.44 299.132 406.44C299.225 406.44 299.305 406.447 299.372 406.46V408.44ZM300.193 413.94C300.193 413.273 300.379 412.693 300.753 412.2C301.139 411.693 301.666 411.307 302.333 411.04C302.999 410.76 303.773 410.62 304.653 410.62C305.119 410.62 305.593 410.653 306.073 410.72C306.566 410.787 306.999 410.893 307.373 411.04V410.38C307.373 409.647 307.153 409.073 306.713 408.66C306.273 408.247 305.639 408.04 304.813 408.04C304.226 408.04 303.673 408.147 303.153 408.36C302.633 408.56 302.079 408.847 301.493 409.22L300.753 407.74C301.446 407.273 302.139 406.927 302.833 406.7C303.539 406.473 304.279 406.36 305.053 406.36C306.453 406.36 307.553 406.733 308.353 407.48C309.166 408.213 309.573 409.26 309.573 410.62V414.52C309.573 414.773 309.613 414.953 309.693 415.06C309.786 415.167 309.939 415.227 310.153 415.24V417C309.953 417.04 309.773 417.067 309.613 417.08C309.453 417.093 309.319 417.1 309.213 417.1C308.746 417.1 308.393 416.987 308.153 416.76C307.913 416.533 307.773 416.267 307.733 415.96L307.673 415.36C307.219 415.947 306.639 416.4 305.933 416.72C305.226 417.04 304.513 417.2 303.793 417.2C303.099 417.2 302.479 417.06 301.933 416.78C301.386 416.487 300.959 416.093 300.653 415.6C300.346 415.107 300.193 414.553 300.193 413.94ZM306.853 414.58C307.013 414.407 307.139 414.233 307.233 414.06C307.326 413.887 307.373 413.733 307.373 413.6V412.4C306.999 412.253 306.606 412.147 306.193 412.08C305.779 412 305.373 411.96 304.973 411.96C304.173 411.96 303.519 412.12 303.013 412.44C302.519 412.76 302.273 413.2 302.273 413.76C302.273 414.067 302.353 414.36 302.513 414.64C302.686 414.92 302.926 415.147 303.233 415.32C303.553 415.493 303.946 415.58 304.413 415.58C304.893 415.58 305.353 415.487 305.793 415.3C306.233 415.113 306.586 414.873 306.853 414.58ZM321.622 417H319.422V411.14C319.422 410.167 319.262 409.453 318.942 409C318.635 408.547 318.175 408.32 317.562 408.32C317.135 408.32 316.709 408.427 316.282 408.64C315.869 408.853 315.495 409.147 315.162 409.52C314.829 409.88 314.589 410.3 314.442 410.78V417H312.242V406.54H314.242V408.64C314.509 408.173 314.855 407.773 315.282 407.44C315.722 407.093 316.215 406.827 316.762 406.64C317.309 406.453 317.889 406.36 318.502 406.36C319.129 406.36 319.642 406.473 320.042 406.7C320.455 406.927 320.775 407.24 321.002 407.64C321.242 408.027 321.402 408.48 321.482 409C321.575 409.507 321.622 410.047 321.622 410.62V417ZM328.915 417.2C328.102 417.2 327.362 417.06 326.695 416.78C326.042 416.487 325.475 416.087 324.995 415.58C324.515 415.073 324.142 414.493 323.875 413.84C323.622 413.187 323.495 412.493 323.495 411.76C323.495 410.773 323.715 409.873 324.155 409.06C324.609 408.247 325.235 407.593 326.035 407.1C326.849 406.607 327.809 406.36 328.915 406.36C329.982 406.36 330.909 406.6 331.695 407.08C332.495 407.547 333.082 408.173 333.455 408.96L331.315 409.64C331.075 409.2 330.735 408.86 330.295 408.62C329.869 408.367 329.395 408.24 328.875 408.24C328.289 408.24 327.755 408.393 327.275 408.7C326.809 408.993 326.435 409.407 326.155 409.94C325.889 410.46 325.755 411.067 325.755 411.76C325.755 412.427 325.895 413.033 326.175 413.58C326.455 414.113 326.829 414.54 327.295 414.86C327.775 415.167 328.309 415.32 328.895 415.32C329.255 415.32 329.602 415.26 329.935 415.14C330.282 415.007 330.582 414.833 330.835 414.62C331.089 414.393 331.269 414.147 331.375 413.88L333.535 414.52C333.309 415.04 332.969 415.5 332.515 415.9C332.075 416.3 331.549 416.62 330.935 416.86C330.335 417.087 329.662 417.2 328.915 417.2ZM339.99 417.2C339.176 417.2 338.436 417.06 337.77 416.78C337.116 416.487 336.55 416.093 336.07 415.6C335.59 415.093 335.216 414.52 334.95 413.88C334.696 413.227 334.57 412.533 334.57 411.8C334.57 410.813 334.796 409.913 335.25 409.1C335.703 408.273 336.336 407.613 337.15 407.12C337.963 406.613 338.916 406.36 340.01 406.36C341.103 406.36 342.043 406.613 342.83 407.12C343.63 407.613 344.25 408.267 344.69 409.08C345.13 409.893 345.35 410.767 345.35 411.7C345.35 411.86 345.343 412.013 345.33 412.16C345.316 412.293 345.303 412.407 345.29 412.5H336.91C336.95 413.113 337.116 413.653 337.41 414.12C337.716 414.573 338.103 414.933 338.57 415.2C339.036 415.453 339.536 415.58 340.07 415.58C340.656 415.58 341.21 415.433 341.73 415.14C342.263 414.847 342.623 414.46 342.81 413.98L344.69 414.52C344.463 415.027 344.116 415.487 343.65 415.9C343.196 416.3 342.656 416.62 342.03 416.86C341.403 417.087 340.723 417.2 339.99 417.2ZM336.85 411.04H343.17C343.13 410.44 342.956 409.913 342.65 409.46C342.356 408.993 341.976 408.633 341.51 408.38C341.056 408.113 340.55 407.98 339.99 407.98C339.443 407.98 338.936 408.113 338.47 408.38C338.016 408.633 337.643 408.993 337.35 409.46C337.056 409.913 336.89 410.44 336.85 411.04Z" fill="#508EBD"/>
<rect x="684" y="516" width="108" height="34" rx="6.56186" fill="#3442D9"/>
<path d="M700.336 537V528.48H701.68V535.812H706.252V537H700.336ZM713.188 535.812V537H707.344V528.48H713.08V529.668H708.688V532.092H712.492V533.208H708.688V535.812H713.188ZM717.035 528.48H718.307L721.619 537H720.203L719.303 534.684H716.015L715.127 537H713.699L717.035 528.48ZM719.039 533.688L717.671 529.956L716.255 533.688H719.039ZM722.672 537V528.48H726.38C726.764 528.48 727.116 528.56 727.436 528.72C727.756 528.88 728.032 529.092 728.264 529.356C728.504 529.62 728.688 529.916 728.816 530.244C728.952 530.572 729.02 530.908 729.02 531.252C729.02 531.628 728.952 531.988 728.816 532.332C728.68 532.676 728.484 532.972 728.228 533.22C727.98 533.468 727.688 533.648 727.352 533.76L729.356 537H727.844L725.996 534.036H724.016V537H722.672ZM724.016 532.848H726.368C726.616 532.848 726.836 532.776 727.028 532.632C727.22 532.488 727.372 532.296 727.484 532.056C727.596 531.808 727.652 531.54 727.652 531.252C727.652 530.956 727.588 530.692 727.46 530.46C727.332 530.22 727.164 530.028 726.956 529.884C726.756 529.74 726.536 529.668 726.296 529.668H724.016V532.848ZM731.95 530.976V537H730.606V528.48H731.71L736.534 534.636V528.492H737.89V537H736.714L731.95 530.976ZM749.934 537V530.928L747.426 535.536H746.634L744.114 530.928V537H742.77V528.48H744.21L747.03 533.688L749.85 528.48H751.29V537H749.934ZM756.751 537.06C756.135 537.06 755.579 536.94 755.083 536.7C754.587 536.46 754.159 536.136 753.799 535.728C753.439 535.312 753.159 534.848 752.959 534.336C752.767 533.816 752.671 533.284 752.671 532.74C752.671 532.172 752.775 531.632 752.983 531.12C753.191 530.6 753.479 530.14 753.847 529.74C754.215 529.332 754.647 529.012 755.143 528.78C755.647 528.54 756.191 528.42 756.775 528.42C757.383 528.42 757.935 528.544 758.431 528.792C758.935 529.04 759.363 529.372 759.715 529.788C760.075 530.204 760.351 530.668 760.543 531.18C760.743 531.692 760.843 532.216 760.843 532.752C760.843 533.32 760.739 533.864 760.531 534.384C760.331 534.896 760.047 535.356 759.679 535.764C759.311 536.164 758.875 536.48 758.371 536.712C757.875 536.944 757.335 537.06 756.751 537.06ZM754.039 532.74C754.039 533.14 754.103 533.528 754.231 533.904C754.359 534.28 754.539 534.616 754.771 534.912C755.011 535.2 755.299 535.428 755.635 535.596C755.971 535.764 756.347 535.848 756.763 535.848C757.195 535.848 757.579 535.76 757.915 535.584C758.251 535.408 758.531 535.172 758.755 534.876C758.987 534.572 759.163 534.236 759.283 533.868C759.403 533.492 759.463 533.116 759.463 532.74C759.463 532.34 759.399 531.956 759.271 531.588C759.151 531.212 758.971 530.88 758.731 530.592C758.491 530.296 758.203 530.064 757.867 529.896C757.539 529.728 757.171 529.644 756.763 529.644C756.331 529.644 755.947 529.732 755.611 529.908C755.275 530.084 754.991 530.32 754.759 530.616C754.527 530.912 754.347 531.244 754.219 531.612C754.099 531.98 754.039 532.356 754.039 532.74ZM762.235 537V528.48H765.943C766.327 528.48 766.679 528.56 766.999 528.72C767.319 528.88 767.595 529.092 767.827 529.356C768.067 529.62 768.251 529.916 768.379 530.244C768.515 530.572 768.583 530.908 768.583 531.252C768.583 531.628 768.515 531.988 768.379 532.332C768.243 532.676 768.047 532.972 767.791 533.22C767.543 533.468 767.251 533.648 766.915 533.76L768.919 537H767.407L765.559 534.036H763.579V537H762.235ZM763.579 532.848H765.931C766.179 532.848 766.399 532.776 766.591 532.632C766.783 532.488 766.935 532.296 767.047 532.056C767.159 531.808 767.215 531.54 767.215 531.252C767.215 530.956 767.151 530.692 767.023 530.46C766.895 530.22 766.727 530.028 766.519 529.884C766.319 529.74 766.099 529.668 765.859 529.668H763.579V532.848ZM776.012 535.812V537H770.168V528.48H775.904V529.668H771.512V532.092H775.316V533.208H771.512V535.812H776.012Z" fill="white"/>
<defs>
<filter id="filter0_d_378_8244" x="228" y="201" width="598" height="401" filterUnits="userSpaceOnUse" color-interpolation-filters="sRGB">
<feFlood flood-opacity="0" result="BackgroundImageFix"/>
<feColorMatrix in="SourceAlpha" type="matrix" values="0 0 0 0 0 0 0 0 0 0 0 0 0 0 0 0 0 0 127 0" result="hardAlpha"/>
<feOffset dy="4"/>
<feGaussianBlur stdDeviation="2"/>
<feComposite in2="hardAlpha" operator="out"/>
<feColorMatrix type="matrix" values="0 0 0 0 0 0 0 0 0 0 0 0 0 0 0 0 0 0 0.25 0"/>
<feBlend mode="normal" in2="BackgroundImageFix" result="effect1_dropShadow_378_8244"/>
<feBlend mode="normal" in="SourceGraphic" in2="effect1_dropShadow_378_8244" result="shape"/>
</filter>
<filter id="filter1_f_378_8244" x="169" y="63" width="648" height="653" filterUnits="userSpaceOnUse" color-interpolation-filters="sRGB">
<feFlood flood-opacity="0" result="BackgroundImageFix"/>
<feBlend mode="normal" in="SourceGraphic" in2="BackgroundImageFix" result="shape"/>
<feGaussianBlur stdDeviation="127" result="effect1_foregroundBlur_378_8244"/>
</filter>
<filter id="filter2_f_378_8244" x="385" y="171" width="619" height="619" filterUnits="userSpaceOnUse" color-interpolation-filters="sRGB">
<feFlood flood-opacity="0" result="BackgroundImageFix"/>
<feBlend mode="normal" in="SourceGraphic" in2="BackgroundImageFix" result="shape"/>
<feGaussianBlur stdDeviation="127" result="effect1_foregroundBlur_378_8244"/>
</filter>
<filter id="filter3_f_378_8244" x="0" y="0" width="587" height="589" filterUnits="userSpaceOnUse" color-interpolation-filters="sRGB">
<feFlood flood-opacity="0" result="BackgroundImageFix"/>
<feBlend mode="normal" in="SourceGraphic" in2="BackgroundImageFix" result="shape"/>
<feGaussianBlur stdDeviation="127" result="effect1_foregroundBlur_378_8244"/>
</filter>
<filter id="filter4_d_378_8244" x="228" y="192" width="598" height="401" filterUnits="userSpaceOnUse" color-interpolation-filters="sRGB">
<feFlood flood-opacity="0" result="BackgroundImageFix"/>
<feColorMatrix in="SourceAlpha" type="matrix" values="0 0 0 0 0 0 0 0 0 0 0 0 0 0 0 0 0 0 127 0" result="hardAlpha"/>
<feOffset dy="4"/>
<feGaussianBlur stdDeviation="2"/>
<feComposite in2="hardAlpha" operator="out"/>
<feColorMatrix type="matrix" values="0 0 0 0 0 0 0 0 0 0 0 0 0 0 0 0 0 0 0.25 0"/>
<feBlend mode="normal" in2="BackgroundImageFix" result="effect1_dropShadow_378_8244"/>
<feBlend mode="normal" in="SourceGraphic" in2="effect1_dropShadow_378_8244" result="shape"/>
</filter>
</defs>
</svg>
