<svg width="340" height="38" viewBox="0 0 340 38" fill="none" xmlns="http://www.w3.org/2000/svg">
<line x1="-4.37114e-08" y1="18.5" x2="340" y2="18.5" stroke="url(#paint0_linear_693_5622)"/>
<circle cx="172" cy="19" r="19" fill="#CC9B2B"/>
<path d="M173.958 19.1818C173.958 15.4205 171.663 13.2045 168.612 13.2045C165.555 13.2045 163.265 15.4205 163.265 19.1818C163.265 22.9375 165.555 25.1591 168.612 25.1591C171.663 25.1591 173.958 22.9432 173.958 19.1818ZM171.839 19.1818C171.839 21.8295 170.509 23.267 168.612 23.267C166.72 23.267 165.384 21.8295 165.384 19.1818C165.384 16.5341 166.72 15.0966 168.612 15.0966C170.509 15.0966 171.839 16.5341 171.839 19.1818ZM176.3 25H178.357V19.8693C178.357 18.7614 179.192 17.9773 180.323 17.9773C180.67 17.9773 181.101 18.0398 181.278 18.0966V16.2045C181.09 16.1705 180.766 16.1477 180.539 16.1477C179.539 16.1477 178.704 16.7159 178.385 17.7273H178.295V16.2727H176.3V25Z" fill="black"/>
<defs>
<linearGradient id="paint0_linear_693_5622" x1="56.5358" y1="18.9999" x2="303.88" y2="18.9997" gradientUnits="userSpaceOnUse">
<stop stop-color="#FFEC00"/>
<stop offset="0.441379" stop-color="#CC9B2B"/>
<stop offset="1" stop-color="#CC9B2B" stop-opacity="0.31"/>
</linearGradient>
</defs>
</svg>
