<svg width="22" height="40" viewBox="0 0 22 40" fill="none" xmlns="http://www.w3.org/2000/svg">
<path fill-rule="evenodd" clip-rule="evenodd" d="M0.817286 18.3188C0.293931 18.87 -7.54478e-05 19.6175 -7.54801e-05 20.3969C-7.55125e-05 21.1763 0.293931 21.9238 0.817286 22.475L16.6097 39.1027C16.8673 39.3834 17.1753 39.6073 17.5159 39.7614C17.8565 39.9154 18.2228 39.9965 18.5935 39.9999C18.9642 40.0033 19.3318 39.9289 19.6749 39.7811C20.018 39.6333 20.3296 39.4151 20.5918 39.1391C20.8539 38.8631 21.0612 38.5349 21.2015 38.1737C21.3419 37.8125 21.4125 37.4254 21.4093 37.0352C21.4061 36.6449 21.3291 36.2592 21.1828 35.9006C21.0365 35.542 20.8238 35.2176 20.5572 34.9465L6.73841 20.3969L20.5572 5.84737C21.0657 5.29301 21.3471 4.55054 21.3407 3.77987C21.3344 3.00919 21.0408 2.27198 20.5232 1.727C20.0056 1.18203 19.3054 0.872909 18.5734 0.866211C17.8414 0.859512 17.1363 1.15578 16.6097 1.6912L0.817286 18.3188Z" fill="#C77E2E"/>
</svg>
