<svg width="24" height="22" viewBox="0 0 24 22" fill="none" xmlns="http://www.w3.org/2000/svg">
<g clip-path="url(#clip0_709_7576)">
<path d="M12 13.75C13.6569 13.75 15 12.5188 15 11C15 9.48122 13.6569 8.25 12 8.25C10.3431 8.25 9 9.48122 9 11C9 12.5188 10.3431 13.75 12 13.75Z" stroke="#6F7384" stroke-width="2" stroke-linecap="round" stroke-linejoin="round"/>
<path d="M19.4 13.7503C19.2669 14.0268 19.2272 14.3335 19.286 14.6309C19.3448 14.9282 19.4995 15.2026 19.73 15.4187L19.79 15.4737C19.976 15.6439 20.1235 15.8461 20.2241 16.0687C20.3248 16.2912 20.3766 16.5298 20.3766 16.7707C20.3766 17.0117 20.3248 17.2502 20.2241 17.4728C20.1235 17.6954 19.976 17.8976 19.79 18.0678C19.6043 18.2383 19.3837 18.3735 19.1409 18.4658C18.8981 18.558 18.6378 18.6055 18.375 18.6055C18.1122 18.6055 17.8519 18.558 17.6091 18.4658C17.3663 18.3735 17.1457 18.2383 16.96 18.0678L16.9 18.0128C16.6643 17.8015 16.365 17.6597 16.0406 17.6058C15.7162 17.5519 15.3816 17.5883 15.08 17.7103C14.7842 17.8265 14.532 18.0195 14.3543 18.2654C14.1766 18.5113 14.0813 18.7995 14.08 19.0945V19.2503C14.08 19.7366 13.8693 20.2029 13.4942 20.5467C13.1191 20.8905 12.6104 21.0837 12.08 21.0837C11.5496 21.0837 11.0409 20.8905 10.6658 20.5467C10.2907 20.2029 10.08 19.7366 10.08 19.2503V19.1678C10.0723 18.8644 9.96512 18.5702 9.77251 18.3233C9.5799 18.0764 9.31074 17.8884 9 17.7837C8.69838 17.6616 8.36381 17.6252 8.03941 17.6792C7.71502 17.7331 7.41568 17.8748 7.18 18.0862L7.12 18.1412C6.93425 18.3116 6.71368 18.4468 6.47088 18.5391C6.22808 18.6314 5.96783 18.6789 5.705 18.6789C5.44217 18.6789 5.18192 18.6314 4.93912 18.5391C4.69632 18.4468 4.47575 18.3116 4.29 18.1412C4.10405 17.9709 3.95653 17.7687 3.85588 17.5461C3.75523 17.3236 3.70343 17.085 3.70343 16.8441C3.70343 16.6031 3.75523 16.3646 3.85588 16.142C3.95653 15.9195 4.10405 15.7173 4.29 15.547L4.35 15.492C4.58054 15.276 4.73519 15.0016 4.794 14.7042C4.85282 14.4068 4.81312 14.1001 4.68 13.8237C4.55324 13.5525 4.34276 13.3213 4.07447 13.1584C3.80618 12.9956 3.49179 12.9082 3.17 12.907H3C2.46957 12.907 1.96086 12.7138 1.58579 12.37C1.21071 12.0262 1 11.5599 1 11.0737C1 10.5874 1.21071 10.1211 1.58579 9.7773C1.96086 9.43348 2.46957 9.24033 3 9.24033H3.09C3.42099 9.23323 3.742 9.13502 4.0113 8.95846C4.28059 8.7819 4.48572 8.53517 4.6 8.25033C4.73312 7.97384 4.77282 7.66715 4.714 7.36979C4.65519 7.07242 4.50054 6.79803 4.27 6.58199L4.21 6.52699C4.02405 6.35672 3.87653 6.15453 3.77588 5.93197C3.67523 5.7094 3.62343 5.47084 3.62343 5.22991C3.62343 4.98898 3.67523 4.75041 3.77588 4.52785C3.87653 4.30529 4.02405 4.10309 4.21 3.93283C4.39575 3.76237 4.61632 3.62714 4.85912 3.53488C5.10192 3.44262 5.36217 3.39513 5.625 3.39513C5.88783 3.39513 6.14808 3.44262 6.39088 3.53488C6.63368 3.62714 6.85425 3.76237 7.04 3.93283L7.1 3.98783C7.33568 4.19915 7.63502 4.34091 7.95941 4.39483C8.28381 4.44875 8.61838 4.41235 8.92 4.29033H9C9.29577 4.17413 9.54802 3.98118 9.72569 3.73525C9.90337 3.48932 9.99872 3.20113 10 2.90616V2.75033C10 2.2641 10.2107 1.79778 10.5858 1.45396C10.9609 1.11015 11.4696 0.916992 12 0.916992C12.5304 0.916992 13.0391 1.11015 13.4142 1.45396C13.7893 1.79778 14 2.2641 14 2.75033V2.83283C14.0013 3.1278 14.0966 3.41599 14.2743 3.66192C14.452 3.90785 14.7042 4.10079 15 4.21699C15.3016 4.33901 15.6362 4.37541 15.9606 4.3215C16.285 4.26758 16.5843 4.12582 16.82 3.91449L16.88 3.85949C17.0657 3.68904 17.2863 3.55381 17.5291 3.46155C17.7719 3.36929 18.0322 3.3218 18.295 3.3218C18.5578 3.3218 18.8181 3.36929 19.0609 3.46155C19.3037 3.55381 19.5243 3.68904 19.71 3.85949C19.896 4.02976 20.0435 4.23196 20.1441 4.45452C20.2448 4.67708 20.2966 4.91565 20.2966 5.15658C20.2966 5.3975 20.2448 5.63607 20.1441 5.85863C20.0435 6.0812 19.896 6.28339 19.71 6.45366L19.65 6.50866C19.4195 6.7247 19.2648 6.99909 19.206 7.29645C19.1472 7.59381 19.1869 7.90051 19.32 8.17699V8.25033C19.4468 8.52145 19.6572 8.75267 19.9255 8.91554C20.1938 9.07841 20.5082 9.16582 20.83 9.16699H21C21.5304 9.16699 22.0391 9.36015 22.4142 9.70396C22.7893 10.0478 23 10.5141 23 11.0003C23 11.4866 22.7893 11.9529 22.4142 12.2967C22.0391 12.6405 21.5304 12.8337 21 12.8337H20.91C20.5882 12.8348 20.2738 12.9222 20.0055 13.0851C19.7372 13.248 19.5268 13.4792 19.4 13.7503Z" stroke="#6F7384" stroke-width="2" stroke-linecap="round" stroke-linejoin="round"/>
</g>
<defs>
<clipPath id="clip0_709_7576">
<rect width="24" height="22" fill="white"/>
</clipPath>
</defs>
</svg>
