<svg width="99" height="46" viewBox="0 0 99 46" fill="none" xmlns="http://www.w3.org/2000/svg">
<path d="M11.1744 2.22653L13.8629 7.67327L19.8752 8.55205L15.5248 12.7894L16.5515 18.7756L11.1744 15.9478L5.79724 18.7756L6.82394 12.7894L2.47351 8.55205L8.4858 7.67327L11.1744 2.22653Z" fill="#161618"/>
<path d="M30.3161 2.22659L33.0047 7.67333L39.017 8.55211L34.6666 12.7894L35.6933 18.7756L30.3161 15.9478L24.939 18.7756L25.9657 12.7894L21.6153 8.55211L27.6276 7.67333L30.3161 2.22659Z" fill="#161618"/>
<path d="M49.4581 2.22659L52.1467 7.67333L58.159 8.55211L53.8085 12.7894L54.8352 18.7756L49.4581 15.9478L44.081 18.7756L45.1077 12.7894L40.7573 8.55211L46.7696 7.67333L49.4581 2.22659Z" fill="#161618"/>
<path d="M68.6 2.22659L71.2886 7.67333L77.3009 8.55211L72.9504 12.7894L73.9771 18.7756L68.6 15.9478L63.2229 18.7756L64.2496 12.7894L59.8992 8.55211L65.9115 7.67333L68.6 2.22659Z" fill="#161618"/>
<path d="M87.7418 2.71803L90.2353 7.76961C90.2669 7.83374 90.3281 7.87822 90.3989 7.88856L95.9753 8.70364L91.9404 12.6336C91.8891 12.6836 91.8657 12.7556 91.8778 12.8262L92.83 18.3779L87.843 15.7553C87.7796 15.722 87.7039 15.722 87.6405 15.7553L82.6536 18.3779L83.6057 12.8262C83.6178 12.7556 83.5944 12.6836 83.5431 12.6336L79.5082 8.70364L85.0847 7.88856C85.1554 7.87822 85.2166 7.83374 85.2483 7.76961L87.7418 2.71803Z" stroke="#161618" stroke-width="0.435043" stroke-linecap="round" stroke-linejoin="round"/>
<path d="M87.7418 15.9478L87.7418 2.22659L85.0532 7.67333L79.0409 8.55211L83.3914 12.7894L82.3646 18.7756L87.7418 15.9478Z" fill="#161618"/>
<path d="M1.19616 35.5041C1.19616 34.6758 1.3667 33.8597 1.70777 33.0557C2.05697 32.2436 2.47519 31.4194 2.96244 30.5829L3.99784 31.0214C3.85166 31.2326 3.68925 31.5087 3.51059 31.8498C3.34005 32.1908 3.17358 32.5725 3.01116 32.9948C2.84874 33.409 2.71475 33.8353 2.60918 34.2738C2.50361 34.7042 2.45082 35.1265 2.45082 35.5407C2.45082 36.1822 2.58888 36.8644 2.86499 37.5871C3.14109 38.3099 3.50653 39.0448 3.96129 39.7919L2.9868 40.2913C2.64572 39.7797 2.33713 39.26 2.06103 38.7321C1.79304 38.2043 1.5819 37.6683 1.4276 37.1242C1.27331 36.572 1.19616 36.032 1.19616 35.5041ZM12.7923 38.5129L12.7923 39.7188L8.13906 39.7188L8.13906 38.5129L9.86879 38.5129L9.86879 34.2616C9.7957 34.3591 9.68201 34.4606 9.52772 34.5662C9.37342 34.6717 9.19883 34.7732 9.00393 34.8707C8.81715 34.96 8.62631 35.0331 8.43141 35.09C8.23651 35.1468 8.05785 35.1752 7.89544 35.1752L7.89544 33.9206C8.05785 33.9206 8.24463 33.8718 8.45577 33.7744C8.66691 33.6769 8.87399 33.5632 9.07701 33.4333C9.28815 33.2953 9.46681 33.1653 9.61299 33.0435C9.75916 32.9136 9.84443 32.8202 9.86879 32.7633L11.2453 32.7633L11.2453 38.5129L12.7923 38.5129ZM19.939 36.1497C19.939 36.8644 19.801 37.5018 19.5249 38.0622C19.2569 38.6144 18.8874 39.0488 18.4164 39.3656C17.9535 39.6823 17.4216 39.8406 16.8206 39.8406C16.2278 39.8406 15.6959 39.6823 15.2249 39.3656C14.7539 39.0488 14.3803 38.6144 14.1042 38.0622C13.8362 37.5018 13.7023 36.8644 13.7023 36.1497C13.7023 35.4351 13.8362 34.8017 14.1042 34.2495C14.3803 33.6891 14.7539 33.2506 15.2249 32.9339C15.6959 32.6091 16.2278 32.4466 16.8206 32.4466C17.4216 32.4466 17.9535 32.6091 18.4164 32.9339C18.8874 33.2506 19.2569 33.6891 19.5249 34.2495C19.801 34.8017 19.939 35.4351 19.939 36.1497ZM18.5747 36.1497C18.5747 35.6625 18.5016 35.2361 18.3555 34.8707C18.2093 34.4971 18.0022 34.2089 17.7342 34.0058C17.4662 33.7947 17.1617 33.6891 16.8206 33.6891C16.4714 33.6891 16.1629 33.7947 15.8949 34.0058C15.6269 34.2089 15.4157 34.4971 15.2614 34.8707C15.1153 35.2361 15.0422 35.6625 15.0422 36.1497C15.0422 36.637 15.1153 37.0633 15.2614 37.4287C15.4157 37.7942 15.6269 38.0825 15.8949 38.2936C16.1629 38.4966 16.4714 38.5981 16.8206 38.5981C17.1617 38.5981 17.4622 38.4966 17.722 38.2936C17.99 38.0825 18.1971 37.7942 18.3433 37.4287C18.4976 37.0633 18.5747 36.637 18.5747 36.1497ZM25.8013 39.7188L23.7549 36.7831L22.7073 37.782L22.7073 39.7188L21.3674 39.7188L21.3674 30.8265L22.7073 30.8265L22.7073 36.4299L25.6551 33.3602L27.0925 33.3602L24.6197 36.0279L27.2265 39.7188L25.8013 39.7188ZM31.7439 34.8585L31.7439 35.9305L30.3918 35.9305L30.3918 37.4044L29.1859 37.4044L29.1859 35.9305L27.8338 35.9305L27.8338 34.8585L29.1859 34.8585L29.1859 33.3846L30.3918 33.3846L30.3918 34.8585L31.7439 34.8585ZM36.3242 39.7188L36.3242 31.0702L40.0882 31.0702C40.478 31.0702 40.8354 31.1514 41.1602 31.3138C41.485 31.4762 41.7652 31.6914 42.0007 31.9594C42.2443 32.2274 42.4311 32.5278 42.561 32.8608C42.6991 33.1938 42.7681 33.5348 42.7681 33.884C42.7681 34.2657 42.6991 34.6311 42.561 34.9803C42.423 35.3295 42.224 35.63 41.9641 35.8817C41.7124 36.1335 41.416 36.3162 41.0749 36.4299L43.1092 39.7188L41.5743 39.7188L39.6984 36.7101L37.6885 36.7101L37.6885 39.7188L36.3242 39.7188ZM37.6885 35.5041L40.0761 35.5041C40.3278 35.5041 40.5511 35.431 40.746 35.2849C40.9409 35.1387 41.0952 34.9438 41.2089 34.7002C41.3226 34.4484 41.3794 34.1764 41.3794 33.884C41.3794 33.5835 41.3145 33.3156 41.1845 33.0801C41.0546 32.8364 40.8841 32.6415 40.6729 32.4954C40.4699 32.3492 40.2466 32.2761 40.003 32.2761L37.6885 32.2761L37.6885 35.5041ZM46.8918 39.8406C46.3964 39.8406 45.9457 39.7554 45.5397 39.5848C45.1418 39.4062 44.7967 39.1666 44.5043 38.8661C44.212 38.5575 43.9846 38.2083 43.8222 37.8185C43.6679 37.4206 43.5907 36.9983 43.5907 36.5517C43.5907 35.9508 43.7288 35.4026 44.0049 34.9072C44.281 34.4037 44.6667 34.0018 45.1621 33.7013C45.6575 33.3927 46.2381 33.2384 46.904 33.2384C47.5699 33.2384 48.1424 33.3927 48.6215 33.7013C49.1088 34.0018 49.4864 34.3997 49.7544 34.8951C50.0224 35.3904 50.1564 35.9223 50.1564 36.4908C50.1564 36.5882 50.1523 36.6816 50.1442 36.771C50.1361 36.8522 50.128 36.9212 50.1198 36.978L45.0159 36.978C45.0403 37.3516 45.1418 37.6805 45.3204 37.9647C45.5072 38.2408 45.7427 38.4601 46.027 38.6225C46.3112 38.7768 46.6157 38.8539 46.9405 38.8539C47.2979 38.8539 47.6349 38.7646 47.9516 38.586C48.2764 38.4073 48.4957 38.1718 48.6094 37.8795L49.7544 38.2083C49.6163 38.5169 49.4052 38.7971 49.121 39.0488C48.8449 39.2925 48.516 39.4874 48.1343 39.6335C47.7526 39.7716 47.3385 39.8406 46.8918 39.8406ZM44.9794 36.0888L48.8286 36.0888C48.8043 35.7234 48.6987 35.4026 48.5119 35.1265C48.3333 34.8423 48.1018 34.623 47.8176 34.4687C47.5415 34.3063 47.2329 34.2251 46.8918 34.2251C46.5589 34.2251 46.2503 34.3063 45.966 34.4687C45.6899 34.623 45.4626 34.8423 45.2839 35.1265C45.1052 35.4026 45.0037 35.7234 44.9794 36.0888ZM52.8494 39.7188L50.4253 33.348L51.814 33.348L53.629 38.4763L55.444 33.348L56.7352 33.348L54.3111 39.7188L52.8494 39.7188ZM57.6968 39.7188L57.6968 33.348L59.0368 33.348L59.0368 39.7188L57.6968 39.7188ZM57.6968 32.3005L57.6968 30.8265L59.0368 30.8265L59.0368 32.3005L57.6968 32.3005ZM63.5339 39.8406C63.0385 39.8406 62.5878 39.7554 62.1818 39.5848C61.7839 39.4062 61.4387 39.1666 61.1464 38.8661C60.854 38.5575 60.6267 38.2083 60.4642 37.8185C60.3099 37.4206 60.2328 36.9983 60.2328 36.5517C60.2328 35.9508 60.3709 35.4026 60.647 34.9072C60.9231 34.4037 61.3088 34.0018 61.8042 33.7013C62.2995 33.3927 62.8802 33.2384 63.5461 33.2384C64.212 33.2384 64.7845 33.3927 65.2636 33.7013C65.7509 34.0018 66.1285 34.3997 66.3965 34.8951C66.6645 35.3904 66.7985 35.9223 66.7985 36.4908C66.7985 36.5882 66.7944 36.6816 66.7863 36.771C66.7782 36.8522 66.77 36.9212 66.7619 36.978L61.658 36.978C61.6824 37.3516 61.7839 37.6805 61.9625 37.9647C62.1493 38.2408 62.3848 38.4601 62.669 38.6225C62.9533 38.7768 63.2578 38.8539 63.5826 38.8539C63.9399 38.8539 64.277 38.7646 64.5937 38.586C64.9185 38.4073 65.1378 38.1718 65.2514 37.8795L66.3965 38.2083C66.2584 38.5169 66.0473 38.7971 65.7631 39.0488C65.487 39.2925 65.1581 39.4874 64.7764 39.6335C64.3947 39.7716 63.9805 39.8406 63.5339 39.8406ZM61.6215 36.0888L65.4707 36.0888C65.4463 35.7234 65.3408 35.4026 65.154 35.1265C64.9753 34.8423 64.7439 34.623 64.4597 34.4687C64.1836 34.3063 63.875 34.2251 63.5339 34.2251C63.2009 34.2251 62.8924 34.3063 62.6081 34.4687C62.332 34.623 62.1046 34.8423 61.926 35.1265C61.7473 35.4026 61.6458 35.7234 61.6215 36.0888ZM75.6551 33.348L76.9342 33.348L74.2543 39.7188L73.1093 39.7188L71.9642 36.844L70.8192 39.7188L69.6742 39.7188L66.9821 33.348L68.2612 33.348L70.3076 38.4154L71.209 36.0645L70.1127 33.3602L71.2455 33.3602L71.9642 35.3458L72.6707 33.3602L73.8036 33.3602L72.7195 36.0645L73.6209 38.4154L75.6551 33.348ZM79.9354 39.8406C79.3994 39.8406 78.8919 39.7554 78.4127 39.5848C77.9336 39.4062 77.5235 39.1422 77.1824 38.793L77.6819 37.8916C78.0473 38.2165 78.4127 38.452 78.7782 38.5981C79.1517 38.7443 79.5212 38.8174 79.8867 38.8174C80.2602 38.8174 80.5648 38.7484 80.8003 38.6103C81.0358 38.4641 81.1535 38.253 81.1535 37.9769C81.1535 37.7739 81.0926 37.6236 80.9708 37.5262C80.849 37.4287 80.6703 37.3435 80.4348 37.2704C80.2074 37.1973 79.9313 37.1161 79.6065 37.0268C79.1517 36.8887 78.7701 36.7466 78.4615 36.6004C78.1529 36.4461 77.9214 36.2594 77.7671 36.0401C77.6129 35.8208 77.5357 35.5407 77.5357 35.1996C77.5357 34.7854 77.6413 34.4322 77.8524 34.1398C78.0636 33.8475 78.3559 33.6242 78.7295 33.4699C79.1111 33.3156 79.5497 33.2384 80.045 33.2384C80.5079 33.2384 80.9343 33.3115 81.3241 33.4577C81.722 33.5957 82.0712 33.815 82.3716 34.1155L81.7991 35.0047C81.5149 34.7448 81.2225 34.554 80.9221 34.4322C80.6297 34.3104 80.313 34.2495 79.9719 34.2495C79.777 34.2495 79.5903 34.2738 79.4116 34.3225C79.233 34.3631 79.0827 34.4444 78.9609 34.5662C78.8472 34.6799 78.7904 34.8423 78.7904 35.0534C78.7904 35.224 78.8391 35.362 78.9365 35.4676C79.034 35.5731 79.1802 35.6625 79.3751 35.7356C79.57 35.8086 79.8095 35.8899 80.0938 35.9792C80.5891 36.1254 81.0114 36.2715 81.3606 36.4177C81.7098 36.5558 81.9778 36.7385 82.1646 36.9659C82.3595 37.1851 82.4569 37.4897 82.4569 37.8795C82.4569 38.4966 82.2255 38.9798 81.7626 39.329C81.3078 39.6701 80.6988 39.8406 79.9354 39.8406ZM85.9798 35.5041C85.9798 36.032 85.9027 36.572 85.7484 37.1242C85.5941 37.6683 85.383 38.2043 85.115 38.7321C84.847 39.26 84.5425 39.7797 84.2014 40.2913L83.2147 39.7919C83.6695 39.0448 84.0349 38.3099 84.311 37.5871C84.5952 36.8644 84.7374 36.1822 84.7374 35.5407C84.7374 35.1265 84.6846 34.7042 84.579 34.2738C84.4734 33.8353 84.3354 33.409 84.1648 32.9948C84.0024 32.5725 83.8319 32.1908 83.6532 31.8498C83.4827 31.5087 83.3284 31.2326 83.1903 31.0214L84.2136 30.5829C84.7089 31.4194 85.1272 32.2436 85.4682 33.0557C85.8093 33.8597 85.9798 34.6758 85.9798 35.5041Z" fill="#230F0F"/>
</svg>
