<svg width="30" height="30" viewBox="0 0 30 30" fill="none" xmlns="http://www.w3.org/2000/svg">
<path d="M3.75 7.5C3.75 6.17392 4.27678 4.90215 5.21447 3.96447C6.15215 3.02678 7.42392 2.5 8.75 2.5H26.25V27.5H8.75C7.42392 27.5 6.15215 26.9732 5.21447 26.0355C4.27678 25.0979 3.75 23.8261 3.75 22.5V7.5ZM6.25 18.1687C7.00979 17.7293 7.87228 17.4986 8.75 17.5H23.75V5H8.75C8.08696 5 7.45107 5.26339 6.98223 5.73223C6.51339 6.20107 6.25 6.83696 6.25 7.5V18.1687ZM23.75 20H8.75C8.08696 20 7.45107 20.2634 6.98223 20.7322C6.51339 21.2011 6.25 21.837 6.25 22.5C6.25 23.163 6.51339 23.7989 6.98223 24.2678C7.45107 24.7366 8.08696 25 8.75 25H23.75V20ZM12.5 7.5H21.25V10H12.5V7.5Z" fill="black"/>
</svg>
