<svg width="25" height="25" viewBox="0 0 25 25" fill="none" xmlns="http://www.w3.org/2000/svg">
<g clip-path="url(#clip0_820_611)">
<path d="M2.49935 0.833333V0C2.27834 0 2.06637 0.0877974 1.91009 0.244078C1.75381 0.400358 1.66602 0.61232 1.66602 0.833333H2.49935ZM2.49935 22.5H1.66602C1.66602 22.721 1.75381 22.933 1.91009 23.0893C2.06637 23.2455 2.27834 23.3333 2.49935 23.3333V22.5ZM6.66602 0V25H8.33268V0H6.66602ZM2.49935 1.66667H19.166V0H2.49935V1.66667ZM21.666 4.16667V19.1667H23.3327V4.16667H21.666ZM19.166 21.6667H2.49935V23.3333H19.166V21.6667ZM3.33268 22.5V0.833333H1.66602V22.5H3.33268ZM21.666 19.1667C21.666 19.8297 21.4026 20.4656 20.9338 20.9344C20.4649 21.4033 19.8291 21.6667 19.166 21.6667V23.3333C20.2711 23.3333 21.3309 22.8943 22.1123 22.1129C22.8937 21.3315 23.3327 20.2717 23.3327 19.1667H21.666ZM19.166 1.66667C19.8291 1.66667 20.4649 1.93006 20.9338 2.3989C21.4026 2.86774 21.666 3.50363 21.666 4.16667H23.3327C23.3327 3.0616 22.8937 2.00179 22.1123 1.22039C21.3309 0.438987 20.2711 0 19.166 0V1.66667ZM11.666 8.33333H18.3327V6.66667H11.666V8.33333Z" fill="black"/>
</g>
<defs>
<clipPath id="clip0_820_611">
<rect width="25" height="25" fill="white"/>
</clipPath>
</defs>
</svg>
