<svg width="32" height="28" viewBox="0 0 32 28" fill="none" xmlns="http://www.w3.org/2000/svg">
<path d="M28.4247 6.84547C28.444 7.13746 28.444 7.42945 28.444 7.72413C28.444 16.7031 21.9087 27.0587 9.95863 27.0587V27.0533C6.42853 27.0587 2.97177 26.0011 0 24.0069C0.513305 24.0715 1.02918 24.1038 1.54635 24.1051C4.4718 24.1078 7.31363 23.0812 9.61514 21.1906C6.83506 21.1355 4.39718 19.2395 3.54553 16.4717C4.5194 16.6682 5.52285 16.6278 6.47871 16.3546C3.44776 15.7141 1.26718 12.9288 1.26718 9.69405C1.26718 9.66445 1.26718 9.63619 1.26718 9.60793C2.17029 10.1341 3.18146 10.426 4.21579 10.4583C1.36109 8.46285 0.481143 4.49072 2.20502 1.38513C5.50355 5.63042 10.3703 8.21123 15.5947 8.48438C15.0711 6.12424 15.7864 3.65108 17.4742 1.99199C20.0909 -0.580749 24.2064 -0.448882 26.6661 2.28667C28.1211 1.98661 29.5157 1.42819 30.7919 0.636995C30.3069 2.20997 29.2918 3.54613 27.9359 4.39518C29.2236 4.2364 30.4818 3.87579 31.6667 3.32545C30.7944 4.69255 29.6958 5.88339 28.4247 6.84547Z" fill="black"/>
</svg>
