<svg width="111" height="111" viewBox="0 0 111 111" fill="none" xmlns="http://www.w3.org/2000/svg">
<g clip-path="url(#clip0_393_33687)">
<path d="M3.04407 54.8417C3.04149 64.1379 5.47485 73.2151 10.1018 81.2158L2.60156 108.552L30.6265 101.217C38.3778 105.429 47.0626 107.636 55.8881 107.637H55.9112C85.0459 107.637 108.762 83.9711 108.775 54.8833C108.78 40.7881 103.286 27.534 93.3044 17.5623C83.3244 7.59142 70.0513 2.09738 55.9091 2.09094C26.7711 2.09094 3.05653 25.7551 3.0445 54.8417" fill="url(#paint0_linear_393_33687)"/>
<path d="M1.15305 54.8236C1.15004 64.4544 3.67062 73.8562 8.46259 82.1433L0.693359 110.459L29.7231 102.861C37.7218 107.215 46.7274 109.51 55.8912 109.513H55.9148C86.0947 109.513 110.663 84.9965 110.676 54.8674C110.681 40.2658 104.989 26.5351 94.651 16.2062C84.3114 5.87854 70.5636 0.18679 55.9148 0.180786C25.7298 0.180786 1.16508 24.6941 1.15305 54.8236ZM18.4409 80.7161L17.357 78.9986C12.8004 71.7664 10.3954 63.4089 10.3989 54.8271C10.4088 29.7841 30.826 9.40972 55.932 9.40972C68.0902 9.41487 79.5164 14.146 88.1105 22.7299C96.7041 31.3147 101.433 42.7265 101.43 54.8639C101.419 79.9069 81.0011 100.284 55.9148 100.284H55.8968C47.7285 100.28 39.7174 98.0898 32.7309 93.9518L31.0683 92.9676L13.8414 97.4761L18.4409 80.7157V80.7161Z" fill="url(#paint1_linear_393_33687)"/>
<path d="M42.2286 31.9795C41.2035 29.7053 40.1248 29.6594 39.15 29.6195C38.3517 29.5852 37.4392 29.5878 36.5276 29.5878C35.615 29.5878 34.1324 29.9305 32.8792 31.2964C31.6247 32.6636 28.0898 35.9674 28.0898 42.6872C28.0898 49.4073 32.9931 55.9014 33.6766 56.8136C34.361 57.7241 43.1424 71.9551 57.05 77.4299C68.6085 81.9796 70.9606 81.0747 73.4692 80.8466C75.9782 80.6193 81.5649 77.5435 82.7047 74.3541C83.8453 71.1652 83.8453 68.4317 83.5034 67.8604C83.1614 67.2914 82.2489 66.9496 80.8805 66.2668C79.5118 65.5837 72.7848 62.2793 71.5307 61.8235C70.2763 61.368 69.3642 61.1407 68.4517 62.5084C67.5392 63.8738 64.9189 66.9496 64.1203 67.8604C63.3225 68.7735 62.5238 68.8871 61.1559 68.204C59.7867 67.5186 55.3801 66.0781 50.1521 61.4255C46.0844 57.8051 43.3383 53.3343 42.5401 51.9667C41.7418 50.6012 42.4546 49.861 43.1407 49.1804C43.7555 48.5685 44.5094 47.5855 45.1943 46.7883C45.8765 45.9906 46.1042 45.4215 46.5604 44.5106C47.0171 43.5989 46.7886 42.8012 46.447 42.1181C46.1042 41.4349 43.4453 34.68 42.2286 31.9795Z" fill="white"/>
</g>
<defs>
<linearGradient id="paint0_linear_393_33687" x1="5311.25" y1="10648.2" x2="5311.25" y2="2.09094" gradientUnits="userSpaceOnUse">
<stop stop-color="#1FAF38"/>
<stop offset="1" stop-color="#60D669"/>
</linearGradient>
<linearGradient id="paint1_linear_393_33687" x1="5499.81" y1="11028" x2="5499.81" y2="0.180786" gradientUnits="userSpaceOnUse">
<stop stop-color="#F9F9F9"/>
<stop offset="1" stop-color="white"/>
</linearGradient>
<clipPath id="clip0_393_33687">
<rect width="109.982" height="110.644" fill="white" transform="translate(0.693359 0.180786)"/>
</clipPath>
</defs>
</svg>
